<?xml version="1.0" encoding="utf-8"?>
<!-- Generator: Adobe Illustrator 22.0.1, SVG Export Plug-In . SVG Version: 6.00 Build 0)  -->
<svg version="1.1" id="Layer_1" xmlns="http://www.w3.org/2000/svg" xmlns:xlink="http://www.w3.org/1999/xlink" x="0px" y="0px"
	 viewBox="0 0 484 205.6" style="enable-background:new 0 0 484 205.6;" xml:space="preserve">
<style type="text/css">
	.st0{fill:#DB097A;}
	.st1{opacity:0.13;clip-path:url(#SVGID_2_);}
	.st2{clip-path:url(#SVGID_4_);}
	.st3{clip-path:url(#SVGID_6_);fill:url(#SVGID_7_);}
	.st4{fill:none;stroke:#DB097A;stroke-width:4.003;stroke-miterlimit:10;}
	.st5{clip-path:url(#SVGID_9_);fill:#FFFFFF;}
	.st6{clip-path:url(#SVGID_9_);fill:none;stroke:#DB097A;stroke-width:6.861;}
</style>
<polygon class="st0" points="484,205.5 484,0 247.3,0 0,0 0,205.5 0,205.6 0.7,205.6 242,176.6 483.4,205.6 484,205.6 "/>
<g>
	<defs>
		<path id="SVGID_1_" d="M0,205.5L0,205.5L0,205.5z M0,0v205.5v0.1h0.7l241.4-29l241.4,29h0.7v-0.1V0L247.3,0L0,0z"/>
	</defs>
	<clipPath id="SVGID_2_">
		<use xlink:href="#SVGID_1_"  style="overflow:visible;"/>
	</clipPath>
	<g class="st1">
		<g>
			<defs>
				<rect id="SVGID_3_" x="-117.6" y="-354.5" width="766.3" height="835.9"/>
			</defs>
			<clipPath id="SVGID_4_">
				<use xlink:href="#SVGID_3_"  style="overflow:visible;"/>
			</clipPath>
			<g class="st2">
				<defs>
					<polygon id="SVGID_5_" points="521.4,479.9 647.4,342.5 9.7,-353.1 -116.2,-215.6 					"/>
				</defs>
				<clipPath id="SVGID_6_">
					<use xlink:href="#SVGID_5_"  style="overflow:visible;"/>
				</clipPath>
				
					<linearGradient id="SVGID_7_" gradientUnits="userSpaceOnUse" x1="-154.0028" y1="363.0011" x2="-153.0028" y2="363.0011" gradientTransform="matrix(125.9781 -137.4156 -126.4541 -137.9348 65506.5313 29040.2363)">
					<stop  offset="0" style="stop-color:#FFFFFF"/>
					<stop  offset="1" style="stop-color:#DB097A"/>
				</linearGradient>
				<polygon class="st3" points="-498,63.4 265.6,-769.5 1029.2,63.4 265.6,896.3 				"/>
			</g>
		</g>
	</g>
</g>
<polygon class="st4" points="484,205.5 484,0 247.3,0 0,0 0,205.5 0,205.6 0.7,205.6 242,176.6 483.4,205.6 484,205.6 "/>
<g>
	<defs>
		<rect id="SVGID_8_" x="-188.6" y="-166.4" width="841.9" height="595.3"/>
	</defs>
	<clipPath id="SVGID_9_">
		<use xlink:href="#SVGID_8_"  style="overflow:visible;"/>
	</clipPath>
	<path class="st5" d="M400.7,104.1c0.5-2,1.3-3.9,2.3-5.5c1-1.6,2.3-3,3.7-4.1c1.4-1.1,3-2,4.8-2.6c1.8-0.6,3.6-0.9,5.6-0.9
		c8.8,0,14.3,4.4,16.6,13.2H400.7z M450.7,113.7c0-11.8-3-20.9-9.1-27.6c-6.1-6.7-14.4-10-24.9-10c-10.4,0-18.7,3.4-25,10.3
		c-6.2,7-9.4,16.1-9.4,27.4c0,11.4,3.2,20.5,9.7,27.4c6.4,6.8,15,10.2,25.6,10.2c3.7,0,7.1-0.4,10.3-1.2c3.2-0.8,6.1-2,8.9-3.7
		c2.7-1.7,5.3-3.8,7.7-6.4c2.4-2.6,4.7-5.7,6.8-9.4l-13.9-7.8c-3.4,5.3-6.4,8.9-9,10.8c-2.7,2-6.1,2.9-10.2,2.9
		c-5.3,0-9.6-1.7-12.9-5.1c-3.4-3.5-5.3-8.1-5.7-14h51.1L450.7,113.7z M314.1,149.3h16.5v-34.3c0-8.9,1.1-15.1,3.4-18.6
		c2.3-3.6,6.2-5.4,11.6-5.4c5,0,8.5,1.4,10.4,4.1c2,2.7,2.9,7.5,2.9,14.5v39.7h16.5v-43.7c0-10-2-17.3-6-21.7
		c-4.6-5.2-11.1-7.8-19.4-7.8c-7.2,0-13.7,2.9-19.5,8.6V78h-16.5V149.3z M287.9,56.1c2.1,2.1,4.6,3.1,7.6,3.1c3,0,5.5-1,7.5-3.1
		c2.1-2.1,3.1-4.6,3.1-7.6c0-3-1.1-5.5-3.1-7.5c-2.1-2.1-4.6-3.1-7.6-3.1c-2.9,0-5.4,1-7.5,3.1c-2.1,2.1-3.1,4.6-3.1,7.5
		C284.8,51.4,285.8,54,287.9,56.1 M287.2,149.3h16.5V78h-16.5V149.3z M260.4,149.3h16.5V25.7h-16.5V149.3z M189.3,78v41.3
		c0,6.5,0.7,11.5,2,14.8c1.4,3.7,3.8,7,7.2,10c5.6,4.8,12.6,7.2,21.1,7.2c8.6,0,15.7-2.4,21.2-7.2c3.4-3,5.7-6.3,7.1-10
		c1.4-4.1,2.1-9.1,2.1-14.8V78h-16.5v40.9c0,11.8-4.7,17.7-14,17.7c-9.3,0-14-5.9-14-17.7V78H189.3z M129,97.3
		c3.8-4.3,8.5-6.4,14.2-6.4c6,0,10.9,2.1,14.6,6.4c3.8,4.3,5.6,9.9,5.6,16.5c0,6.7-1.9,12.2-5.6,16.5c-3.8,4.2-8.7,6.3-14.8,6.3
		c-5.7,0-10.4-2.2-14.2-6.5c-3.7-4.3-5.5-9.9-5.5-16.7C123.4,107.1,125.3,101.7,129,97.3 M162.5,86.3c-6.6-6.8-14-10.2-22.4-10.2
		c-9.6,0-17.6,3.6-23.9,10.8c-6.4,7.1-9.6,16-9.6,26.6c0,10.9,3.2,19.9,9.6,27.2c6.4,7.1,14.5,10.7,24.3,10.7c8.2,0,15.5-3.2,22-9.5
		v7.5H179V25.7h-16.5V86.3z M49.5,104.1c0.5-2,1.3-3.9,2.3-5.5c1-1.6,2.3-3,3.7-4.1c1.4-1.1,3-2,4.8-2.6c1.8-0.6,3.6-0.9,5.6-0.9
		c8.8,0,14.3,4.4,16.6,13.2H49.5z M99.5,113.7c0-11.8-3-20.9-9.1-27.6c-6.1-6.7-14.4-10-24.9-10c-10.4,0-18.7,3.4-25,10.3
		c-6.2,7-9.4,16.1-9.4,27.4c0,11.4,3.2,20.5,9.7,27.4c6.4,6.8,15,10.2,25.6,10.2c3.7,0,7.1-0.4,10.3-1.2c3.2-0.8,6.1-2,8.9-3.7
		c2.7-1.7,5.3-3.8,7.7-6.4c2.4-2.6,4.7-5.7,6.8-9.4l-13.9-7.8c-3.4,5.3-6.4,8.9-9,10.8c-2.7,2-6.1,2.9-10.2,2.9
		c-5.3,0-9.6-1.7-12.9-5.1c-3.4-3.5-5.3-8.1-5.7-14h51.1L99.5,113.7z"/>
	<path class="st6" d="M400.7,104.1c0.5-2,1.3-3.9,2.3-5.5c1-1.6,2.3-3,3.7-4.1c1.4-1.1,3-2,4.8-2.6c1.8-0.6,3.6-0.9,5.6-0.9
		c8.8,0,14.3,4.4,16.6,13.2H400.7z M450.7,113.7c0-11.8-3-20.9-9.1-27.6c-6.1-6.7-14.4-10-24.9-10c-10.4,0-18.7,3.4-25,10.3
		c-6.2,7-9.4,16.1-9.4,27.4c0,11.4,3.2,20.5,9.7,27.4c6.4,6.8,15,10.2,25.6,10.2c3.7,0,7.1-0.4,10.3-1.2c3.2-0.8,6.1-2,8.9-3.7
		c2.7-1.7,5.3-3.8,7.7-6.4c2.4-2.6,4.7-5.7,6.8-9.4l-13.9-7.8c-3.4,5.3-6.4,8.9-9,10.8c-2.7,2-6.1,2.9-10.2,2.9
		c-5.3,0-9.6-1.7-12.9-5.1c-3.4-3.5-5.3-8.1-5.7-14h51.1L450.7,113.7z M314.1,149.3h16.5v-34.3c0-8.9,1.1-15.1,3.4-18.6
		c2.3-3.6,6.2-5.4,11.6-5.4c5,0,8.5,1.4,10.4,4.1c2,2.7,2.9,7.5,2.9,14.5v39.7h16.5v-43.7c0-10-2-17.3-6-21.7
		c-4.6-5.2-11.1-7.8-19.4-7.8c-7.2,0-13.7,2.9-19.5,8.6V78h-16.5V149.3z M287.9,56.1c2.1,2.1,4.6,3.1,7.6,3.1c3,0,5.5-1,7.5-3.1
		c2.1-2.1,3.1-4.6,3.1-7.6c0-3-1.1-5.5-3.1-7.5c-2.1-2.1-4.6-3.1-7.6-3.1c-2.9,0-5.4,1-7.5,3.1c-2.1,2.1-3.1,4.6-3.1,7.5
		C284.8,51.4,285.8,54,287.9,56.1z M287.2,149.3h16.5V78h-16.5V149.3z M260.4,149.3h16.5V25.7h-16.5V149.3z M189.3,78v41.3
		c0,6.5,0.7,11.5,2,14.8c1.4,3.7,3.8,7,7.2,10c5.6,4.8,12.6,7.2,21.1,7.2c8.6,0,15.7-2.4,21.2-7.2c3.4-3,5.7-6.3,7.1-10
		c1.4-4.1,2.1-9.1,2.1-14.8V78h-16.5v40.9c0,11.8-4.7,17.7-14,17.7c-9.3,0-14-5.9-14-17.7V78H189.3z M129,97.3
		c3.8-4.3,8.5-6.4,14.2-6.4c6,0,10.9,2.1,14.6,6.4c3.8,4.3,5.6,9.9,5.6,16.5c0,6.7-1.9,12.2-5.6,16.5c-3.8,4.2-8.7,6.3-14.8,6.3
		c-5.7,0-10.4-2.2-14.2-6.5c-3.7-4.3-5.5-9.9-5.5-16.7C123.4,107.1,125.3,101.7,129,97.3z M162.5,86.3c-6.6-6.8-14-10.2-22.4-10.2
		c-9.6,0-17.6,3.6-23.9,10.8c-6.4,7.1-9.6,16-9.6,26.6c0,10.9,3.2,19.9,9.6,27.2c6.4,7.1,14.5,10.7,24.3,10.7c8.2,0,15.5-3.2,22-9.5
		v7.5H179V25.7h-16.5V86.3z M49.5,104.1c0.5-2,1.3-3.9,2.3-5.5c1-1.6,2.3-3,3.7-4.1c1.4-1.1,3-2,4.8-2.6c1.8-0.6,3.6-0.9,5.6-0.9
		c8.8,0,14.3,4.4,16.6,13.2H49.5z M99.5,113.7c0-11.8-3-20.9-9.1-27.6c-6.1-6.7-14.4-10-24.9-10c-10.4,0-18.7,3.4-25,10.3
		c-6.2,7-9.4,16.1-9.4,27.4c0,11.4,3.2,20.5,9.7,27.4c6.4,6.8,15,10.2,25.6,10.2c3.7,0,7.1-0.4,10.3-1.2c3.2-0.8,6.1-2,8.9-3.7
		c2.7-1.7,5.3-3.8,7.7-6.4c2.4-2.6,4.7-5.7,6.8-9.4l-13.9-7.8c-3.4,5.3-6.4,8.9-9,10.8c-2.7,2-6.1,2.9-10.2,2.9
		c-5.3,0-9.6-1.7-12.9-5.1c-3.4-3.5-5.3-8.1-5.7-14h51.1L99.5,113.7z"/>
	<path class="st5" d="M400.7,104.1c0.5-2,1.3-3.9,2.3-5.5c1-1.6,2.3-3,3.7-4.1c1.4-1.1,3-2,4.8-2.6c1.8-0.6,3.6-0.9,5.6-0.9
		c8.8,0,14.3,4.4,16.6,13.2H400.7z M450.7,113.7c0-11.8-3-20.9-9.1-27.6c-6.1-6.7-14.4-10-24.9-10c-10.4,0-18.7,3.4-25,10.3
		c-6.2,7-9.4,16.1-9.4,27.4c0,11.4,3.2,20.5,9.7,27.4c6.4,6.8,15,10.2,25.6,10.2c3.7,0,7.1-0.4,10.3-1.2c3.2-0.8,6.1-2,8.9-3.7
		c2.7-1.7,5.3-3.8,7.7-6.4c2.4-2.6,4.7-5.7,6.8-9.4l-13.9-7.8c-3.4,5.3-6.4,8.9-9,10.8c-2.7,2-6.1,2.9-10.2,2.9
		c-5.3,0-9.6-1.7-12.9-5.1c-3.4-3.5-5.3-8.1-5.7-14h51.1L450.7,113.7z M314.1,149.3h16.5v-34.3c0-8.9,1.1-15.1,3.4-18.6
		c2.3-3.6,6.2-5.4,11.6-5.4c5,0,8.5,1.4,10.4,4.1c2,2.7,2.9,7.5,2.9,14.5v39.7h16.5v-43.7c0-10-2-17.3-6-21.7
		c-4.6-5.2-11.1-7.8-19.4-7.8c-7.2,0-13.7,2.9-19.5,8.6V78h-16.5V149.3z M287.9,56.1c2.1,2.1,4.6,3.1,7.6,3.1c3,0,5.5-1,7.5-3.1
		c2.1-2.1,3.1-4.6,3.1-7.6c0-3-1.1-5.5-3.1-7.5c-2.1-2.1-4.6-3.1-7.6-3.1c-2.9,0-5.4,1-7.5,3.1c-2.1,2.1-3.1,4.6-3.1,7.5
		C284.8,51.4,285.8,54,287.9,56.1 M287.2,149.3h16.5V78h-16.5V149.3z M260.4,149.3h16.5V25.7h-16.5V149.3z M189.3,78v41.3
		c0,6.5,0.7,11.5,2,14.8c1.4,3.7,3.8,7,7.2,10c5.6,4.8,12.6,7.2,21.1,7.2c8.6,0,15.7-2.4,21.2-7.2c3.4-3,5.7-6.3,7.1-10
		c1.4-4.1,2.1-9.1,2.1-14.8V78h-16.5v40.9c0,11.8-4.7,17.7-14,17.7c-9.3,0-14-5.9-14-17.7V78H189.3z M129,97.3
		c3.8-4.3,8.5-6.4,14.2-6.4c6,0,10.9,2.1,14.6,6.4c3.8,4.3,5.6,9.9,5.6,16.5c0,6.7-1.9,12.2-5.6,16.5c-3.8,4.2-8.7,6.3-14.8,6.3
		c-5.7,0-10.4-2.2-14.2-6.5c-3.7-4.3-5.5-9.9-5.5-16.7C123.4,107.1,125.3,101.7,129,97.3 M162.5,86.3c-6.6-6.8-14-10.2-22.4-10.2
		c-9.6,0-17.6,3.6-23.9,10.8c-6.4,7.1-9.6,16-9.6,26.6c0,10.9,3.2,19.9,9.6,27.2c6.4,7.1,14.5,10.7,24.3,10.7c8.2,0,15.5-3.2,22-9.5
		v7.5H179V25.7h-16.5V86.3z M49.5,104.1c0.5-2,1.3-3.9,2.3-5.5c1-1.6,2.3-3,3.7-4.1c1.4-1.1,3-2,4.8-2.6c1.8-0.6,3.6-0.9,5.6-0.9
		c8.8,0,14.3,4.4,16.6,13.2H49.5z M99.5,113.7c0-11.8-3-20.9-9.1-27.6c-6.1-6.7-14.4-10-24.9-10c-10.4,0-18.7,3.4-25,10.3
		c-6.2,7-9.4,16.1-9.4,27.4c0,11.4,3.2,20.5,9.7,27.4c6.4,6.8,15,10.2,25.6,10.2c3.7,0,7.1-0.4,10.3-1.2c3.2-0.8,6.1-2,8.9-3.7
		c2.7-1.7,5.3-3.8,7.7-6.4c2.4-2.6,4.7-5.7,6.8-9.4l-13.9-7.8c-3.4,5.3-6.4,8.9-9,10.8c-2.7,2-6.1,2.9-10.2,2.9
		c-5.3,0-9.6-1.7-12.9-5.1c-3.4-3.5-5.3-8.1-5.7-14h51.1L99.5,113.7z"/>
</g>
</svg>
