<?xml version="1.0" standalone="no"?>
<!DOCTYPE svg PUBLIC "-//W3C//DTD SVG 1.1//EN" "http://www.w3.org/Graphics/SVG/1.1/DTD/svg11.dtd" >
<svg xmlns="http://www.w3.org/2000/svg" xmlns:xlink="http://www.w3.org/1999/xlink" version="1.1">
<metadata>
Created by FontForge 20201107 at Thu Jun 11 14:26:59 2015
 By Jimmy Wärting
Copyright (c) 2015 by John Moore. All rights reserved.
</metadata>
<defs>
<font id="CaracasPro-Book" horiz-adv-x="537" >
  <font-face 
    font-family="CaracasPro-Book"
    font-weight="400"
    font-stretch="normal"
    units-per-em="1000"
    panose-1="2 11 8 6 4 0 0 2 0 4"
    ascent="806"
    descent="-194"
    x-height="492"
    cap-height="661"
    bbox="-52.999 -242 940 858.002"
    underline-thickness="50"
    underline-position="-150"
    unicode-range="U+0020-FB04"
  />
<missing-glyph horiz-adv-x="224" 
 />
    <glyph glyph-name="ff" unicode="ff" horiz-adv-x="539" 
d="M231 606c-24.667 0 -42.002 -6.83301 -52.002 -20.5s-15 -28.167 -15 -43.5v-50h156v51c0 42 12.833 73.667 38.5 95s61.834 32 108.501 32h41v-64h-31c-24.667 0 -42 -6.83301 -52 -20.5s-15 -28.167 -15 -43.5v-50h98v-70h-98v-422h-90v422h-156v-422h-90v422h-71v70
h71v51c0 42 12.833 73.667 38.5 95s61.834 32 108.501 32h41v-64h-31z" />
    <glyph glyph-name="fi" unicode="fi" horiz-adv-x="556" 
d="M438 135c0 -14.667 5.16699 -28.333 15.5 -41s26.833 -19 49.5 -19h25v-75h-41c-33.333 0 -59.333 6 -78 18s-32.5 27.5 -41.5 46.5s-14.5 40.5 -16.5 64.5s-3 48.333 -3 73v219h-184v-421h-89v421h-72v72h72v48c0 36 12.5 66.333 37.5 91s61.167 37 108.5 37h41v-64h-31
c-23.333 0 -40.333 -6.66699 -51 -20s-16 -28 -16 -44v-48h274v-358zM345 618.001c0 14 5 25.667 15 35s22.333 14 37 14c14 0 26.333 -4.66699 37 -14s16 -21 16 -35s-5.33301 -25.667 -16 -35s-23 -14 -37 -14c-14.667 0 -27 4.66699 -37 14s-15 21 -15 35z" />
    <glyph glyph-name="fl" unicode="fl" horiz-adv-x="523" 
d="M231 606c-24.667 0 -42.001 -6.83301 -52.001 -20.5s-15 -28.167 -15 -43.5v-50h98v-70h-98v-422h-90v422h-71v70h71v51c0 42 12.833 73.667 38.5 95s61.834 32 108.501 32h41v-64h-31zM408.999 138c0 -7.33301 1.16602 -14.665 3.49902 -21.998s6 -14 11 -20
s11.667 -11 20 -15s18.5 -6 30.5 -6h26v-75h-42c-33.333 0 -59.166 5.66699 -77.499 17s-32 26.166 -41 44.499s-14.5 39.166 -16.5 62.499s-3 47.333 -3 72v509h89v-567z" />
    <glyph glyph-name="ffi" unicode="ffi" horiz-adv-x="750" 
d="M636 135c0 -15.333 4.99805 -29.167 14.998 -41.5s26.667 -18.5 50 -18.5h25v-75h-40c-44 -0 -78.333 10.833 -103 32.5s-37 49.5 -37 83.5v306h-136v-422h-90v422h-156v-422h-90v422h-71v70h71v51c0 42 12.833 73.667 38.5 95s61.834 32 108.501 32h41v-64h-31
c-24.667 0 -42 -6.83301 -52 -20.5s-15 -28.167 -15 -43.5v-50h156v51c0 42 12.833 73.667 38.5 95s61.834 32 108.501 32h41v-64h-31c-24.667 0 -42 -6.83301 -52 -20.5s-15 -28.167 -15 -43.5v-50h226v-357zM540.998 617.999c0 14 5.16699 25.667 15.5 35s22.5 14 36.5 14
c14.667 0 27.167 -4.66699 37.5 -14s15.5 -21 15.5 -35s-5.16699 -25.667 -15.5 -35s-22.833 -14 -37.5 -14c-14 0 -26.167 4.66699 -36.5 14s-15.5 21 -15.5 35z" />
    <glyph glyph-name="ffl" unicode="ffl" horiz-adv-x="759" 
d="M477 606c-24.667 0 -42.002 -6.83301 -52.002 -20.5s-15 -28.167 -15 -43.5v-50h98v-70h-98v-422h-90v422h-156v-422h-90v422h-71v70h71v51c0 42 12.833 73.667 38.5 95s61.834 32 108.501 32h41v-64h-31c-24.667 0 -42 -6.83301 -52 -20.5s-15 -28.167 -15 -43.5v-50
h156v51c0 42 12.833 73.667 38.5 95s61.834 32 108.501 32h41v-64h-31zM650.998 138c0 -7.33301 1.16699 -14.665 3.5 -21.998s6 -14 11 -20s11.667 -11 20 -15s18.5 -6 30.5 -6h26v-75h-42c-33.333 0 -59.333 5.66699 -78 17s-32.5 26.166 -41.5 44.499
s-14.333 39.166 -16 62.499s-2.5 47.333 -2.5 72v509h89v-567z" />
    <glyph glyph-name=".notdef" horiz-adv-x="224" 
 />
    <glyph glyph-name="space" unicode=" " horiz-adv-x="240" 
 />
    <glyph glyph-name="space" unicode="&#xa0;" horiz-adv-x="240" 
 />
    <glyph glyph-name="exclam" unicode="!" horiz-adv-x="238" 
d="M75 90h87v-90h-87v90zM88 159l-19 501h100l-19 -501h-62z" />
    <glyph glyph-name="quotedbl" unicode="&#x22;" horiz-adv-x="339" 
d="M272 478h-68v182h81zM122 478h-68v182h81z" />
    <glyph glyph-name="numbersign" unicode="#" horiz-adv-x="521" 
d="M323 402h-103l-24 -143h104zM393 402c-3.33301 -21.333 -7.16797 -45.168 -11.501 -71.501s-8.16602 -50.166 -11.499 -71.499h74v-57h-84l-33 -202h-70l34 202h-105l-33 -202h-70l34 202h-81v57h90l24 143h-80v57h88l34 202h71l-34 -202h103l34 202h71l-34 -202h75v-57
h-85z" />
    <glyph glyph-name="dollar" unicode="$" horiz-adv-x="474" 
d="M432 185c0 -54 -15.335 -97.6689 -46.002 -131.002s-71 -52.666 -121 -57.999v-73h-55v74c-38 3.33301 -71.167 13.166 -99.5 29.499s-50.166 33.833 -65.499 52.5l54 60c13.333 -14.667 31 -28 53 -40s50.667 -18 86 -18c34 0 60.167 9.33301 78.5 28s27.5 43 27.5 73
c0 28.667 -11 51.5 -33 68.5s-50 29.167 -84 36.5c-21.333 4.66699 -42.833 11.667 -64.5 21s-41.334 21.833 -59.001 37.5s-32.167 34.834 -43.5 57.501s-17 50 -17 82c0 24 3.66699 46.333 11 67s18 39 32 55s31.333 29.167 52 39.5s44.667 16.833 72 19.5v72h55v-73
c23.333 -3.33301 47.333 -10.666 72 -21.999s47.667 -28.333 69 -51l-50 -64c-15.333 14.667 -32.666 27 -51.999 37s-41.666 15 -66.999 15c-32 0 -57.667 -7.83301 -77 -23.5s-29 -39.5 -29 -71.5c0 -16.667 2.83301 -31 8.5 -43s13.5 -22.167 23.5 -30.5
s22 -15.333 36 -21s29 -10.167 45 -13.5c22.667 -4.66699 45.167 -12.167 67.5 -22.5s42.5 -23.5 60.5 -39.5s32.5 -34.833 43.5 -56.5s16.5 -46.167 16.5 -73.5z" />
    <glyph glyph-name="percent" unicode="%" horiz-adv-x="693" 
d="M114 439c0 -17.333 6.16699 -32.166 18.5 -44.499s27.166 -18.5 44.499 -18.5s32.166 6.16699 44.499 18.5s18.5 27.166 18.5 44.499v108c0 17.333 -6.16699 32.333 -18.5 45s-27.166 19 -44.499 19s-32.166 -6.33301 -44.499 -19s-18.5 -27.667 -18.5 -45v-108zM177 666
c16.667 0 32.5 -3.16699 47.5 -9.5s28 -15 39 -26s19.667 -24.167 26 -39.5s9.5 -31.666 9.5 -48.999v-97c0 -18 -3.16699 -34.5 -9.5 -49.5s-15 -28 -26 -39s-24 -19.667 -39 -26s-30.833 -9.5 -47.5 -9.5c-17.333 0 -33.333 3 -48 9s-27.5 14.5 -38.5 25.5
s-19.667 24.167 -26 39.5s-9.5 32 -9.5 50v97c0 17.333 3.16699 33.666 9.5 48.999s15 28.5 26 39.5s23.833 19.667 38.5 26s30.667 9.5 48 9.5zM478 111c0 -17.333 6 -32.166 18 -44.499s26.667 -18.5 44 -18.5s32.333 6.16699 45 18.5s19 27.166 19 44.499v108
c0 17.333 -6.33301 32.333 -19 45s-27.667 19 -45 19s-32 -6.33301 -44 -19s-18 -27.667 -18 -45v-108zM540 338c16.667 0 32.5 -3.16699 47.5 -9.5s28.167 -15 39.5 -26s20.166 -24.167 26.499 -39.5s9.5 -31.666 9.5 -48.999v-97c0 -18 -3.16699 -34.5 -9.5 -49.5
s-15.166 -28 -26.499 -39s-24.5 -19.667 -39.5 -26s-30.833 -9.5 -47.5 -9.5c-17.333 0 -33.333 3 -48 9s-27.5 14.5 -38.5 25.5s-19.667 24.167 -26 39.5s-9.5 32 -9.5 50v97c0 17.333 3.16699 33.666 9.5 48.999s15 28.5 26 39.5s23.833 19.667 38.5 26s30.667 9.5 48 9.5
zM122 -35c68.667 122 136.667 243.167 204 363.5s135.333 241.5 204 363.5h65l-409 -727h-64z" />
    <glyph glyph-name="ampersand" unicode="&#x26;" horiz-adv-x="612" 
d="M210 518c0 -11.333 4.66797 -23.833 14.001 -37.5s23.666 -32.5 42.999 -56.5c8 4 16.667 9 26 15s18 13 26 21s14.5 16.667 19.5 26s7.5 19.666 7.5 30.999c0 20.667 -6.33301 38.334 -19 53.001s-29 22 -49 22c-22.667 0 -39.667 -7 -51 -21s-17 -31.667 -17 -53z
M141.001 194c0 -22 3.66504 -40.6729 10.998 -56.0059s17 -27.666 29 -36.999s25.333 -16 40 -20s29 -6 43 -6c16 0 35.667 4.33301 59 13s46 24.334 68 47.001l-150 183c-9.33301 -5.33301 -19.666 -11.166 -30.999 -17.499s-22.166 -14.166 -32.499 -23.499
s-19 -20.666 -26 -33.999s-10.5 -29.666 -10.5 -48.999zM270.999 665.994c30 0 55.167 -4.99902 75.5 -14.999s36.666 -22.5 48.999 -37.5s21.333 -31 27 -48s8.5 -32.5 8.5 -46.5c0 -22 -4.5 -41.667 -13.5 -59s-19.5 -32.666 -31.5 -45.999s-24.333 -24.5 -37 -33.5
s-23 -15.833 -31 -20.5l136 -166c6.66699 9.33301 13.5 19.333 20.5 30s13.5 21 19.5 31s11.167 19.5 15.5 28.5s7.5 16.5 9.5 22.5c13.333 -4.66699 26.333 -9.5 39 -14.5s25.667 -9.5 39 -13.5c-5.33301 -12.667 -11.5 -26.334 -18.5 -41.001s-14.5 -28.834 -22.5 -42.501
s-16.167 -26.5 -24.5 -38.5s-16.166 -21.667 -23.499 -29l103 -127h-109l-57 70c-8.66699 -7.33301 -19 -15.166 -31 -23.499s-25.833 -16.333 -41.5 -24s-33 -14 -52 -19s-39.833 -7.5 -62.5 -7.5c-33.333 0 -63 5 -89 15s-48 24 -66 42s-31.667 39.167 -41 63.5
s-14 50.5 -14 78.5c0 27.333 5.16699 51.666 15.5 72.999s22.833 39.833 37.5 55.5s30 28.5 46 38.5s29.333 17.667 40 23c-6 8 -12.833 16.667 -20.5 26s-15 19.5 -22 30.5s-12.833 23 -17.5 36s-7 27.167 -7 42.5c0 43.333 13.833 78.5 41.5 105.5s64.167 40.5 109.5 40.5
z" />
    <glyph glyph-name="quotesingle" unicode="'" horiz-adv-x="203" 
d="M130 478h-69v182h81z" />
    <glyph glyph-name="parenleft" unicode="(" horiz-adv-x="298" 
d="M161 -104c-32 56 -56.168 117.166 -72.501 183.499s-24.5 135.5 -24.5 207.5c0 72.667 8.16699 141.834 24.5 207.501s40.5 126.167 72.5 181.5l76 -40c-29.333 -48.667 -51.333 -102.834 -66 -162.501s-22 -121.834 -22 -186.501
c0 -65.333 7.33301 -127.666 22 -186.999s36.667 -114 66 -164c-13.333 -6.66699 -26.166 -13.167 -38.499 -19.5s-24.833 -13.166 -37.5 -20.499z" />
    <glyph glyph-name="parenright" unicode=")" horiz-adv-x="298" 
d="M57 -64c28.667 50 50.334 104.831 65.001 164.498s22 121.834 22 186.501s-7.33301 126.834 -22 186.501s-36.334 113.834 -65.001 162.501l75 41c32 -56 56.5 -116.833 73.5 -182.5s25.5 -134.834 25.5 -207.501c0 -72 -8.5 -141.167 -25.5 -207.5
s-41.5 -127.5 -73.5 -183.5z" />
    <glyph glyph-name="asterisk" unicode="*" horiz-adv-x="344" 
d="M224 520l82 -47l-26 -46l-82 48v-95h-53v95l-82 -48l-26 46l81 47l-81 48c4 7.33301 8.33301 14.833 13 22.5s9 15.167 13 22.5l82 -47v95h53v-95l82 47l26 -45z" />
    <glyph glyph-name="plus" unicode="+" horiz-adv-x="583" 
d="M537 304v-72h-210v-209h-72v209h-210v72h210v211h72v-211h210z" />
    <glyph glyph-name="comma" unicode="," horiz-adv-x="194" 
d="M124 -63l-93 -44l24 201h92z" />
    <glyph glyph-name="hyphen" unicode="-" horiz-adv-x="329" 
d="M281 233h-233v91h233v-91z" />
    <glyph glyph-name="period" unicode="." horiz-adv-x="191" 
d="M146 0h-101v108h101v-108z" />
    <glyph glyph-name="slash" unicode="/" horiz-adv-x="325" 
d="M239 661h72l-225 -661h-71z" />
    <glyph glyph-name="zero" unicode="0" horiz-adv-x="652" 
d="M326 81c17.333 0 33.167 3.16895 47.5 9.50195s26.5 15.166 36.5 26.499s17.833 24.666 23.5 39.999s8.5 31.666 8.5 48.999v248c0 38.667 -11.167 69.334 -33.5 92.001s-49.833 34 -82.5 34c-17.333 0 -33 -3.33301 -47 -10s-26 -15.834 -36 -27.501
s-17.833 -25.167 -23.5 -40.5s-8.5 -31.333 -8.5 -48v-257c0 -16 3 -31.167 9 -45.5s14.333 -26.666 25 -36.999s23 -18.5 37 -24.5s28.667 -9 44 -9zM326.001 668.002c25.333 0 50.4971 -5 75.4971 -15s47.333 -24.167 67 -42.5s35.667 -40.833 48 -67.5
s18.5 -56.667 18.5 -90v-246c0 -36 -5.66699 -67.5 -17 -94.5s-26.666 -49.167 -45.999 -66.5s-41.666 -30.333 -66.999 -39s-51.666 -13 -78.999 -13s-53.666 5.66699 -78.999 17s-47.666 26.5 -66.999 45.5s-34.833 40.833 -46.5 65.5s-17.5 50 -17.5 76v254
c0 35.333 5.83301 66.5 17.5 93.5s27.167 49.5 46.5 67.5s41.666 31.667 66.999 41s51.666 14 78.999 14z" />
    <glyph glyph-name="one" unicode="1" horiz-adv-x="384" 
d="M70 545l148 116h86v-661h-96v554c-0.666992 0 -1.16699 0.166992 -1.5 0.5s-0.833008 0.5 -1.5 0.5l-90 -70z" />
    <glyph glyph-name="two" unicode="2" horiz-adv-x="499" 
d="M133 464l-89.9951 0.00195312v12c0 26.667 5.5 51.667 16.5 75s26.167 43.5 45.5 60.5s42.166 30.333 68.499 40s54.5 14.5 84.5 14.5c27.333 0 53 -4.83301 77 -14.5s45 -23.167 63 -40.5s32.333 -37.833 43 -61.5s16 -49.167 16 -76.5v-11
c0 -17.333 -2.5 -33.833 -7.5 -49.5s-13 -31 -24 -46s-25.167 -30 -42.5 -45s-38 -30.833 -62 -47.5c-19.333 -13.333 -39.5 -26.333 -60.5 -39s-40.167 -26.334 -57.5 -41.001s-32 -31 -44 -49s-19 -39 -21 -63h314v-81h-409v70c0 30 5.66699 56.833 17 80.5
s26.166 45.5 44.499 65.5s39.166 38.167 62.499 54.5s47 32.166 71 47.499c18 10.667 34.667 21.5 50 32.5s28.666 22.167 39.999 33.5s20.166 23 26.499 35s9.5 24.667 9.5 38v19c0 12.667 -3 25.167 -9 37.5s-14 23.5 -24 33.5s-21.333 18 -34 24s-25.667 9 -39 9
c-14 0 -28.333 -2.33301 -43 -7s-28 -11.5 -40 -20.5s-22 -19.833 -30 -32.5s-12 -27 -12 -43v-14z" />
    <glyph glyph-name="three" unicode="3" horiz-adv-x="514" 
d="M371 341c28 -13.333 50.167 -33.834 66.5 -61.501s24.5 -59.167 24.5 -94.5c0 -32 -6.33301 -60 -19 -84s-29 -44 -49 -60s-42.833 -27.833 -68.5 -35.5s-51.5 -11.5 -77.5 -11.5c-30 0 -58.167 4.83301 -84.5 14.5s-49.333 23.167 -69 40.5s-35.167 37.833 -46.5 61.5
s-17.333 49.167 -18 76.5h92c0 -14.667 3.66699 -28.667 11 -42s16.833 -25 28.5 -35s25.167 -17.833 40.5 -23.5s31 -8.5 47 -8.5c16.667 0 32.167 2.66699 46.5 8s26.833 13 37.5 23s19 21.833 25 35.5s9 28.5 9 44.5c0 34 -10.667 61.167 -32 81.5s-50 30.5 -86 30.5h-85
v75h86c15.333 0 29.666 2.66699 42.999 8s25 12.833 35 22.5s18 20.834 24 33.501s9 26.667 9 42c0 16 -3 30.333 -9 43s-14 23.5 -24 32.5s-21.667 16 -35 21s-27.333 7.5 -42 7.5c-15.333 0 -29.666 -3 -42.999 -9s-25 -14.333 -35 -25s-18.167 -23.167 -24.5 -37.5
s-9.83301 -29.833 -10.5 -46.5h-89c0 28 5.16699 54 15.5 78s24.666 45 42.999 63s39.833 32 64.5 42s51.334 15 80.001 15c29.333 0 56.166 -4.5 80.499 -13.5s45.333 -21.333 63 -37s31.5 -34.334 41.5 -56.001s15 -44.834 15 -69.501
c0 -33.333 -7.66699 -63.166 -23 -89.499s-34.666 -46.166 -57.999 -59.499z" />
    <glyph glyph-name="four" unicode="4" horiz-adv-x="529" 
d="M489 219v-77h-64v-142h-94v142h-294v74l269 445h119v-442h64zM332 219v321l-195 -321h195z" />
    <glyph glyph-name="five" unicode="5" horiz-adv-x="536" 
d="M291 455c24.667 0 48.4971 -4.83301 71.4971 -14.5s43.333 -23 61 -40s31.667 -37.167 42 -60.5s15.5 -48.333 15.5 -75v-74c0 -26.667 -5.16699 -51.834 -15.5 -75.501s-24.5 -44.5 -42.5 -62.5s-39.333 -32.167 -64 -42.5s-51.667 -15.5 -81 -15.5
c-30 0 -57.667 5.16699 -83 15.5s-47.333 24.333 -66 42s-33.5 38.167 -44.5 61.5s-16.833 48.333 -17.5 75h90c0 -16 3.16699 -31.167 9.5 -45.5s15 -26.833 26 -37.5s23.833 -19 38.5 -25s30.334 -9 47.001 -9c14.667 0 28.834 2.83301 42.501 8.5
s25.834 13.667 36.501 24s19 22.5 25 36.5s9 29 9 45v77c0 16 -3 30.833 -9 44.5s-14 25.667 -24 36s-21.833 18.5 -35.5 24.5s-28.5 9 -44.5 9c-23.333 0 -45.5 -6.16699 -66.5 -18.5s-35.833 -28.166 -44.5 -47.499h-90v350h370v-79h-283v-168h4
c15.333 12.667 33.833 22.667 55.5 30s44.167 11 67.5 11z" />
    <glyph glyph-name="six" unicode="6" horiz-adv-x="515" 
d="M261 76c15.333 0 30.001 3 44.001 9s26.167 14.167 36.5 24.5s18.666 22.5 24.999 36.5s9.5 29 9.5 45v45c0 16 -3.16699 31 -9.5 45s-14.666 26.167 -24.999 36.5s-22.5 18.5 -36.5 24.5s-28.667 9 -44 9c-16.667 0 -32.334 -2.66699 -47.001 -8
s-27.5 -13.333 -38.5 -24s-19.667 -24 -26 -40s-9.5 -34.333 -9.5 -55v-33c0 -18.667 3.33301 -35.167 10 -49.5s15.667 -26.333 27 -36s24.333 -17 39 -22s29.667 -7.5 45 -7.5zM147.001 389c20.667 18 41.3369 29.498 62.0039 34.498s42 7.5 64 7.5
c28 0 53.667 -5.16699 77 -15.5s43.666 -24.166 60.999 -41.499s30.833 -37.5 40.5 -60.5s14.5 -46.833 14.5 -71.5v-31c0 -28 -4.5 -55 -13.5 -81s-22.167 -49 -39.5 -69s-38.833 -36 -64.5 -48s-54.834 -18 -87.501 -18c-27.333 0 -53.5 4 -78.5 12
s-47.167 19.833 -66.5 35.5s-34.833 35.167 -46.5 58.5s-18.167 50.666 -19.5 81.999c-0.666992 10 -1 20 -1 30v30v123c0 54.667 7.16699 101.167 21.5 139.5s33 69.333 56 93s48.833 40.834 77.5 51.501s57.667 16 87 16c34 0 63.167 -4.5 87.5 -13.5
s46.5 -20.167 66.5 -33.5l-40 -72c-32.667 26 -70.334 39 -113.001 39c-20 0 -38.833 -4 -56.5 -12s-33.334 -20.167 -47.001 -36.5s-24.667 -36.666 -33 -60.999s-12.833 -52.833 -13.5 -85.5z" />
    <glyph glyph-name="seven" unicode="7" horiz-adv-x="467" 
d="M433 598l-259 -598h-96l246 579h-288v82h397v-63z" />
    <glyph glyph-name="eight" unicode="8" horiz-adv-x="527" 
d="M264 368c16 0 30.833 2.83301 44.5 8.5s25.834 13.5 36.501 23.5s19 21.833 25 35.5s9 28.5 9 44.5s-3 30.833 -9 44.5s-14.333 25.5 -25 35.5s-22.834 17.833 -36.501 23.5s-28.5 8.5 -44.5 8.5s-31.167 -2.83301 -45.5 -8.5s-26.833 -13.5 -37.5 -23.5
s-19 -21.833 -25 -35.5s-9 -28.5 -9 -44.5s3 -30.833 9 -44.5s14.333 -25.5 25 -35.5s23.167 -17.833 37.5 -23.5s29.5 -8.5 45.5 -8.5zM57 484c0 27.333 5.33105 52.333 15.998 75s25.334 42 44.001 58s40.667 28.5 66 37.5s52.333 13.5 81 13.5s55.5 -4.5 80.5 -13.5
s47 -21.5 66 -37.5s34 -35.333 45 -58s16.5 -47.667 16.5 -75c0 -32 -7.83301 -61.167 -23.5 -87.5s-36.167 -47.5 -61.5 -63.5v-4c27.333 -16 49.5 -36.833 66.5 -62.5s25.5 -54.5 25.5 -86.5c0 -27.333 -5.66699 -52.166 -17 -74.499s-26.833 -41.833 -46.5 -58.5
s-42.5 -29.5 -68.5 -38.5s-54 -13.5 -84 -13.5s-58 4.5 -84 13.5s-48.667 21.833 -68 38.5s-34.666 36.167 -45.999 58.5s-17 47.166 -17 74.499c0 32 8.16699 60.833 24.5 86.5s38.5 46.5 66.5 62.5v4c-24.667 16 -44.5 37.167 -59.5 63.5s-22.5 55.5 -22.5 87.5z
M263.998 71c16.667 0 32.334 2.83301 47.001 8.5s27.5 13.5 38.5 23.5s19.667 21.833 26 35.5s9.5 28.5 9.5 44.5s-3.16699 30.833 -9.5 44.5s-15 25.5 -26 35.5s-23.833 17.833 -38.5 23.5s-30.334 8.5 -47.001 8.5c-17.333 0 -33.333 -2.83301 -48 -8.5
s-27.5 -13.5 -38.5 -23.5s-19.667 -21.833 -26 -35.5s-9.5 -28.5 -9.5 -44.5s3.16699 -30.833 9.5 -44.5s15 -25.5 26 -35.5s23.833 -17.833 38.5 -23.5s30.667 -8.5 48 -8.5z" />
    <glyph glyph-name="nine" unicode="9" horiz-adv-x="502" 
d="M245 586c-15.333 0 -29.834 -3.16895 -43.501 -9.50195s-25.834 -14.666 -36.501 -24.999s-19 -22.5 -25 -36.5s-9 -29 -9 -45v-45c0 -16.667 3 -32 9 -46s14.333 -26.167 25 -36.5s22.834 -18.5 36.501 -24.5s28.167 -9 43.5 -9c16.667 0 32.334 2.66699 47.001 8
s27.5 13.333 38.5 24s19.667 23.834 26 39.501s9.5 34.167 9.5 55.5v34c0 18.667 -3.33301 35.167 -10 49.5s-15.667 26.5 -27 36.5s-24.333 17.5 -39 22.5s-29.667 7.5 -45 7.5zM360.999 270.998c-20.667 -17.333 -41.499 -28.4961 -62.499 -33.4961s-42.5 -7.5 -64.5 -7.5
c-27.333 0 -52.833 5.16699 -76.5 15.5s-44.167 24.166 -61.5 41.499s-30.833 37.333 -40.5 60s-14.5 46.667 -14.5 72v31c0 28 4.5 55 13.5 81s22 49 39 69s38.167 36 63.5 48s54.666 18 87.999 18c28 0 54.5 -4 79.5 -12s47.167 -19.833 66.5 -35.5
s34.833 -35.334 46.5 -59.001s18.167 -50.834 19.5 -81.501c0.666992 -10 1 -20 1 -30v-30v-123c0 -55.333 -7.16699 -102 -21.5 -140s-33 -68.833 -56 -92.5s-49 -40.834 -78 -51.501s-57.833 -16 -86.5 -16c-34 0 -63.167 4.5 -87.5 13.5s-46.833 19.833 -67.5 32.5l40 72
c35.333 -25.333 73 -38 113 -38c20 0 39 4 57 12s33.833 20 47.5 36s24.667 36.333 33 61s12.833 53.667 13.5 87h-4z" />
    <glyph glyph-name="colon" unicode=":" horiz-adv-x="191" 
d="M146 0h-101v108h101v-108zM146 254h-101v108h101v-108z" />
    <glyph glyph-name="semicolon" unicode=";" horiz-adv-x="194" 
d="M126 -63l-93 -44l24 201h92zM148 258h-101v108h101v-108z" />
    <glyph glyph-name="less" unicode="&#x3c;" horiz-adv-x="485" 
d="M50 278l374 240.999v-74l-300 -193l300 -193v-73c-62.667 40 -125 79.833 -187 119.5s-124.333 79.834 -187 120.501v52z" />
    <glyph glyph-name="equal" unicode="=" horiz-adv-x="565" 
d="M515 315h-467v75h467v-75zM515 157h-467v74h467v-74z" />
    <glyph glyph-name="greater" unicode="&#x3e;" horiz-adv-x="485" 
d="M434 235l-373 -240v73l299 193l-299 194v73l373 -240v-53z" />
    <glyph glyph-name="question" unicode="?" horiz-adv-x="447" 
d="M184 90h87v-90h-87v90zM228 666c27.333 0 52.668 -4.66895 76.001 -14.002s43.333 -22.166 60 -38.499s29.667 -35.5 39 -57.5s14 -45.333 14 -70c0 -20.667 -4 -40.334 -12 -59.001s-18 -37 -30 -55s-25.5 -35.833 -40.5 -53.5s-29.5 -35.5 -43.5 -53.5
c-8 -10.667 -13.167 -20.667 -15.5 -30s-3.83301 -17.333 -4.5 -24v-60h-87v40c0 8 0.5 17.833 1.5 29.5s2.83301 23.334 5.5 35.001s6.16699 22.5 10.5 32.5s10.166 17.667 17.499 23l71 94c14 18.667 23.5 33.334 28.5 44.001s7.5 23 7.5 37c0 28 -9.5 51.333 -28.5 70
s-42.167 28 -69.5 28c-28 0 -51.667 -9.5 -71 -28.5s-29 -42.5 -29 -70.5v-11h-90v11c0 24.667 4.83301 48 14.5 70s23 41.333 40 58s37.167 29.667 60.5 39s48.333 14 75 14z" />
    <glyph glyph-name="at" unicode="@" horiz-adv-x="793" 
d="M396 -108c-48.667 0 -93.999 6.83496 -135.999 20.502s-78.333 34.167 -109 61.5s-54.834 61.166 -72.501 101.499s-26.5 87.166 -26.5 140.499c0 50.667 10 97.667 30 141s46.5 81 79.5 113s71 57 114 75s87.5 27 133.5 27s89.167 -6.66699 129.5 -20
s75.5 -32.5 105.5 -57.5s53.667 -55 71 -90s26 -74.5 26 -118.5c0 -37.333 -5.5 -71.5 -16.5 -102.5s-25.667 -57.5 -44 -79.5s-39.833 -39.167 -64.5 -51.5s-51 -18.5 -79 -18.5c-21.333 0 -39 6.5 -53 19.5s-22 29.833 -24 50.5h-4c-14.667 -21.333 -32 -37.833 -52 -49.5
s-44.667 -17.5 -74 -17.5c-14.667 0 -29.667 3 -45 9s-29.333 15 -42 27s-23 27.333 -31 46s-12 40.667 -12 66c0 34.667 5.66699 66.5 17 95.5s26.5 54 45.5 75s40.667 37.167 65 48.5s49.166 17 74.499 17c22 0 43.5 -5.66699 64.5 -17s34.5 -28.666 40.5 -51.999h4
c3.33301 10.667 6.5 21.167 9.5 31.5s6.16699 20.833 9.5 31.5h68l-75 -246c-2 -6 -3.83301 -12.833 -5.5 -20.5s-2.5 -14.167 -2.5 -19.5c0 -14.667 3.83301 -24.834 11.5 -30.501s16.167 -8.5 25.5 -8.5s21.166 3.33301 35.499 10s28.333 17.834 42 33.501
s25.334 36 35.001 61s14.5 56.167 14.5 93.5c0 28.667 -5.33301 56.5 -16 83.5s-27 51 -49 72s-50.167 38 -84.5 51s-75.166 19.5 -122.499 19.5c-39.333 0 -76.666 -7.33301 -111.999 -22s-66.333 -35.334 -93 -62.001s-48 -58.167 -64 -94.5s-24 -76.166 -24 -119.499
c0 -45.333 7.5 -84.833 22.5 -118.5s35.5 -61.834 61.5 -84.501s56.167 -39.667 90.5 -51s70.5 -17 108.5 -17c53.333 0 100 7.66699 140 23s74 32 102 50l30 -41c-38.667 -26.667 -81.334 -47.5 -128.001 -62.5s-95 -22.5 -145 -22.5zM401.001 365.002
c-15.333 0 -30.668 -4.5 -46.001 -13.5s-29.166 -21 -41.499 -36s-22.333 -32.667 -30 -53s-11.5 -41.833 -11.5 -64.5c0 -67.333 23.333 -101 70 -101c18 0 35 5.66699 51 17s30.167 25.833 42.5 43.5s22.166 37 29.499 58s11 41.167 11 60.5
c0 30.667 -6.66699 53.167 -20 67.5s-31.666 21.5 -54.999 21.5z" />
    <glyph glyph-name="A" unicode="A" horiz-adv-x="596" 
d="M347 661c38.667 -110.667 77.166 -220.832 115.499 -330.499s77.166 -219.834 116.499 -330.501h-99l-57 165h-251c-9.33301 -28 -18.666 -55.5 -27.999 -82.5s-18.666 -54.5 -27.999 -82.5h-99l232 661h98zM199.999 246.002h196l-97 284h-4z" />
    <glyph glyph-name="B" unicode="B" horiz-adv-x="625" 
d="M563 175c0 -25.333 -4.49902 -48.833 -13.499 -70.5s-22 -40.167 -39 -55.5s-37.833 -27.333 -62.5 -36s-52.334 -13 -83.001 -13h-298v661h317c24 0 46.167 -4.16699 66.5 -12.5s37.666 -19.666 51.999 -33.999s25.5 -31.666 33.5 -51.999s12 -42.5 12 -66.5v-16
c0 -30 -6 -57 -18 -81s-27 -42 -45 -54v-5c20.667 -12.667 38.834 -30.834 54.501 -54.501s23.5 -51.834 23.5 -84.501v-26zM468.001 204c0 11.333 -2.16797 22.667 -6.50098 34s-10.666 21.5 -18.999 30.5s-18.5 16.167 -30.5 21.5s-25.333 8 -40 8h-210v-219h196
c33.333 0 60 9.33301 80 28s30 44 30 76v21zM162 378.001l198.999 0.000976562c25.333 0 47.166 9.16699 65.499 27.5s27.5 41.166 27.5 68.499v13c0 14.667 -2.66699 27.834 -8 39.501s-12.166 21.667 -20.499 30s-18.166 14.666 -29.499 18.999s-23 6.5 -35 6.5h-199v-204
z" />
    <glyph glyph-name="C" unicode="C" horiz-adv-x="622" 
d="M592 137c-25.333 -44 -60.1689 -79.001 -104.502 -105.001s-94.166 -39 -149.499 -39c-40 0 -77.667 7.16699 -113 21.5s-66.166 34.333 -92.499 60s-47.166 55.834 -62.499 90.501s-23 72.334 -23 113.001v105c0 40.667 7.66699 78.334 23 113.001
s36.166 64.667 62.499 90s57.166 45.333 92.499 60s73 22 113 22c54.667 0 104.334 -13 149.001 -39s79.667 -61 105 -105l-84 -45c-17.333 30 -40.833 54 -70.5 72s-62.834 27 -99.501 27c-27.333 0 -52.833 -5.16699 -76.5 -15.5s-44.167 -24.333 -61.5 -42
s-31.166 -38.334 -41.499 -62.001s-15.5 -49.167 -15.5 -76.5v-103c0 -27.333 5.16699 -52.833 15.5 -76.5s24.166 -44.334 41.499 -62.001s37.833 -31.667 61.5 -42s49.167 -15.5 76.5 -15.5c36.667 0 69.834 9.16699 99.501 27.5s53.167 42.5 70.5 72.5z" />
    <glyph glyph-name="D" unicode="D" horiz-adv-x="657" 
d="M515 378c0 26.667 -5.16699 52.001 -15.5 76.001s-24.333 44.833 -42 62.5s-38.5 31.667 -62.5 42s-49.333 15.5 -76 15.5h-157v-486h157c26.667 0 52 5.16699 76 15.5s44.833 24.166 62.5 41.499s31.667 37.833 42 61.5s15.5 49.167 15.5 76.5v95zM325 661.001
c39.333 0 76.333 -7.49707 111 -22.4971s64.834 -35.333 90.501 -61s46 -55.834 61 -90.501s22.5 -71.334 22.5 -110.001v-92c0 -39.333 -7.5 -76.333 -22.5 -111s-35.333 -64.834 -61 -90.501s-55.834 -46 -90.501 -61s-71.667 -22.5 -111 -22.5h-258v661h258z" />
    <glyph glyph-name="E" unicode="E" horiz-adv-x="534" 
d="M162 579v-208h298v-83h-298v-207h327v-81h-422v661h422v-82h-327z" />
    <glyph glyph-name="F" unicode="F" horiz-adv-x="511" 
d="M161 579v-208h285v-83h-285v-288h-94v661h409v-82h-315z" />
    <glyph glyph-name="G" unicode="G" horiz-adv-x="669" 
d="M530 285l-231.996 0.00195312v83h330v-52c0 -9.33301 -0.166992 -18.333 -0.5 -27s-0.833008 -17.334 -1.5 -26.001c-2 -38 -10.833 -73.5 -26.5 -106.5s-36.5 -61.5 -62.5 -85.5s-56 -42.833 -90 -56.5s-70.333 -20.5 -109 -20.5c-40.667 0 -78.667 7.16699 -114 21.5
s-66.166 34.166 -92.499 59.499s-47.166 55.333 -62.499 90s-23 72.334 -23 113.001v104c0 40.667 7.66699 78.5 23 113.5s36.166 65.167 62.499 90.5s57.166 45.333 92.499 60s73.333 22 114 22c54 0 103.5 -13 148.5 -39s80.167 -61 105.5 -105
c-14.667 -7.33301 -28.834 -15 -42.501 -23s-27.834 -15.667 -42.501 -23c-16.667 30 -39.834 54.167 -69.501 72.5s-62.834 27.5 -99.501 27.5c-27.333 0 -52.833 -5.16699 -76.5 -15.5s-44.334 -24.333 -62.001 -42s-31.667 -38.5 -42 -62.5s-15.5 -49.333 -15.5 -76v-103
c0 -26.667 5.16699 -51.834 15.5 -75.501s24.333 -44.5 42 -62.5s38.334 -32.167 62.001 -42.5s49.167 -15.5 76.5 -15.5s52.833 5 76.5 15s44 23.333 61 40s30.333 36 40 58s14.5 45 14.5 69v20z" />
    <glyph glyph-name="H" unicode="H" horiz-adv-x="654" 
d="M492 661h94v-661h-94v287h-330v-287h-95v661h95v-286h330v286z" />
    <glyph glyph-name="I" unicode="I" horiz-adv-x="230" 
d="M67 661h95v-661h-95v661z" />
    <glyph glyph-name="J" unicode="J" horiz-adv-x="359" 
d="M31 83c8.66699 -2.66699 19.001 -4 31.001 -4c20.667 0 39.834 3.66699 57.501 11s33 17.5 46 30.5s23.167 28.5 30.5 46.5s11 37.667 11 59v435h95v-443c0 -32 -6 -61.833 -18 -89.5s-28.333 -51.667 -49 -72s-45.334 -36.5 -74.001 -48.5s-59.334 -18 -92.001 -18
c-20 0 -38.333 2 -55 6z" />
    <glyph glyph-name="K" unicode="K" horiz-adv-x="561" 
d="M302 355l248 -355h-114c-34.667 48.667 -69 97.667 -103 147s-68 98.333 -102 147l-69 -84v-210h-95v661h95v-330h4l260 330h119z" />
    <glyph glyph-name="L" unicode="L" horiz-adv-x="472" 
d="M452 88v-88h-385v661h95v-573h290z" />
    <glyph glyph-name="M" unicode="M" horiz-adv-x="777" 
d="M684 661l48 -661h-94l-34 456h-5l-184 -395h-50l-188 395h-4l-34 -456h-94l49 661h86l207 -445h4l207 445h86z" />
    <glyph glyph-name="N" unicode="N" horiz-adv-x="670" 
d="M602 661v-661h-96l-340 512h-4v-512h-95v661h106l331 -510h4v510h94z" />
    <glyph glyph-name="O" unicode="O" horiz-adv-x="676" 
d="M629 278c0 -40.667 -7.66699 -78.334 -23 -113.001s-36.166 -64.834 -62.499 -90.501s-57.166 -45.667 -92.499 -60s-73 -21.5 -113 -21.5s-77.667 7.16699 -113 21.5s-66.166 34.333 -92.499 60s-47.166 55.834 -62.499 90.501s-23 72.334 -23 113.001v105
c0 40.667 7.66699 78.334 23 113.001s36.166 64.667 62.499 90s57.166 45.333 92.499 60s73 22 113 22s77.667 -7.33301 113 -22s66.166 -34.667 92.499 -60s47.166 -55.333 62.499 -90s23 -72.334 23 -113.001v-105zM533 382c0 27.333 -5.16699 52.833 -15.5 76.5
s-24.166 44.334 -41.499 62.001s-38 31.667 -62 42s-49.333 15.5 -76 15.5c-27.333 0 -52.833 -5.16699 -76.5 -15.5s-44.167 -24.333 -61.5 -42s-31.166 -38.334 -41.499 -62.001s-15.5 -49.167 -15.5 -76.5v-103c0 -27.333 5.16699 -52.833 15.5 -76.5
s24.166 -44.167 41.499 -61.5s37.833 -31.166 61.5 -41.499s49.167 -15.5 76.5 -15.5c26.667 0 52 5.16699 76 15.5s44.667 24.166 62 41.499s31.166 37.833 41.499 61.5s15.5 49.167 15.5 76.5v103z" />
    <glyph glyph-name="P" unicode="P" horiz-adv-x="598" 
d="M346 284c15.333 0 29.666 3.00195 42.999 9.00195s25 14.167 35 24.5s18 22.166 24 35.499s9 27 9 41v73c0 14 -3 27.667 -9 41s-14.167 25.166 -24.5 35.499s-22.166 18.833 -35.499 25.5s-27.333 10 -42 10h-185v-295h185zM161 201.002l0.000976562 -201h-94v660h292
c26.667 0 51.667 -5.33301 75 -16s43.666 -24.667 60.999 -42s31 -37.5 41 -60.5s15 -46.833 15 -71.5v-79c0 -24.667 -5 -48.5 -15 -71.5s-23.667 -43.167 -41 -60.5s-37.5 -31.333 -60.5 -42s-47.5 -16 -73.5 -16h-200z" />
    <glyph glyph-name="Q" unicode="Q" horiz-adv-x="690" 
d="M595 -51c-31.333 30.667 -62.998 60.334 -94.998 89.001c-23.333 -14 -48.333 -24.833 -75 -32.5s-55 -11.5 -85 -11.5c-40 0 -77.667 7.16699 -113 21.5s-66.166 34.166 -92.499 59.499s-47.166 55.333 -62.499 90s-23 72.334 -23 113.001v104
c0 40.667 7.66699 78.5 23 113.5s36.166 65.167 62.499 90.5s57.166 45.333 92.499 60s73 22 113 22s77.667 -7.33301 113 -22s66.166 -34.667 92.499 -60s47.166 -55.5 62.499 -90.5s23 -72.833 23 -113.5v-104c0 -37.333 -6.5 -72.333 -19.5 -105
s-31.167 -61.334 -54.5 -86.001l89 -87zM340.002 83c32 0 61.999 7.33301 89.999 22l-66 63c9.33301 8.66699 18 17.5 26 26.5s16.667 18.167 26 27.5l70 -69c15.333 16.667 27.333 35.834 36 57.501s13 44.5 13 68.5v103c0 26.667 -5.16699 52 -15.5 76
s-24.166 44.833 -41.499 62.5s-38 31.667 -62 42s-49.333 15.5 -76 15.5c-27.333 0 -52.833 -5.16699 -76.5 -15.5s-44.334 -24.333 -62.001 -42s-31.667 -38.5 -42 -62.5s-15.5 -49.333 -15.5 -76v-103c0 -27.333 5.16699 -52.833 15.5 -76.5s24.333 -44.334 42 -62.001
s38.334 -31.667 62.001 -42s49.167 -15.5 76.5 -15.5z" />
    <glyph glyph-name="R" unicode="R" horiz-adv-x="604" 
d="M438 0l-150.001 259.002h-126v-259h-95v661h298c25.333 0 48.833 -4.5 70.5 -13.5s40.334 -21.5 56.001 -37.5s28 -34.5 37 -55.5s13.5 -43.5 13.5 -67.5v-46c0 -23.333 -4.16699 -45.5 -12.5 -66.5s-19.333 -39.667 -33 -56s-29.5 -29.5 -47.5 -39.5
s-37 -15.333 -57 -16c0 -0.666992 -0.166992 -1.33398 -0.5 -2.00098s-0.5 -1.33398 -0.5 -2.00098l151 -259h-104zM349.999 340.002c14 0 27 2.66602 39 7.99902s22.333 12.333 31 21s15.5 18.834 20.5 30.501s7.5 24.167 7.5 37.5v45c0 27.333 -9.33301 50.333 -28 69
s-42 28 -70 28h-188v-239h188z" />
    <glyph glyph-name="S" unicode="S" horiz-adv-x="549" 
d="M283 664c46 0 86.334 -6.50391 121.001 -19.5039s66.334 -32.167 95.001 -57.5c-2 -2.66699 -5.5 -7.16699 -10.5 -13.5s-10.333 -13.333 -16 -21s-11 -14.667 -16 -21s-8.5 -10.833 -10.5 -13.5c-18.667 16.667 -40.5 31 -65.5 43s-55.5 18 -91.5 18
c-23.333 0 -43.833 -2.83301 -61.5 -8.5s-32.5 -13 -44.5 -22s-21 -19.167 -27 -30.5s-9 -23 -9 -35c0 -20.667 9 -37.5 27 -50.5s40.5 -24.5 67.5 -34.5s56.333 -20.167 88 -30.5s61 -23.166 88 -38.499s49.5 -34.666 67.5 -57.999s27 -53.333 27 -90
c0 -26 -4.66699 -50.333 -14 -73s-23.666 -42.334 -42.999 -59.001s-43.666 -29.667 -72.999 -39s-64 -14 -104 -14c-54 0 -100.833 7.83301 -140.5 23.5s-72.834 34.834 -99.501 57.501c2 2.66699 5.66699 7 11 13s11 12.333 17 19s11.667 13 17 19s9 10.333 11 13
c20 -14.667 44.667 -28.5 74 -41.5s67.666 -19.5 114.999 -19.5c22 0 41.167 2.66699 57.5 8s29.666 12.333 39.999 21s18 18.334 23 29.001s7.5 21.667 7.5 33c0 24.667 -8.83301 44.5 -26.5 59.5s-40 28.167 -67 39.5s-56 22 -87 32s-60 22.333 -87 37
s-49.333 32.834 -67 54.501s-26.5 49.834 -26.5 84.501c0 25.333 5 49.166 15 71.499s24.667 42 44 59s43.666 30.5 72.999 40.5s63 15 101 15z" />
    <glyph glyph-name="T" unicode="T" horiz-adv-x="503" 
d="M482 573h-184v-573h-94v573h-184v88h462v-88z" />
    <glyph glyph-name="U" unicode="U" horiz-adv-x="631" 
d="M569 661v-420.998c0 -34 -6.5 -66 -19.5 -96s-30.667 -56 -53 -78s-48.833 -39.5 -79.5 -52.5s-63.667 -19.5 -99 -19.5s-68.666 6.5 -99.999 19.5s-58.666 30.5 -81.999 52.5s-41.666 48 -54.999 78s-20 62 -20 96v421h95v-417c0 -21.333 4.16699 -41.5 12.5 -60.5
s19.666 -36 33.999 -51s31.333 -26.833 51 -35.5s40.5 -13 62.5 -13s42.667 4.16699 62 12.5s36.166 19.666 50.499 33.999s25.666 31.166 33.999 50.499s12.5 40.333 12.5 63v417h94z" />
    <glyph glyph-name="V" unicode="V" horiz-adv-x="594" 
d="M293 134h4l181 527h99l-232 -661h-96l-232 661h99z" />
    <glyph glyph-name="W" unicode="W" horiz-adv-x="760" 
d="M745 661l-147.001 -661h-105c-17.333 84 -34.333 167.667 -51 251s-33.667 167.333 -51 252h-6c-20 -84.667 -40.167 -168.667 -60.5 -252s-41.166 -167 -62.499 -251h-98l-146 661h97l105 -520h5c19.333 87.333 39 174 59 260s40 172.667 60 260h97l98 -520h6l105 520
h95z" />
    <glyph glyph-name="X" unicode="X" horiz-adv-x="589" 
d="M238 339l-208.001 322h110l151 -237h5l154 237h111l-211 -320l222 -341h-111l-167 257h-4c-27.333 -43.333 -54.666 -86.333 -81.999 -129l-82 -128h-110z" />
    <glyph glyph-name="Y" unicode="Y" horiz-adv-x="593" 
d="M578 661l-234 -382v-279h-95v279l-234 382h107l172 -285h4l173 285h107z" />
    <glyph glyph-name="Z" unicode="Z" horiz-adv-x="558" 
d="M506 661v-85l-328 -488l2 -3h326v-85h-449v85l327 487c-0.666992 0 -1 1.33301 -1 4h-326v85h449z" />
    <glyph glyph-name="bracketleft" unicode="[" horiz-adv-x="279" 
d="M141 601v-634h70v-60h-150v754h150v-60h-70z" />
    <glyph glyph-name="backslash" unicode="\" horiz-adv-x="325" 
d="M311 0h-72l-224 661h71z" />
    <glyph glyph-name="bracketright" unicode="]" horiz-adv-x="279" 
d="M61 601v60h150v-754h-150v60h69v634h-69z" />
    <glyph glyph-name="asciicircum" unicode="^" horiz-adv-x="532" 
d="M43 258l192 403h63l191 -403h-75l-146 307h-4l-146 -307h-75z" />
    <glyph glyph-name="underscore" unicode="_" horiz-adv-x="435" 
d="M435 -67h-435v67h435v-67z" />
    <glyph glyph-name="grave" unicode="`" horiz-adv-x="196" 
d="M185 558h-62l-100 103h98z" />
    <glyph glyph-name="a" unicode="a" horiz-adv-x="511" 
d="M366 232l-112 -0.00195312c-38.667 0 -67.834 -8 -87.501 -24s-29.5 -37 -29.5 -63c0 -9.33301 1.66699 -18.666 5 -27.999s8.83301 -17.666 16.5 -24.999s17.834 -13.333 30.501 -18s28.334 -7 47.001 -7c16 0 31.833 2.66699 47.5 8s29.667 13 42 23
s22.166 22 29.499 36s11 29.667 11 47v51zM68 430.998c19.333 18.667 44.832 34.5 76.499 47.5s69.167 19.5 112.5 19.5c28.667 0 55 -4 79 -12s44.667 -20.5 62 -37.5s31 -39 41 -66s15 -59.167 15 -96.5v-286h-88v59h-5c-17.333 -19.333 -37.833 -34.833 -61.5 -46.5
s-51.5 -17.5 -83.5 -17.5c-25.333 0 -48.333 3.66699 -69 11s-38.667 17.5 -54 30.5s-27.166 28.333 -35.499 46s-12.5 36.5 -12.5 56.5c0 54 19.833 94.5 59.5 121.5s93.5 40.5 161.5 40.5h100c0 15.333 -2.16699 30.333 -6.5 45s-11.166 27.667 -20.499 39
s-21.333 20.5 -36 27.5s-32.334 10.5 -53.001 10.5c-30 0 -56.833 -5 -80.5 -15s-42.167 -21 -55.5 -33z" />
    <glyph glyph-name="b" unicode="b" horiz-adv-x="532" 
d="M395 292c0 17.333 -2.99902 33.333 -8.99902 48s-14.333 27.5 -25 38.5s-23.334 19.667 -38.001 26s-30.334 9.5 -47.001 9.5c-39.333 0 -69.333 -11 -90 -33s-31 -51.333 -31 -88v-91c0 -19.333 3.16699 -36.666 9.5 -51.999s15 -28.333 26 -39
s23.833 -18.834 38.5 -24.501s30.334 -8.5 47.001 -8.5s32.167 3.16699 46.5 9.5s26.833 15 37.5 26s19.167 24.167 25.5 39.5s9.5 32 9.5 50v89zM155.001 705l0.000976562 -266.999h4c6.66699 10 15.167 18.667 25.5 26s21.5 13.666 33.5 18.999s24.333 9.33301 37 12
s25 4 37 4c24.667 0 48.667 -4.66699 72 -14s44 -22.5 62 -39.5s32.5 -37.5 43.5 -61.5s16.5 -50.333 16.5 -79v-117c0 -28 -5.33301 -53.833 -16 -77.5s-25 -44.167 -43 -61.5s-38.667 -30.833 -62 -40.5s-47.666 -14.5 -72.999 -14.5c-15.333 0 -30 2 -44 6
s-26.833 9 -38.5 15s-21.834 12.833 -30.501 20.5s-15.334 15.167 -20.001 22.5h-4v-58h-90v705h90z" />
    <glyph glyph-name="c" unicode="c" horiz-adv-x="474" 
d="M450 124c-13.333 -37.333 -37.167 -68.165 -71.5 -92.498s-75.833 -36.5 -124.5 -36.5c-29.333 0 -56.666 5 -81.999 15s-47.5 23.5 -66.5 40.5s-33.833 37 -44.5 60s-16 47.5 -16 73.5v118c0 32 6.16699 60.167 18.5 84.5s28.333 44.666 48 60.999s42 28.833 67 37.5
s50.167 13 75.5 13c27.333 0 52 -3.83301 74 -11.5s41 -17.5 57 -29.5s29.5 -25.833 40.5 -41.5s19.167 -31.5 24.5 -47.5l-86 -28c-4 8.66699 -9.16699 17.5 -15.5 26.5s-14.166 17 -23.499 24s-20 12.833 -32 17.5s-25.333 7 -40 7c-14 0 -28 -2.5 -42 -7.5
s-26.833 -12.167 -38.5 -21.5s-21 -21 -28 -35s-10.5 -30 -10.5 -48v-112c0 -15.333 3.16699 -29.833 9.5 -43.5s15 -25.834 26 -36.501s23.667 -19 38 -25s29.5 -9 45.5 -9c25.333 0 47.666 7 66.999 21s33.666 31.667 42.999 53z" />
    <glyph glyph-name="d" unicode="d" horiz-adv-x="532" 
d="M137 203c0 -17.333 3.16797 -33.332 9.50098 -47.999s14.833 -27.334 25.5 -38.001s23.167 -19.167 37.5 -25.5s29.833 -9.5 46.5 -9.5s32.334 2.66699 47.001 8s27.5 13 38.5 23s19.667 22.5 26 37.5s9.5 32.167 9.5 51.5v91c0 36.667 -10.5 66 -31.5 88
s-50.833 33 -89.5 33c-16.667 0 -32.334 -3.16699 -47.001 -9.5s-27.334 -15 -38.001 -26s-19 -23.833 -25 -38.5s-9 -30.667 -9 -48v-89zM466.001 705.001l-0.00195312 -705.001h-89v58h-4c-9.33301 -15.333 -26.166 -29.833 -50.499 -43.5s-52.166 -20.5 -83.499 -20.5
c-25.333 0 -49.666 4.83301 -72.999 14.5s-44 23.167 -62 40.5s-32.333 37.833 -43 61.5s-16 49.5 -16 77.5v117c0 28.667 5.5 55 16.5 79s25.667 44.5 44 61.5s39.166 30.167 62.499 39.5s47 14 71 14c12 0 24.5 -1.33301 37.5 -4s25.5 -6.66699 37.5 -12
s23.167 -11.666 33.5 -18.999s18.833 -16 25.5 -26h4v267h89z" />
    <glyph glyph-name="e" unicode="e" horiz-adv-x="505" 
d="M275 266c29.333 0 52.5 7.33301 69.5 22s25.5 35 25.5 61c0 21.333 -8.16699 39 -24.5 53s-39.5 21 -69.5 21c-18 0 -35.5 -3.33301 -52.5 -10s-32 -16.5 -45 -29.5s-23.5 -29.333 -31.5 -49s-12 -42.5 -12 -68.5h140zM136 196c0 -21.333 3.66895 -39.998 11.002 -55.998
s17.166 -29.333 29.499 -40s26.666 -18.667 42.999 -24s33.5 -8 51.5 -8c25.333 0 50.166 5.66699 74.499 17s42.833 26.333 55.5 45l61 -46c-22.667 -27.333 -49.334 -49.166 -80.001 -65.499s-68 -24.5 -112 -24.5c-37.333 0 -70.166 5.66699 -98.499 17
s-51.833 26.666 -70.5 45.999s-32.667 41.833 -42 67.5s-14 53.167 -14 82.5v66c0 30.667 5.66699 59.667 17 87s27 51.166 47 71.499s43.833 36.333 71.5 48s58.167 17.5 91.5 17.5c30.667 0 57.667 -4.33301 81 -13s42.833 -19.834 58.5 -33.501
s27.334 -29.167 35.001 -46.5s11.5 -35 11.5 -53c0 -20 -4 -39.333 -12 -58s-19.667 -35.167 -35 -49.5s-34 -25.833 -56 -34.5s-47 -13 -75 -13h-144z" />
    <glyph glyph-name="f" unicode="f" horiz-adv-x="296" 
d="M231 606c-24.667 0 -42.001 -6.83301 -52.001 -20.5s-15 -28.167 -15 -43.5v-50h98v-70h-98v-422h-90v422h-71v70h71v51c0 42 12.833 73.667 38.5 95s61.834 32 108.501 32h41v-64h-31z" />
    <glyph glyph-name="g" unicode="g" horiz-adv-x="528" 
d="M378 199l-0.000976562 90.001c0 42.667 -11.667 74.167 -35 94.5s-51.666 30.5 -84.999 30.5c-16.667 0 -32.334 -2.66699 -47.001 -8s-27.5 -13.333 -38.5 -24s-19.667 -23.5 -26 -38.5s-9.5 -32.5 -9.5 -52.5v-92c0 -17.333 3.16699 -33.333 9.5 -48
s15 -27.334 26 -38.001s23.833 -19.167 38.5 -25.5s30.334 -9.5 47.001 -9.5c38 0 67.5 11 88.5 33s31.5 51.333 31.5 88zM464.999 492.001l-0.00195312 -459c0 -26.667 -4.83301 -52.167 -14.5 -76.5s-23.5 -45.666 -41.5 -63.999s-39.667 -32.833 -65 -43.5
s-53.666 -16 -84.999 -16c-34.667 0 -67.5 5.33301 -98.5 16s-57.167 27.667 -78.5 51l49 56c5.33301 -5.33301 11.5 -10.666 18.5 -15.999s15.333 -10.333 25 -15s20.834 -8.33398 33.501 -11.001s27.667 -4 45 -4c18 0 34.5 3 49.5 9s28 14.167 39 24.5
s19.667 22.5 26 36.5s9.5 29 9.5 45v32h-4c-11.333 -16.667 -28 -30.334 -50 -41.001s-46 -16 -72 -16c-27.333 0 -53.333 4.33301 -78 13s-46.167 21.334 -64.5 38.001s-33 37 -44 61s-16.5 51 -16.5 81v112c0 31.333 5.33301 59 16 83s25 44.167 43 60.5
s38.833 28.666 62.5 36.999s48.5 12.5 74.5 12.5c31.333 0 58.333 -6.83301 81 -20.5s39 -29.167 49 -46.5h4v61h87z" />
    <glyph glyph-name="h" unicode="h" horiz-adv-x="540" 
d="M159 432c13.333 23.333 32.1689 39.833 56.502 49.5s50.5 14.5 78.5 14.5c26.667 0 51.5 -4 74.5 -12s42.833 -20 59.5 -36s29.667 -35.667 39 -59s14 -50.333 14 -81v-308h-89v303c0 15.333 -2.83301 29.833 -8.5 43.5s-13.5 25.667 -23.5 36s-21.833 18.5 -35.5 24.5
s-28.834 9 -45.501 9s-32.5 -2.33301 -47.5 -7s-28.333 -11.5 -40 -20.5s-20.834 -20.667 -27.501 -35s-10 -30.833 -10 -49.5v-304h-89v705h90v-273h4z" />
    <glyph glyph-name="i" unicode="i" horiz-adv-x="264" 
d="M151 135c0 -15.333 5 -29.168 15 -41.501s26.667 -18.5 50 -18.5h25v-75h-41c-22 0 -41.5 3.16699 -58.5 9.5s-31.5 15 -43.5 26s-21.167 23.833 -27.5 38.5s-9.5 30.334 -9.5 47.001v371h90v-357zM56 617.998c0 14 5 25.667 15 35s22.333 14 37 14
s27.167 -4.66699 37.5 -14s15.5 -21 15.5 -35s-5.16699 -25.667 -15.5 -35s-22.833 -14 -37.5 -14s-27 4.66699 -37 14s-15 21 -15 35z" />
    <glyph glyph-name="j" unicode="j" horiz-adv-x="239" 
d="M88 492l89.002 -0.000976562v-517c0 -19.333 -3.33301 -37.333 -10 -54s-16.334 -31.167 -29.001 -43.5s-27.667 -22.166 -45 -29.499s-37 -11 -59 -11h-24v74h11c12 0 22.333 2 31 6s15.667 9 21 15s9.16602 12.833 11.499 20.5s3.5 15.167 3.5 22.5v517z
M80.002 617.999c0 14 5.16699 25.667 15.5 35s22.5 14 36.5 14c14.667 0 27.167 -4.66699 37.5 -14s15.5 -21 15.5 -35s-5.16699 -25.667 -15.5 -35s-22.833 -14 -37.5 -14c-14 0 -26.167 4.66699 -36.5 14s-15.5 21 -15.5 35z" />
    <glyph glyph-name="k" unicode="k" horiz-adv-x="495" 
d="M246 245h-2c-0.666992 0 -1 0.333008 -1 1l-89 -93v-153h-89v705h89v-441l3 -1l207 229h113l-171 -185l179 -307h-102z" />
    <glyph glyph-name="l" unicode="l" horiz-adv-x="251" 
d="M143 138c0 -7.33301 1.16699 -14.665 3.5 -21.998s6 -14 11 -20s11.667 -11 20 -15s18.5 -6 30.5 -6h26v-75h-42c-33.333 0 -59.333 5.66699 -78 17s-32.5 26.166 -41.5 44.499s-14.333 39.166 -16 62.499s-2.5 47.333 -2.5 72v509h89v-567z" />
    <glyph glyph-name="m" unicode="m" horiz-adv-x="776" 
d="M716 331c0 -56 0.164062 -111.333 0.49707 -166s0.5 -109.667 0.5 -165h-90v320c0 12 -2.5 23.833 -7.5 35.5s-12 22 -21 31s-19.5 16.167 -31.5 21.5s-25 8 -39 8c-25.333 0 -47.166 -8 -65.499 -24s-27.5 -40 -27.5 -72v-320h-89v319
c0 29.333 -9.16699 52.666 -27.5 69.999s-41.166 26 -68.499 26c-26.667 0 -49.334 -7.66699 -68.001 -23s-28 -39.666 -28 -72.999v-319h-89v492h89v-55h4c8.66699 17.333 25.167 31.5 49.5 42.5s49.833 16.5 76.5 16.5c27.333 0 51.833 -4.83301 73.5 -14.5
s40.167 -25.167 55.5 -46.5h4c6.66699 10.667 15.334 20 26.001 28s21.834 14.5 33.501 19.5s23.5 8.83301 35.5 11.5s23.333 4 34 4c51.333 0 92.5 -15 123.5 -45s46.5 -70.667 46.5 -122z" />
    <glyph glyph-name="n" unicode="n" 
d="M159 432c13.333 23.333 32.1689 39.833 56.502 49.5s50.5 14.5 78.5 14.5c26.667 0 51.5 -4 74.5 -12s42.833 -20 59.5 -36s29.667 -35.667 39 -59s14 -50.333 14 -81v-308h-89v303c0 15.333 -2.83301 29.833 -8.5 43.5s-13.5 25.667 -23.5 36s-21.833 18.5 -35.5 24.5
s-28.834 9 -45.501 9s-32.5 -2.33301 -47.5 -7s-28.333 -11.5 -40 -20.5s-20.834 -20.667 -27.501 -35s-10 -30.833 -10 -49.5v-304h-89v492h90v-60h4z" />
    <glyph glyph-name="o" unicode="o" horiz-adv-x="512" 
d="M258 498c32.667 0 61.833 -5.33496 87.5 -16.002s47.5 -25.167 65.5 -43.5s31.833 -39.666 41.5 -63.999s14.5 -50.5 14.5 -78.5v-109c0 -24 -5 -47.333 -15 -70s-24 -43 -42 -61s-40 -32.5 -66 -43.5s-55 -16.5 -87 -16.5c-30.667 0 -58.834 5.33301 -84.501 16
s-48 24.834 -67 42.501s-33.833 38 -44.5 61s-16 47.167 -16 72.5v108c0 32.667 6 61.667 18 87s28 46.5 48 63.5s42.833 29.833 68.5 38.5s51.834 13 78.501 13zM374.999 297.998c0 16.667 -2.99805 32.166 -8.99805 46.499s-14.333 26.833 -25 37.5
s-23.167 18.834 -37.5 24.501s-29.833 8.5 -46.5 8.5c-18 0 -34.333 -3.16699 -49 -9.5s-27.334 -14.833 -38.001 -25.5s-18.834 -23 -24.501 -37s-8.5 -29 -8.5 -45v-114c0 -15.333 3.5 -29.5 10.5 -42.5s16 -24.333 27 -34s23.667 -17.167 38 -22.5s28.833 -8 43.5 -8
c17.333 0 33.333 3 48 9s27.167 14 37.5 24s18.5 21.5 24.5 34.5s9 26.167 9 39.5v114z" />
    <glyph glyph-name="p" unicode="p" horiz-adv-x="534" 
d="M398 290c0 16.667 -3.16797 32.332 -9.50098 46.999s-15 27.5 -26 38.5s-23.667 19.5 -38 25.5s-29.833 9 -46.5 9s-32.334 -2.66699 -47.001 -8s-27.5 -13 -38.5 -23s-19.667 -22.5 -26 -37.5s-9.5 -32.167 -9.5 -51.5v-91c0 -36.667 10.333 -66 31 -88
s50.667 -33 90 -33c16.667 0 32.334 3.16699 47.001 9.5s27.334 14.833 38.001 25.5s19.167 23.334 25.5 38.001s9.5 30.667 9.5 48v91zM66.999 -170.002l-0.00292969 662h90v-59h4c4.66699 8 11.334 15.833 20.001 23.5s18.834 14.667 30.501 21s24.5 11.333 38.5 15
s28.667 5.5 44 5.5c26 0 50.667 -4.83301 74 -14.5s43.833 -23.167 61.5 -40.5s31.834 -37.833 42.501 -61.5s16 -49.5 16 -77.5v-118c0 -29.333 -5.5 -55.666 -16.5 -78.999s-25.5 -43.5 -43.5 -60.5s-38.667 -30 -62 -39s-47.333 -13.5 -72 -13.5
c-12 0 -24.5 1.33301 -37.5 4s-25.5 6.5 -37.5 11.5s-23 11.167 -33 18.5s-18.333 15.666 -25 24.999h-4v-223h-90z" />
    <glyph glyph-name="q" unicode="q" horiz-adv-x="534" 
d="M137 199c0 -17.333 2.99902 -33.3311 8.99902 -47.998s14.333 -27.334 25 -38.001s23.334 -19.167 38.001 -25.5s30.334 -9.5 47.001 -9.5c38.667 0 68.5 11 89.5 33s31.5 51.333 31.5 88v91c0 19.333 -3.16699 36.5 -9.5 51.5s-15 27.5 -26 37.5
s-23.833 17.667 -38.5 23s-30.334 8 -47.001 8s-32.167 -3 -46.5 -9s-26.833 -14.5 -37.5 -25.5s-19.167 -23.833 -25.5 -38.5s-9.5 -30.334 -9.5 -47.001v-91zM376.999 -169.998l-0.000976562 223h-4c-6.66699 -9.33301 -15.167 -17.666 -25.5 -24.999
s-21.5 -13.5 -33.5 -18.5s-24.5 -8.83301 -37.5 -11.5s-25.5 -4 -37.5 -4c-24 0 -47.667 4.5 -71 13.5s-44.166 22 -62.499 39s-33 37.167 -44 60.5s-16.5 49.666 -16.5 78.999v118c0 28 5.33301 53.833 16 77.5s25 44.167 43 61.5s38.667 30.833 62 40.5
s47.666 14.5 72.999 14.5c15.333 0 30.166 -1.83301 44.499 -5.5s27.333 -8.66699 39 -15s21.834 -13.333 30.501 -21s15.334 -15.5 20.001 -23.5h4v59h89v-662h-89z" />
    <glyph glyph-name="r" unicode="r" horiz-adv-x="369" 
d="M282 498c20.667 0 36.833 -1.5 48.5 -4.5s23.5 -7.16699 35.5 -12.5l-25 -81c-8 4 -16.667 7.66699 -26 11s-23 5 -41 5c-15.333 0 -30.166 -2.66699 -44.499 -8s-27 -13 -38 -23s-19.667 -22.333 -26 -37s-9.5 -31 -9.5 -49v-299h-89v492h90v-58h4
c12.667 19.333 30.167 34.833 52.5 46.5s45.166 17.5 68.499 17.5z" />
    <glyph glyph-name="s" unicode="s" horiz-adv-x="485" 
d="M259 292c25.333 -3.33301 49.665 -8.5 72.998 -15.5s43.833 -16.5 61.5 -28.5s31.834 -26.667 42.501 -44s16 -37.333 16 -60c0 -18 -4 -35.833 -12 -53.5s-20.167 -33.667 -36.5 -48s-37.166 -26 -62.499 -35s-55.333 -13.5 -90 -13.5
c-39.333 0 -75.833 6.5 -109.5 19.5s-64.834 31.167 -93.501 54.5l47 56c18.667 -17.333 41 -31 67 -41s53 -15 81 -15c37.333 0 65.833 7.16699 85.5 21.5s29.5 31.5 29.5 51.5c0 19.333 -10.833 35.333 -32.5 48s-53.5 21.667 -95.5 27
c-24 2.66699 -47 6.83398 -69 12.501s-41.5 13.834 -58.5 24.501s-30.667 24.167 -41 40.5s-15.5 36.5 -15.5 60.5c0 21.333 4.66699 40.833 14 58.5s22.5 32.834 39.5 45.501s37.5 22.5 61.5 29.5s50.667 10.5 80 10.5c40 0 75.333 -5.5 106 -16.5
s57.334 -25.167 80.001 -42.5l-44 -62c-19.333 14.667 -41.5 26 -66.5 34s-50.167 12 -75.5 12c-28 0 -51.667 -5.83301 -71 -17.5s-29 -27.834 -29 -48.501c0 -12 4 -21.833 12 -29.5s18 -13.834 30 -18.501s24.833 -8.33398 38.5 -11.001s26.167 -4.66699 37.5 -6z" />
    <glyph glyph-name="t" unicode="t" horiz-adv-x="310" 
d="M276 75l-0.000976562 -74.999h-33c-36 0 -64.167 5.16699 -84.5 15.5s-35.666 24.166 -45.999 41.499s-16.833 37.5 -19.5 60.5s-4 47.167 -4 72.5v232h-70v70h70v127h88v-127h99v-70h-99v-282c0 -16.667 5.16699 -31.667 15.5 -45s27.5 -20 51.5 -20h32z" />
    <glyph glyph-name="u" unicode="u" 
d="M238 -4c-54 0 -97.833 15.999 -131.5 47.999s-50.5 78.667 -50.5 140v312h88v-306c0 -15.333 2.83301 -29.833 8.5 -43.5s13.5 -25.667 23.5 -36s22 -18.666 36 -24.999s29.333 -9.5 46 -9.5s32.5 2.33301 47.5 7s28.167 11.5 39.5 20.5s20.5 20.5 27.5 34.5
s10.5 30.667 10.5 50v308h89v-496h-90v60h-4c-12 -18.667 -30.333 -34 -55 -46s-53 -18 -85 -18z" />
    <glyph glyph-name="v" unicode="v" horiz-adv-x="478" 
d="M454 492l-170 -492h-90c-28.667 82.667 -57.667 164.667 -87 246s-58.333 163.333 -87 246h93l125 -388h4l124 388h88z" />
    <glyph glyph-name="w" unicode="w" horiz-adv-x="679" 
d="M659 492l-123 -492h-100l-95 356h-4l-92 -356h-101l-124 492h93l82 -379h4l95 379h94l94 -379h4l81 379h92z" />
    <glyph glyph-name="x" unicode="x" horiz-adv-x="455" 
d="M176 246l-154 246h101l106 -173h4l107 173h94l-156 -246l155 -246h-101l-107 173h-4l-108 -173h-94z" />
    <glyph glyph-name="y" unicode="y" horiz-adv-x="475" 
d="M455 492l-192.997 -539c-9.33301 -25.333 -19.5 -46 -30.5 -62s-23.5 -28.5 -37.5 -37.5s-29.833 -15 -47.5 -18s-37.834 -4.5 -60.501 -4.5v72c14.667 0 27.167 1 37.5 3s19.166 5.5 26.499 10.5s13.666 11.667 18.999 20s10.333 18.833 15 31.5l12 37l-176 487h97
l119 -377h4l121 377h94z" />
    <glyph glyph-name="z" unicode="z" horiz-adv-x="466" 
d="M432 424l-280 -344v-4h280v-76h-399v69l280 343v4h-268v76h387v-68z" />
    <glyph glyph-name="braceleft" unicode="{" horiz-adv-x="320" 
d="M180 356c0 -17.333 -3.33398 -32.167 -10.001 -44.5s-15 -20.833 -25 -25.5v-5c9.33301 -4 17.5 -12.333 24.5 -25s10.5 -27.667 10.5 -45v-212c0 -8.66699 3 -16.167 9 -22.5s13.667 -9.5 23 -9.5h32v-60h-72c-19.333 0 -36.166 7.33301 -50.499 22
s-21.5 32.667 -21.5 54v220c0 4.66699 -0.5 10 -1.5 16s-2.66699 11.833 -5 17.5s-5.5 10.5 -9.5 14.5s-9.33301 6 -16 6h-16v54h16c13.333 0 22 5.16699 26 15.5s6 23.166 6 38.499v221c0 20.667 7 38.334 21 53.001s31 22 51 22h72v-60h-32
c-9.33301 0 -17 -3.16699 -23 -9.5s-9 -13.833 -9 -22.5v-213z" />
    <glyph glyph-name="bar" unicode="|" horiz-adv-x="198" 
d="M67 731h70v-973h-70v973z" />
    <glyph glyph-name="braceright" unicode="}" horiz-adv-x="320" 
d="M131 569c0 8.66699 -3.00098 16.167 -9.00098 22.5s-13.667 9.5 -23 9.5h-32v60h65c18 0 32.167 -3.33301 42.5 -10s18.166 -15.334 23.499 -26.001s8.83301 -23 10.5 -37s2.5 -28 2.5 -42v-181c0 -14 2 -26.5 6 -37.5s13 -16.5 27 -16.5h15v-54h-15
c-6.66699 0 -12.167 -2 -16.5 -6s-7.66602 -8.83301 -9.99902 -14.5s-4 -11.5 -5 -17.5s-1.5 -11.333 -1.5 -16v-182c0 -37.333 -6 -65.666 -18 -84.999s-34.333 -29 -67 -29h-59v60h32c9.33301 0 17 3.16699 23 9.5s9 13.833 9 22.5v193c0 22.667 3 42 9 58
s16 26.667 30 32v4c-11.333 4.66699 -20.666 13 -27.999 25s-11 27 -11 45v213z" />
    <glyph glyph-name="asciitilde" unicode="~" horiz-adv-x="604" 
d="M391 197c-15.333 0 -30.8281 2.16406 -46.4951 6.49707s-31.5 9 -47.5 14s-31.833 9.66699 -47.5 14s-30.834 6.5 -45.501 6.5c-17.333 0 -34.5 -3.33301 -51.5 -10s-32.167 -14.667 -45.5 -24c-7.33301 10 -14.166 20.167 -20.499 30.5s-12.833 20.833 -19.5 31.5
c19.333 14.667 41.166 26.167 65.499 34.5s49.166 12.5 74.499 12.5c16.667 0 33 -2.16699 49 -6.5s31.667 -9.16602 47 -14.499s30.166 -10.166 44.499 -14.499s28.5 -6.5 42.5 -6.5c20 0 38.667 3 56 9s33.666 14.667 48.999 26l42 -61
c-22.667 -15.333 -46.334 -27.166 -71.001 -35.499s-49.667 -12.5 -75 -12.5z" />
    <glyph glyph-name="exclamdown" unicode="&#xa1;" horiz-adv-x="238" 
d="M158 402h-86v90h86v-90zM147 332l19 -500h-101l19 500h63z" />
    <glyph glyph-name="cent" unicode="&#xa2;" horiz-adv-x="463" 
d="M446 109c-14.667 -32 -37.3301 -57.999 -67.9971 -77.999s-65.667 -31.667 -105 -35v-68h-56v70c-23.333 4 -45 11.167 -65 21.5s-37.5 23.166 -52.5 38.499s-27 32.666 -36 51.999s-13.833 40 -14.5 62c-0.666992 7.33301 -1 14.833 -1 22.5v22.5v85
c0 28 4.66699 52.833 14 74.5s21.833 40.5 37.5 56.5s33.667 29 54 39s41.5 17 63.5 21v70h56v-68c44 -2.66699 80.167 -14.5 108.5 -35.5s49.166 -44.833 62.499 -71.5l-71 -38c-8 15.333 -21.667 30 -41 44s-44 21 -74 21c-13.333 0 -27.166 -2.33301 -41.499 -7
s-27.333 -11.834 -39 -21.501s-21.334 -21.667 -29.001 -36s-11.5 -31.166 -11.5 -50.499v-107c0 -16.667 3.33301 -32.167 10 -46.5s15.667 -26.666 27 -36.999s24.166 -18.5 38.499 -24.5s29.5 -9 45.5 -9c26.667 0 50.167 6.66699 70.5 20s35.166 30 44.499 50z" />
    <glyph glyph-name="sterling" unicode="&#xa3;" horiz-adv-x="510" 
d="M469 43c-13.333 -10.667 -26.0029 -19.0068 -38.0029 -25.0068s-23.333 -10.667 -34 -14s-21 -5.5 -31 -6.5s-20 -1.5 -30 -1.5c-9.33301 0 -22.5 1.16699 -39.5 3.5s-34.333 4.83301 -52 7.5s-34.334 5.16699 -50.001 7.5s-26.5 3.5 -32.5 3.5
c-23.333 0 -44.666 -3.33301 -63.999 -10s-33.666 -12.667 -42.999 -18v81c20 12.667 43 20.667 69 24c9.33301 14 16.833 29.167 22.5 45.5s8.5 38.5 8.5 66.5c0 11.333 -2 23.333 -6 36s-9 25 -15 37h-99v65h66c-12 20.667 -23.167 42 -33.5 64s-15.5 43 -15.5 63
c0 26.667 4.5 51.834 13.5 75.501s21.667 44.167 38 61.5s36 31.166 59 41.499s48.833 15.5 77.5 15.5c34.667 0 64.834 -5.33301 90.501 -16s47 -25 64 -43s29.667 -38.5 38 -61.5s12.5 -46.5 12.5 -70.5h-92c0 12.667 -2 25.334 -6 38.001s-10.333 24.334 -19 35.001
s-19.834 19.334 -33.501 26.001s-29.834 10 -48.501 10c-33.333 0 -58.666 -10.333 -75.999 -31s-26 -48 -26 -82c0 -10 2.5 -21.667 7.5 -35s10.667 -26.5 17 -39.5s12.333 -24.333 18 -34s9.16699 -15.5 10.5 -17.5h161v-65h-129
c4.66699 -11.333 8.33398 -23.166 11.001 -35.499s4 -24.833 4 -37.5c0 -19.333 -2.5 -37.666 -7.5 -54.999s-13.5 -34.666 -25.5 -51.999l1 -3c18.667 -1.33301 38.834 -5.16602 60.501 -11.499s41.5 -9.5 59.5 -9.5c11.333 0 24.5 2 39.5 6s30.833 13 47.5 27z" />
    <glyph glyph-name="currency" unicode="&#xa4;" horiz-adv-x="439" 
d="M65 249c0 30.667 8.33301 58.001 25 82.001l-67 67l45 45l65 -66c26 18.667 55.667 28 89 28c15.333 0 30.333 -2.33301 45 -7s28.334 -11.334 41.001 -20.001l63 65l45 -45l-64 -64c8 -12 14.333 -25.333 19 -40s7 -29.667 7 -45c0 -33.333 -9.33301 -63 -28 -89l66 -66
l-45 -44l-67 67c-24 -16.667 -51.333 -25 -82 -25c-16 0 -31.333 2.33301 -46 7s-28.334 10.667 -41.001 18l-67 -67l-45 44c12 11.333 23.5 22.5 34.5 33.5s22.167 22.5 33.5 34.5c-8 12.667 -14.333 26.167 -19 40.5s-7 29.833 -7 46.5zM117 249.001
c0 -14.667 2.66699 -28.334 8 -41.001s12.666 -23.667 21.999 -33s20.333 -16.666 33 -21.999s26 -8 40 -8s27.333 2.66699 40 8s23.667 12.666 33 21.999s16.666 20.333 21.999 33s8 26.334 8 41.001c0 14 -2.66699 27.167 -8 39.5s-12.666 23.166 -21.999 32.499
s-20.333 16.666 -33 21.999s-26 8 -40 8s-27.333 -2.66699 -40 -8s-23.667 -12.666 -33 -21.999s-16.666 -20.166 -21.999 -32.499s-8 -25.5 -8 -39.5z" />
    <glyph glyph-name="yen" unicode="&#xa5;" horiz-adv-x="602" 
d="M376 323h138v-66h-165v-71h165v-66h-165v-120h-95v120h-164v66h164v71h-164v66h138l-208 338h107l172 -287h5l172 287h107z" />
    <glyph glyph-name="brokenbar" unicode="&#xa6;" horiz-adv-x="207" 
d="M68 151h70v-391h-70v391zM68 727h70v-390h-70v390z" />
    <glyph glyph-name="section" unicode="&#xa7;" horiz-adv-x="540" 
d="M371 159c13.333 13.333 20.001 29.999 20.001 49.999c0 16 -7 31 -21 45s-36 25 -66 33l-40 11c-21.333 5.33301 -42 11.166 -62 17.499s-37 13.833 -51 22.5c-4.66699 -5.33301 -8.83398 -11.166 -12.501 -17.499s-5.5 -13.166 -5.5 -20.499c0 -8 0.833008 -16 2.5 -24
s5.16699 -15.833 10.5 -23.5s13.5 -15 24.5 -22s25.833 -13.5 44.5 -19.5c11.333 -4 24 -7.83301 38 -11.5s28 -7.66699 42 -12s27.667 -8.83301 41 -13.5s25 -9.66699 35 -15zM437.001 116.999c17.333 -16 30.1631 -33.5049 38.4961 -52.5049s12.5 -38.5 12.5 -58.5
c0 -23.333 -4.5 -45.833 -13.5 -67.5s-22.667 -40.667 -41 -57s-41.166 -29.5 -68.499 -39.5s-59.333 -15 -96 -15c-52 0 -96.667 8.5 -134 25.5s-66.666 37.833 -87.999 62.5l61 55c13.333 -14 33.666 -28.167 60.999 -42.5s61 -21.5 101 -21.5c22 0 41 3.16699 57 9.5
s29.167 14.333 39.5 24s18.166 20.334 23.499 32.001s8 22.5 8 32.5s-2.83301 20.333 -8.5 31s-14.5 21.167 -26.5 31.5s-27.5 19.833 -46.5 28.5s-42.167 16 -69.5 22c-26.667 6 -52.167 13.833 -76.5 23.5s-45.666 21.667 -63.999 36s-33 31 -44 50
s-16.5 41.167 -16.5 66.5c0 18 4.33301 35.167 13 51.5s18.667 29.5 30 39.5c-13.333 14 -23.5 30 -30.5 48s-10.5 38.667 -10.5 62c0 22.667 5 44.167 15 64.5s24.5 38.333 43.5 54s42.333 28.167 70 37.5s59.167 14 94.5 14c37.333 0 73 -7.83301 107 -23.5
s62.667 -35.167 86 -58.5l-58 -57c-17.333 16 -37.666 29.833 -60.999 41.5s-50.666 17.5 -81.999 17.5c-16.667 0 -32.667 -2.16699 -48 -6.5s-28.833 -10.666 -40.5 -18.999s-21 -18.166 -28 -29.499s-10.5 -24 -10.5 -38c0 -9.33301 1.5 -19.333 4.5 -30
s9.5 -21.167 19.5 -31.5s24.333 -20.166 43 -29.499s43.334 -17 74.001 -23c72 -14.667 123.5 -36.667 154.5 -66s46.5 -62.666 46.5 -99.999c0 -17.333 -4.5 -35 -13.5 -53s-18.167 -31.667 -27.5 -41z" />
    <glyph glyph-name="dieresis" unicode="&#xa8;" horiz-adv-x="244" 
d="M-11 612c0 12.667 4.33301 23.334 13 32.001s19 13 31 13s22.333 -4.33301 31 -13s13 -19.334 13 -32.001c0 -12 -4.33301 -22.333 -13 -31s-19 -13 -31 -13s-22.333 4.33301 -31 13s-13 19 -13 31zM138 612c0 12.667 4.33301 23.334 13 32.001s19.334 13 32.001 13
c12 0 22.333 -4.33301 31 -13s13 -19.334 13 -32.001c0 -12 -4.33301 -22.333 -13 -31s-19 -13 -31 -13c-12.667 0 -23.334 4.33301 -32.001 13s-13 19 -13 31z" />
    <glyph glyph-name="copyright" unicode="&#xa9;" horiz-adv-x="763" 
d="M398 452c-14.667 0 -28.1758 -2.66602 -40.5088 -7.99902s-23.166 -12.666 -32.499 -21.999s-16.666 -20.166 -21.999 -32.499s-8 -25.5 -8 -39.5v-42c0 -28.667 9.83301 -52.834 29.5 -72.501s44.167 -29.5 73.5 -29.5c19.333 0 36.833 4.5 52.5 13.5
s27.834 20.833 36.501 35.5l51 -38c-15.333 -22.667 -35.166 -40.667 -59.499 -54s-51.166 -20 -80.499 -20c-23.333 0 -45.166 4.16699 -65.499 12.5s-38 19.833 -53 34.5s-27 32.167 -36 52.5s-13.5 42.166 -13.5 65.499v42c0 23.333 4.33301 45 13 65
s20.5 37.167 35.5 51.5s32.833 25.666 53.5 33.999s42.667 12.5 66 12.5c28.667 0 55.334 -6.5 80.001 -19.5s45 -31.167 61 -54.5l-52 -37c-9.33301 15.333 -21.666 27.5 -36.999 36.5s-32.666 13.5 -51.999 13.5zM725.991 331.001c0 -46.667 -8.83301 -90.667 -26.5 -132
s-41.834 -77.333 -72.501 -108s-66.334 -54.834 -107.001 -72.501s-84.334 -26.5 -131.001 -26.5s-90.667 8.83301 -132 26.5s-77.333 41.834 -108 72.501s-54.834 66.667 -72.501 108s-26.5 85.333 -26.5 132s8.83301 90.334 26.5 131.001s41.834 76.334 72.501 107.001
s66.667 54.834 108 72.501s85.333 26.5 132 26.5s90.334 -8.83301 131.001 -26.5s76.334 -41.834 107.001 -72.501s54.834 -66.334 72.501 -107.001s26.5 -84.334 26.5 -131.001zM388.991 605.001c-38 0 -73.667 -7.16699 -107 -21.5s-62.333 -34 -87 -59
s-44.167 -54.167 -58.5 -87.5s-21.5 -68.666 -21.5 -105.999c0 -38 7.16699 -73.667 21.5 -107s33.833 -62.333 58.5 -87s53.667 -44.167 87 -58.5s69 -21.5 107 -21.5c37.333 0 72.666 7.16699 105.999 21.5s62.333 33.833 87 58.5s44.167 53.667 58.5 87s21.5 69 21.5 107
c0 37.333 -7.16699 72.666 -21.5 105.999s-33.833 62.5 -58.5 87.5s-53.667 44.667 -87 59s-68.666 21.5 -105.999 21.5z" />
    <glyph glyph-name="ordfeminine" unicode="&#xaa;" horiz-adv-x="356" 
d="M73 542c14 14 31.334 25.6631 52.001 34.9961s42.667 14 66 14c15.333 0 30.666 -2.16699 45.999 -6.5s29.333 -11 42 -20s23 -20.667 31 -35s12.667 -31.166 14 -50.499c0.666992 -6 1 -12 1 -18v-18v-176h-63v43h-4c-10 -14.667 -23.5 -26 -40.5 -34
s-37.5 -12 -61.5 -12c-31.333 0 -56.666 8.33301 -75.999 25s-29 39 -29 67c0 22 5.33301 40.167 16 54.5s25.5 25.833 44.5 34.5s41.167 14.834 66.5 18.501s52.666 5.83398 81.999 6.50098c0 23.333 -6.66699 40.333 -20 51s-31 16 -53 16
c-13.333 0 -26.5 -2.66699 -39.5 -8s-24.833 -12.666 -35.5 -21.999l-6 5c-4 3.33301 -8.5 7.16602 -13.5 11.499s-9.5 8.33301 -13.5 12s-6 5.83398 -6 6.50098zM118.001 357.996c0 -25.333 17.334 -37.999 52.001 -37.999c11.333 0 22.5 2 33.5 6s20.667 9.66699 29 17
s15.166 16 20.499 26s8 21 8 33v19c-42.667 0 -77.167 -4.33301 -103.5 -13s-39.5 -25.334 -39.5 -50.001z" />
    <glyph glyph-name="guillemotleft" unicode="&#xab;" horiz-adv-x="462" 
d="M419 437v-79l-128 -112l128 -113v-77l-218 190zM243 437v-79l-129 -112l129 -113v-77l-219 190z" />
    <glyph glyph-name="logicalnot" unicode="&#xac;" horiz-adv-x="458" 
d="M350 234h-309v77h389v-162h-80v85z" />
    <glyph glyph-name="registered" unicode="&#xae;" horiz-adv-x="763" 
d="M724 331c0 -46.667 -8.83301 -90.5 -26.5 -131.5s-41.834 -76.667 -72.501 -107s-66.334 -54.166 -107.001 -71.499s-84.334 -26 -131.001 -26c-46 0 -89.333 8.66699 -130 26s-76.167 41.166 -106.5 71.499s-54.333 66 -72 107s-26.5 84.833 -26.5 131.5
c0 46 8.83301 89.333 26.5 130s41.667 76.167 72 106.5s65.833 54.333 106.5 72s84 26.5 130 26.5c46.667 0 90.334 -8.83301 131.001 -26.5s76.334 -41.667 107.001 -72s54.834 -65.833 72.501 -106.5s26.5 -84 26.5 -130zM387 603c-37.333 0 -72.5 -7.16699 -105.5 -21.5
s-61.667 -33.833 -86 -58.5s-43.666 -53.5 -57.999 -86.5s-21.5 -68.167 -21.5 -105.5c0 -38 7.16699 -73.667 21.5 -107s33.666 -62.333 57.999 -87s53 -44.167 86 -58.5s68.167 -21.5 105.5 -21.5c38 0 73.667 7.16699 107 21.5s62.166 33.833 86.499 58.5
s43.666 53.667 57.999 87s21.5 69 21.5 107c0 37.333 -7.16699 72.5 -21.5 105.5s-33.666 61.833 -57.999 86.5s-53.166 44.167 -86.499 58.5s-69 21.5 -107 21.5zM325 346h102c13.333 0 24.833 4.33301 34.5 13s14.5 20 14.5 34v23c0 12.667 -4.66699 23.5 -14 32.5
s-21 13.5 -35 13.5h-102v-116zM469 152c-5.33301 9.33301 -11.5 20.002 -18.5 32.002s-14 24.333 -21 37s-14 25.167 -21 37.5s-13.167 23.166 -18.5 32.499h-65v-139h-64v365h182c28 0 51.167 -9.16699 69.5 -27.5s27.5 -40.833 27.5 -67.5v-36
c0 -11.333 -2.16699 -22.5 -6.5 -33.5s-10.166 -21 -17.499 -30s-15.833 -16.333 -25.5 -22s-19.834 -8.83398 -30.501 -9.50098l79 -139h-70z" />
    <glyph glyph-name="macron" unicode="&#xaf;" horiz-adv-x="359" 
d="M65 643h225v-57h-225v57z" />
    <glyph glyph-name="degree" unicode="&#xb0;" horiz-adv-x="375" 
d="M52 491c0 18 3.33301 34.833 10 50.5s16 29.5 28 41.5s26 21.333 42 28s33 10 51 10s34.833 -3.33301 50.5 -10s29.5 -16 41.5 -28s21.333 -25.833 28 -41.5s10 -32.5 10 -50.5s-3.33301 -35 -10 -51s-16 -30 -28 -42s-25.833 -21.333 -41.5 -28s-32.5 -10 -50.5 -10
s-35 3.33301 -51 10s-30 16 -42 28s-21.333 26 -28 42s-10 33 -10 51zM114 491c0 -19.333 6.66699 -35.666 20 -48.999s29.666 -20 48.999 -20s35.5 6.66699 48.5 20s19.5 29.666 19.5 48.999s-6.5 35.5 -19.5 48.5s-29.167 19.5 -48.5 19.5s-35.666 -6.5 -48.999 -19.5
s-20 -29.167 -20 -48.5z" />
    <glyph glyph-name="plusminus" unicode="&#xb1;" horiz-adv-x="472" 
d="M426 70h-374v68h374v-68zM204 418v147h79v-147h150v-72h-150v-148h-79v148h-152v72h152z" />
    <glyph glyph-name="twosuperior" unicode="&#xb2;" horiz-adv-x="315" 
d="M297 265l-251.001 0.00195312v54c0 28 9.33301 54.167 28 78.5s46 46.833 82 67.5c23.333 13.333 41.333 25.666 54 36.999s19 23.666 19 36.999v12c0 14 -5.5 26.667 -16.5 38s-24.833 17 -41.5 17c-17.333 0 -31.5 -5.83301 -42.5 -17.5s-16.5 -25.167 -16.5 -40.5v-8
h-66v12c0 13.333 3 26.833 9 40.5s14.5 26 25.5 37s24.167 19.833 39.5 26.5s32.333 10 51 10c18 0 34.833 -3 50.5 -9s29 -14.167 40 -24.5s19.667 -22.5 26 -36.5s9.5 -28.667 9.5 -44v-13c0 -22 -7 -42 -21 -60s-37 -36.667 -69 -56
c-25.333 -16 -46.666 -31.167 -63.999 -45.5s-26 -31.833 -26 -52.5h180v-60z" />
    <glyph glyph-name="threesuperior" unicode="&#xb3;" horiz-adv-x="334" 
d="M260 469c15.333 -6.66699 27.668 -18.1689 37.001 -34.502s14 -34.166 14 -53.499c0 -16 -3 -31 -9 -45s-14.5 -26.5 -25.5 -37.5s-24.5 -19.667 -40.5 -26s-34 -9.5 -54 -9.5c-39.333 0 -70.5 11.5 -93.5 34.5s-34.5 50.833 -34.5 83.5h66
c1.33301 -15.333 7.66602 -28.5 18.999 -39.5s25.666 -16.5 42.999 -16.5c21.333 0 36.833 6.16699 46.5 18.5s14.5 26.166 14.5 41.499c0 13.333 -5.66699 25.833 -17 37.5s-24.666 17.5 -39.999 17.5h-58v52h49c17.333 0 31.5 5.83301 42.5 17.5s16.5 25.167 16.5 40.5
c0 16 -5.5 29.667 -16.5 41s-24.833 17 -41.5 17s-30.5 -5.5 -41.5 -16.5s-16.5 -25.167 -16.5 -42.5h-63c0 16.667 3.16699 32.334 9.5 47.001s15 27.334 26 38.001s23.833 19 38.5 25s30.667 9 48 9c18 0 34.667 -3 50 -9s28.5 -14.167 39.5 -24.5s19.5 -22.333 25.5 -36
s9 -28.167 9 -43.5c0 -19.333 -3.83301 -36.5 -11.5 -51.5s-18.167 -26.5 -31.5 -34.5z" />
    <glyph glyph-name="acute" unicode="&#xb4;" horiz-adv-x="228" 
d="M86 661h98l-100 -108h-62z" />
    <glyph glyph-name="mu" unicode="&#xb5;" horiz-adv-x="547" 
d="M67 492h88.998v-305c0 -34 10.5 -61.333 31.5 -82s48.5 -31 82.5 -31c16.667 0 32.5 2.33301 47.5 7s28.167 11.5 39.5 20.5s20.5 20.5 27.5 34.5s10.5 30.333 10.5 49v307h89v-492h-90v59h-4c-11.333 -19.333 -28.166 -34.833 -50.499 -46.5s-47.833 -17.5 -76.5 -17.5
c-22 0 -43.667 5 -65 15s-36.666 23.333 -45.999 40h-4v-179h-81v621z" />
    <glyph glyph-name="mu" unicode="&#x3bc;" horiz-adv-x="547" 
d="M67 492h88.998v-305c0 -34 10.5 -61.333 31.5 -82s48.5 -31 82.5 -31c16.667 0 32.5 2.33301 47.5 7s28.167 11.5 39.5 20.5s20.5 20.5 27.5 34.5s10.5 30.333 10.5 49v307h89v-492h-90v59h-4c-11.333 -19.333 -28.166 -34.833 -50.499 -46.5s-47.833 -17.5 -76.5 -17.5
c-22 0 -43.667 5 -65 15s-36.666 23.333 -45.999 40h-4v-179h-81v621z" />
    <glyph glyph-name="paragraph" unicode="&#xb6;" horiz-adv-x="540" 
d="M251 291c-32 0 -60.834 4.66992 -86.501 14.0029s-47.167 22.166 -64.5 38.499s-30.666 35.666 -39.999 57.999s-14 46.166 -14 71.499c0 64 19.167 111.167 57.5 141.5s93.5 45.5 165.5 45.5h220v-829h-71v762h-96v-762h-71v460z" />
    <glyph glyph-name="periodcentered" unicode="&#xb7;" horiz-adv-x="261" 
d="M117 209c-17.333 0 -32.166 6 -44.499 18s-18.5 26.667 -18.5 44c0 18 6.16699 33.167 18.5 45.5s27.166 18.5 44.499 18.5s32.166 -6.16699 44.499 -18.5s18.5 -27.5 18.5 -45.5c0 -17.333 -6.16699 -32 -18.5 -44s-27.166 -18 -44.499 -18z" />
    <glyph glyph-name="cedilla" unicode="&#xb8;" horiz-adv-x="212" 
d="M81 -33c8.66699 2 17.8291 3.50098 27.4961 4.50098s18.834 1.5 27.501 1.5c21.333 0 36.5 -6.33301 45.5 -19s13.5 -27.334 13.5 -44.001c0 -9.33301 -2 -18.5 -6 -27.5s-9.83301 -17 -17.5 -24s-17.167 -12.833 -28.5 -17.5s-24.333 -7 -39 -7
c-13.333 0 -26.666 2.33301 -39.999 7s-24.666 9.66699 -33.999 15l20 43c10.667 -5.33301 19.834 -9 27.501 -11s16.5 -3 26.5 -3c7.33301 0 14.166 2.33301 20.499 7s9.5 10.667 9.5 18c0 8.66699 -3.33301 15 -10 19s-13.667 6 -21 6
c-5.33301 0 -11.666 -0.5 -18.999 -1.5s-13 -2.16699 -17 -3.5z" />
    <glyph glyph-name="onesuperior" unicode="&#xb9;" horiz-adv-x="251" 
d="M119 264v321l-50 -50l-38 39l92 87h64v-397h-68z" />
    <glyph glyph-name="ordmasculine" unicode="&#xba;" horiz-adv-x="364" 
d="M51 457c0 18.667 3.66699 36 11 52s17.5 30 30.5 42s27.833 21.333 44.5 28s34.667 10 54 10c44 0 78.5 -12.5 103.5 -37.5s37.5 -56.5 37.5 -94.5v-66c0 -19.333 -3.5 -37 -10.5 -53s-16.833 -29.667 -29.5 -41s-27.5 -20.333 -44.5 -27s-35.833 -10 -56.5 -10
c-20 0 -38.667 3.16699 -56 9.5s-32.333 15.333 -45 27s-22.5 25.5 -29.5 41.5s-10.5 33.667 -10.5 53c0 11.333 0.166992 22.333 0.5 33s0.5 21.667 0.5 33zM191 312c21.333 0 39 7.5 53 22.5s21 34.833 21 59.5v67c0 22 -6.66699 40.5 -20 55.5s-31.333 22.5 -54 22.5
c-21.333 0 -38.833 -7.5 -52.5 -22.5s-20.5 -33.5 -20.5 -55.5v-67c0 -8 1 -16.833 3 -26.5s5.83301 -18.5 11.5 -26.5s13.167 -14.833 22.5 -20.5s21.333 -8.5 36 -8.5z" />
    <glyph glyph-name="guillemotright" unicode="&#xbb;" horiz-adv-x="462" 
d="M264 246l-218 -190v77l129 113l-129 112v79zM440 246l-218 -190v77l129 113l-129 112v79z" />
    <glyph glyph-name="onequarter" unicode="&#xbc;" horiz-adv-x="695" 
d="M117 264v321l-50 -50l-37 39l91 87h64v-397h-68zM552 0v75h-174v57l146 264h97v-261h38v-60h-38v-75h-69zM77 -35l408 727h65l-409 -727h-64zM552 135v179l-99 -179h99z" />
    <glyph glyph-name="onehalf" unicode="&#xbd;" horiz-adv-x="702" 
d="M659 0l-250 0.000976562v54c0 28 9.33301 54 28 78s46 46.333 82 67c23.333 13.333 41.333 25.666 54 36.999s19 24 19 38v11c0 14.667 -5.66699 27.5 -17 38.5s-25.333 16.5 -42 16.5s-30.5 -5.66699 -41.5 -17s-16.5 -24.666 -16.5 -39.999v-8h-58
c-4.66699 0 -7.33398 0.333008 -8.00098 1v11c0 13.333 3 26.833 9 40.5s14.5 26 25.5 37s24.167 19.833 39.5 26.5s32.333 10 51 10c18 0 34.667 -3 50 -9s28.5 -14.333 39.5 -25s19.667 -22.834 26 -36.501s9.5 -28.5 9.5 -44.5v-12c0 -22 -7 -42 -21 -60
s-36.667 -37 -68 -57c-25.333 -13.333 -46.666 -28 -63.999 -44s-26.333 -33.667 -27 -53h180v-60zM82 -34.999c68 122 135.832 243.167 203.499 363.5s135.834 241.5 204.501 363.5h65l-409 -727h-64zM118.999 264.001v321l-50 -50l-38 39l92 87h64v-397h-68z" />
    <glyph glyph-name="threequarters" unicode="&#xbe;" horiz-adv-x="778" 
d="M572 692h66l-409 -727h-65zM257 469c15.333 -6.66699 27.5 -18.1689 36.5 -34.502s13.5 -34.166 13.5 -53.499c0 -16 -3 -31 -9 -45s-14.5 -26.5 -25.5 -37.5s-24.5 -19.667 -40.5 -26s-34 -9.5 -54 -9.5c-19.333 0 -36.833 3.16699 -52.5 9.5s-29.167 14.833 -40.5 25.5
s-20 23.167 -26 37.5s-9 29.5 -9 45.5h67c0.666992 -15.333 6.66699 -28.5 18 -39.5s25.666 -16.5 42.999 -16.5c21.333 0 36.833 6.16699 46.5 18.5s14.5 26.166 14.5 41.499c0 13.333 -5.5 25.833 -16.5 37.5s-24.167 17.5 -39.5 17.5h-59v52h49
c17.333 0 31.5 5.83301 42.5 17.5s16.5 25.167 16.5 40.5c0 16 -5.5 29.667 -16.5 41s-24.5 17 -40.5 17c-16.667 0 -30.5 -5.5 -41.5 -16.5s-16.5 -25.167 -16.5 -42.5h-64c0 16.667 3.16699 32.334 9.5 47.001s15 27.334 26 38.001s24 19 39 25s31.167 9 48.5 9
c18 0 34.667 -3 50 -9s28.333 -14.167 39 -24.5s19 -22.333 25 -36s9 -28.167 9 -43.5c0 -19.333 -3.66699 -36.5 -11 -51.5s-17.666 -26.5 -30.999 -34.5zM635 -0.00195312v75h-174v57l146 264h97v-261h38v-60h-38v-75h-69zM635 134.998v179l-99 -179h99z" />
    <glyph glyph-name="questiondown" unicode="&#xbf;" horiz-adv-x="448" 
d="M264 401h-87v91h87v-91zM219 -174c-26 0 -50.165 4.33203 -72.498 12.999s-42 20.667 -59 36s-30.5 33.333 -40.5 54s-15.667 43 -17 67c0 32.667 7.66699 62.5 23 89.5s32.166 51.667 50.499 74s35.166 43.333 50.499 63s23 38.834 23 57.501v60h87v-41
c0 -22.667 -3.5 -42.667 -10.5 -60s-15.833 -33.5 -26.5 -48.5s-22.167 -29.167 -34.5 -42.5s-23.833 -27.166 -34.5 -41.499s-19.5 -29.833 -26.5 -46.5s-10.5 -35.334 -10.5 -56.001c0 -13.333 2.66699 -25.833 8 -37.5s12.5 -21.834 21.5 -30.501s19.5 -15.5 31.5 -20.5
s24.667 -7.5 38 -7.5c28 0 51.5 9.5 70.5 28.5s28.5 42.5 28.5 70.5v10h91v-11c0 -24.667 -5 -48 -15 -70s-23.667 -41.167 -41 -57.5s-37.5 -29.166 -60.5 -38.499s-47.833 -14 -74.5 -14z" />
    <glyph glyph-name="Agrave" unicode="&#xc0;" horiz-adv-x="596" 
d="M347 661c38.667 -110.667 77.166 -220.832 115.499 -330.499s77.166 -219.834 116.499 -330.501h-99l-57 165h-251c-9.33301 -28 -18.666 -55.5 -27.999 -82.5s-18.666 -54.5 -27.999 -82.5h-99l232 661h98zM199.999 246.002h196l-97 284h-4zM378.999 730.002h-62
l-100 103h98z" />
    <glyph glyph-name="Aacute" unicode="&#xc1;" horiz-adv-x="596" 
d="M347 661c38.667 -110.667 77.166 -220.832 115.499 -330.499s77.166 -219.834 116.499 -330.501h-99l-57 165h-251c-9.33301 -28 -18.666 -55.5 -27.999 -82.5s-18.666 -54.5 -27.999 -82.5h-99l232 661h98zM199.999 246.002h196l-97 284h-4zM274.999 833.002h98
l-100 -108h-62z" />
    <glyph glyph-name="Acircumflex" unicode="&#xc2;" horiz-adv-x="596" 
d="M347 661c38.667 -110.667 77.166 -220.832 115.499 -330.499s77.166 -219.834 116.499 -330.501h-99l-57 165h-251c-9.33301 -28 -18.666 -55.5 -27.999 -82.5s-18.666 -54.5 -27.999 -82.5h-99l232 661h98zM199.999 246.002h196l-97 284h-4zM255.999 833.002h86l70 -107
h-66l-46 70h-4l-44 -70h-66z" />
    <glyph glyph-name="Atilde" unicode="&#xc3;" horiz-adv-x="596" 
d="M347 661c38.667 -110.667 77.166 -220.832 115.499 -330.499s77.166 -219.834 116.499 -330.501h-99l-57 165h-251c-9.33301 -28 -18.666 -55.5 -27.999 -82.5s-18.666 -54.5 -27.999 -82.5h-99l232 661h98zM199.999 246.002h196l-97 284h-4zM360.999 741.002
c-13.333 0 -26 1.83203 -38 5.49902s-23.5 7.66699 -34.5 12s-21.5 8.33301 -31.5 12s-19.667 5.5 -29 5.5s-16.666 -3.16699 -21.999 -9.5s-9.33301 -13.166 -12 -20.499h-57c2 27.333 11.667 49.5 29 66.5s41 25.5 71 25.5c11.333 0 22.5 -1.83301 33.5 -5.5
s21.833 -7.5 32.5 -11.5s21.167 -7.83301 31.5 -11.5s20.166 -5.5 29.499 -5.5c11.333 0 19.666 2.66699 24.999 8s9 12.666 11 21.999h59c-1.33301 -11.333 -4.5 -22.666 -9.5 -33.999s-11.667 -21.333 -20 -30s-18.166 -15.667 -29.499 -21s-24.333 -8 -39 -8z" />
    <glyph glyph-name="Adieresis" unicode="&#xc4;" horiz-adv-x="596" 
d="M347 661c38.667 -110.667 77.166 -220.832 115.499 -330.499s77.166 -219.834 116.499 -330.501h-99l-57 165h-251c-9.33301 -28 -18.666 -55.5 -27.999 -82.5s-18.666 -54.5 -27.999 -82.5h-99l232 661h98zM199.999 246.002h196l-97 284h-4zM176.999 784.002
c0 12.667 4.33301 23.334 13 32.001s19 13 31 13s22.333 -4.33301 31 -13s13 -19.334 13 -32.001c0 -12 -4.33301 -22.333 -13 -31s-19 -13 -31 -13s-22.333 4.33301 -31 13s-13 19 -13 31zM325.999 784.002c0 12.667 4.33301 23.334 13 32.001s19.334 13 32.001 13
c12 0 22.333 -4.33301 31 -13s13 -19.334 13 -32.001c0 -12 -4.33301 -22.333 -13 -31s-19 -13 -31 -13c-12.667 0 -23.334 4.33301 -32.001 13s-13 19 -13 31z" />
    <glyph glyph-name="Aring" unicode="&#xc5;" horiz-adv-x="596" 
d="M347 661c38.667 -110.667 77.166 -220.832 115.499 -330.499s77.166 -219.834 116.499 -330.501h-99l-57 165h-251c-9.33301 -28 -18.666 -55.5 -27.999 -82.5s-18.666 -54.5 -27.999 -82.5h-99l232 661h98zM199.999 246.002h196l-97 284h-4zM297.999 858.002
c19.333 0 36 -6.83301 50 -20.5s21 -30.167 21 -49.5s-7 -36 -21 -50s-30.667 -21 -50 -21s-36 7 -50 21s-21 30.667 -21 50s7 35.833 21 49.5s30.667 20.5 50 20.5zM297.999 760.002c8 0 14.833 2.83301 20.5 8.5s8.5 12.167 8.5 19.5c0 8 -2.83301 14.833 -8.5 20.5
s-12.5 8.5 -20.5 8.5s-14.833 -2.83301 -20.5 -8.5s-8.5 -12.5 -8.5 -20.5c0 -7.33301 2.83301 -13.833 8.5 -19.5s12.5 -8.5 20.5 -8.5z" />
    <glyph glyph-name="AE" unicode="&#xc6;" horiz-adv-x="907" 
d="M437 196h-233l-93 -196h-95l309 661h501v-81h-361l37 -209h291v-80h-277l38 -212h300v-79h-382zM425 271c-9.33301 48 -18 95.833 -26 143.5s-16.333 95.5 -25 143.5h-4l-130 -287h185z" />
    <glyph glyph-name="Ccedilla" unicode="&#xc7;" horiz-adv-x="622" 
d="M592 137c-25.333 -44 -60.1689 -79.001 -104.502 -105.001s-94.166 -39 -149.499 -39c-40 0 -77.667 7.16699 -113 21.5s-66.166 34.333 -92.499 60s-47.166 55.834 -62.499 90.501s-23 72.334 -23 113.001v105c0 40.667 7.66699 78.334 23 113.001
s36.166 64.667 62.499 90s57.166 45.333 92.499 60s73 22 113 22c54.667 0 104.334 -13 149.001 -39s79.667 -61 105 -105l-84 -45c-17.333 30 -40.833 54 -70.5 72s-62.834 27 -99.501 27c-27.333 0 -52.833 -5.16699 -76.5 -15.5s-44.167 -24.333 -61.5 -42
s-31.166 -38.334 -41.499 -62.001s-15.5 -49.167 -15.5 -76.5v-103c0 -27.333 5.16699 -52.833 15.5 -76.5s24.166 -44.334 41.499 -62.001s37.833 -31.667 61.5 -42s49.167 -15.5 76.5 -15.5c36.667 0 69.834 9.16699 99.501 27.5s53.167 42.5 70.5 72.5zM278.997 -33.001
c8.66699 2 17.8291 3.50098 27.4961 4.50098s18.834 1.5 27.501 1.5c21.333 0 36.5 -6.33301 45.5 -19s13.5 -27.334 13.5 -44.001c0 -9.33301 -2 -18.5 -6 -27.5s-9.83301 -17 -17.5 -24s-17.167 -12.833 -28.5 -17.5s-24.333 -7 -39 -7
c-13.333 0 -26.666 2.33301 -39.999 7s-24.666 9.66699 -33.999 15l20 43c10.667 -5.33301 19.834 -9 27.501 -11s16.5 -3 26.5 -3c7.33301 0 14.166 2.33301 20.499 7s9.5 10.667 9.5 18c0 8.66699 -3.33301 15 -10 19s-13.667 6 -21 6
c-5.33301 0 -11.666 -0.5 -18.999 -1.5s-13 -2.16699 -17 -3.5z" />
    <glyph glyph-name="Egrave" unicode="&#xc8;" horiz-adv-x="534" 
d="M162 579v-208h298v-83h-298v-207h327v-81h-422v661h422v-82h-327zM345 730h-62l-100 103h98z" />
    <glyph glyph-name="Eacute" unicode="&#xc9;" horiz-adv-x="534" 
d="M162 579v-208h298v-83h-298v-207h327v-81h-422v661h422v-82h-327zM267 833h98l-100 -108h-62z" />
    <glyph glyph-name="Ecircumflex" unicode="&#xca;" horiz-adv-x="534" 
d="M162 579v-208h298v-83h-298v-207h327v-81h-422v661h422v-82h-327zM246 833h86l70 -107h-66l-46 70h-4l-44 -70h-66z" />
    <glyph glyph-name="Edieresis" unicode="&#xcb;" horiz-adv-x="534" 
d="M162 579v-208h298v-83h-298v-207h327v-81h-422v661h422v-82h-327zM167 784c0 12.667 4.33301 23.334 13 32.001s19 13 31 13s22.333 -4.33301 31 -13s13 -19.334 13 -32.001c0 -12 -4.33301 -22.333 -13 -31s-19 -13 -31 -13s-22.333 4.33301 -31 13s-13 19 -13 31z
M316 784c0 12.667 4.33301 23.334 13 32.001s19.334 13 32.001 13c12 0 22.333 -4.33301 31 -13s13 -19.334 13 -32.001c0 -12 -4.33301 -22.333 -13 -31s-19 -13 -31 -13c-12.667 0 -23.334 4.33301 -32.001 13s-13 19 -13 31z" />
    <glyph glyph-name="Igrave" unicode="&#xcc;" horiz-adv-x="230" 
d="M67 661h95v-661h-95v661zM196 730h-62l-100 103h98z" />
    <glyph glyph-name="Iacute" unicode="&#xcd;" horiz-adv-x="230" 
d="M67 661h95v-661h-95v661zM98 833h98l-100 -108h-62z" />
    <glyph glyph-name="Icircumflex" unicode="&#xce;" horiz-adv-x="230" 
d="M67 661h95v-661h-95v661zM73 833h86l70 -107h-66l-46 70h-4l-44 -70h-66z" />
    <glyph glyph-name="Idieresis" unicode="&#xcf;" horiz-adv-x="230" 
d="M67 661h95v-661h-95v661zM-4 784c0 12.667 4.33301 23.334 13 32.001s19 13 31 13s22.333 -4.33301 31 -13s13 -19.334 13 -32.001c0 -12 -4.33301 -22.333 -13 -31s-19 -13 -31 -13s-22.333 4.33301 -31 13s-13 19 -13 31zM145 784c0 12.667 4.33301 23.334 13 32.001
s19.334 13 32.001 13c12 0 22.333 -4.33301 31 -13s13 -19.334 13 -32.001c0 -12 -4.33301 -22.333 -13 -31s-19 -13 -31 -13c-12.667 0 -23.334 4.33301 -32.001 13s-13 19 -13 31z" />
    <glyph glyph-name="Eth" unicode="&#xd0;" horiz-adv-x="699" 
d="M368 661c39.333 0 76.333 -7.49805 111 -22.498s64.834 -35.333 90.501 -61s46 -55.834 61 -90.501s22.5 -71.667 22.5 -111v-91c0 -39.333 -7.5 -76.333 -22.5 -111s-35.333 -64.834 -61 -90.501s-55.834 -46 -90.501 -61s-71.667 -22.5 -111 -22.5h-248v293h-55v75h55
v293h248zM280 293.002l-65 -0.000976562v-206h148c26.667 0 52 5.16699 76 15.5s44.833 24.333 62.5 42s31.667 38.334 42 62.001s15.5 49.167 15.5 76.5v95c0 26.667 -5.16699 52 -15.5 76s-24.333 44.833 -42 62.5s-38.5 31.667 -62.5 42s-49.333 15.5 -76 15.5h-148v-206
h65v-75z" />
    <glyph glyph-name="Ntilde" unicode="&#xd1;" horiz-adv-x="670" 
d="M602 661v-661h-96l-340 512h-4v-512h-95v661h106l331 -510h4v510h94zM398 741c-13.333 0 -26 1.83203 -38 5.49902s-23.5 7.66699 -34.5 12s-21.5 8.33301 -31.5 12s-19.667 5.5 -29 5.5s-16.666 -3.16699 -21.999 -9.5s-9.33301 -13.166 -12 -20.499h-57
c2 27.333 11.667 49.5 29 66.5s41 25.5 71 25.5c11.333 0 22.5 -1.83301 33.5 -5.5s21.833 -7.5 32.5 -11.5s21.167 -7.83301 31.5 -11.5s20.166 -5.5 29.499 -5.5c11.333 0 19.666 2.66699 24.999 8s9 12.666 11 21.999h59c-1.33301 -11.333 -4.5 -22.666 -9.5 -33.999
s-11.667 -21.333 -20 -30s-18.166 -15.667 -29.499 -21s-24.333 -8 -39 -8z" />
    <glyph glyph-name="Ograve" unicode="&#xd2;" horiz-adv-x="676" 
d="M629 278c0 -40.667 -7.66699 -78.334 -23 -113.001s-36.166 -64.834 -62.499 -90.501s-57.166 -45.667 -92.499 -60s-73 -21.5 -113 -21.5s-77.667 7.16699 -113 21.5s-66.166 34.333 -92.499 60s-47.166 55.834 -62.499 90.501s-23 72.334 -23 113.001v105
c0 40.667 7.66699 78.334 23 113.001s36.166 64.667 62.499 90s57.166 45.333 92.499 60s73 22 113 22s77.667 -7.33301 113 -22s66.166 -34.667 92.499 -60s47.166 -55.333 62.499 -90s23 -72.334 23 -113.001v-105zM533 382c0 27.333 -5.16699 52.833 -15.5 76.5
s-24.166 44.334 -41.499 62.001s-38 31.667 -62 42s-49.333 15.5 -76 15.5c-27.333 0 -52.833 -5.16699 -76.5 -15.5s-44.167 -24.333 -61.5 -42s-31.166 -38.334 -41.499 -62.001s-15.5 -49.167 -15.5 -76.5v-103c0 -27.333 5.16699 -52.833 15.5 -76.5
s24.166 -44.167 41.499 -61.5s37.833 -31.166 61.5 -41.499s49.167 -15.5 76.5 -15.5c26.667 0 52 5.16699 76 15.5s44.667 24.166 62 41.499s31.166 37.833 41.499 61.5s15.5 49.167 15.5 76.5v103zM419 730h-62l-100 103h98z" />
    <glyph glyph-name="Oacute" unicode="&#xd3;" horiz-adv-x="676" 
d="M629 278c0 -40.667 -7.66699 -78.334 -23 -113.001s-36.166 -64.834 -62.499 -90.501s-57.166 -45.667 -92.499 -60s-73 -21.5 -113 -21.5s-77.667 7.16699 -113 21.5s-66.166 34.333 -92.499 60s-47.166 55.834 -62.499 90.501s-23 72.334 -23 113.001v105
c0 40.667 7.66699 78.334 23 113.001s36.166 64.667 62.499 90s57.166 45.333 92.499 60s73 22 113 22s77.667 -7.33301 113 -22s66.166 -34.667 92.499 -60s47.166 -55.333 62.499 -90s23 -72.334 23 -113.001v-105zM533 382c0 27.333 -5.16699 52.833 -15.5 76.5
s-24.166 44.334 -41.499 62.001s-38 31.667 -62 42s-49.333 15.5 -76 15.5c-27.333 0 -52.833 -5.16699 -76.5 -15.5s-44.167 -24.333 -61.5 -42s-31.166 -38.334 -41.499 -62.001s-15.5 -49.167 -15.5 -76.5v-103c0 -27.333 5.16699 -52.833 15.5 -76.5
s24.166 -44.167 41.499 -61.5s37.833 -31.166 61.5 -41.499s49.167 -15.5 76.5 -15.5c26.667 0 52 5.16699 76 15.5s44.667 24.166 62 41.499s31.166 37.833 41.499 61.5s15.5 49.167 15.5 76.5v103zM321 833h98l-100 -108h-62z" />
    <glyph glyph-name="Ocircumflex" unicode="&#xd4;" horiz-adv-x="676" 
d="M629 278c0 -40.667 -7.66699 -78.334 -23 -113.001s-36.166 -64.834 -62.499 -90.501s-57.166 -45.667 -92.499 -60s-73 -21.5 -113 -21.5s-77.667 7.16699 -113 21.5s-66.166 34.333 -92.499 60s-47.166 55.834 -62.499 90.501s-23 72.334 -23 113.001v105
c0 40.667 7.66699 78.334 23 113.001s36.166 64.667 62.499 90s57.166 45.333 92.499 60s73 22 113 22s77.667 -7.33301 113 -22s66.166 -34.667 92.499 -60s47.166 -55.333 62.499 -90s23 -72.334 23 -113.001v-105zM533 382c0 27.333 -5.16699 52.833 -15.5 76.5
s-24.166 44.334 -41.499 62.001s-38 31.667 -62 42s-49.333 15.5 -76 15.5c-27.333 0 -52.833 -5.16699 -76.5 -15.5s-44.167 -24.333 -61.5 -42s-31.166 -38.334 -41.499 -62.001s-15.5 -49.167 -15.5 -76.5v-103c0 -27.333 5.16699 -52.833 15.5 -76.5
s24.166 -44.167 41.499 -61.5s37.833 -31.166 61.5 -41.499s49.167 -15.5 76.5 -15.5c26.667 0 52 5.16699 76 15.5s44.667 24.166 62 41.499s31.166 37.833 41.499 61.5s15.5 49.167 15.5 76.5v103zM295 833h86l70 -107h-66l-46 70h-4l-44 -70h-66z" />
    <glyph glyph-name="Otilde" unicode="&#xd5;" horiz-adv-x="676" 
d="M629 278c0 -40.667 -7.66699 -78.334 -23 -113.001s-36.166 -64.834 -62.499 -90.501s-57.166 -45.667 -92.499 -60s-73 -21.5 -113 -21.5s-77.667 7.16699 -113 21.5s-66.166 34.333 -92.499 60s-47.166 55.834 -62.499 90.501s-23 72.334 -23 113.001v105
c0 40.667 7.66699 78.334 23 113.001s36.166 64.667 62.499 90s57.166 45.333 92.499 60s73 22 113 22s77.667 -7.33301 113 -22s66.166 -34.667 92.499 -60s47.166 -55.333 62.499 -90s23 -72.334 23 -113.001v-105zM533 382c0 27.333 -5.16699 52.833 -15.5 76.5
s-24.166 44.334 -41.499 62.001s-38 31.667 -62 42s-49.333 15.5 -76 15.5c-27.333 0 -52.833 -5.16699 -76.5 -15.5s-44.167 -24.333 -61.5 -42s-31.166 -38.334 -41.499 -62.001s-15.5 -49.167 -15.5 -76.5v-103c0 -27.333 5.16699 -52.833 15.5 -76.5
s24.166 -44.167 41.499 -61.5s37.833 -31.166 61.5 -41.499s49.167 -15.5 76.5 -15.5c26.667 0 52 5.16699 76 15.5s44.667 24.166 62 41.499s31.166 37.833 41.499 61.5s15.5 49.167 15.5 76.5v103zM401 741c-13.333 0 -26 1.83203 -38 5.49902s-23.5 7.66699 -34.5 12
s-21.5 8.33301 -31.5 12s-19.667 5.5 -29 5.5s-16.666 -3.16699 -21.999 -9.5s-9.33301 -13.166 -12 -20.499h-57c2 27.333 11.667 49.5 29 66.5s41 25.5 71 25.5c11.333 0 22.5 -1.83301 33.5 -5.5s21.833 -7.5 32.5 -11.5s21.167 -7.83301 31.5 -11.5
s20.166 -5.5 29.499 -5.5c11.333 0 19.666 2.66699 24.999 8s9 12.666 11 21.999h59c-1.33301 -11.333 -4.5 -22.666 -9.5 -33.999s-11.667 -21.333 -20 -30s-18.166 -15.667 -29.499 -21s-24.333 -8 -39 -8z" />
    <glyph glyph-name="Odieresis" unicode="&#xd6;" horiz-adv-x="676" 
d="M629 278c0 -40.667 -7.66699 -78.334 -23 -113.001s-36.166 -64.834 -62.499 -90.501s-57.166 -45.667 -92.499 -60s-73 -21.5 -113 -21.5s-77.667 7.16699 -113 21.5s-66.166 34.333 -92.499 60s-47.166 55.834 -62.499 90.501s-23 72.334 -23 113.001v105
c0 40.667 7.66699 78.334 23 113.001s36.166 64.667 62.499 90s57.166 45.333 92.499 60s73 22 113 22s77.667 -7.33301 113 -22s66.166 -34.667 92.499 -60s47.166 -55.333 62.499 -90s23 -72.334 23 -113.001v-105zM533 382c0 27.333 -5.16699 52.833 -15.5 76.5
s-24.166 44.334 -41.499 62.001s-38 31.667 -62 42s-49.333 15.5 -76 15.5c-27.333 0 -52.833 -5.16699 -76.5 -15.5s-44.167 -24.333 -61.5 -42s-31.166 -38.334 -41.499 -62.001s-15.5 -49.167 -15.5 -76.5v-103c0 -27.333 5.16699 -52.833 15.5 -76.5
s24.166 -44.167 41.499 -61.5s37.833 -31.166 61.5 -41.499s49.167 -15.5 76.5 -15.5c26.667 0 52 5.16699 76 15.5s44.667 24.166 62 41.499s31.166 37.833 41.499 61.5s15.5 49.167 15.5 76.5v103zM219 784c0 12.667 4.33301 23.334 13 32.001s19 13 31 13
s22.333 -4.33301 31 -13s13 -19.334 13 -32.001c0 -12 -4.33301 -22.333 -13 -31s-19 -13 -31 -13s-22.333 4.33301 -31 13s-13 19 -13 31zM368 784c0 12.667 4.33301 23.334 13 32.001s19.334 13 32.001 13c12 0 22.333 -4.33301 31 -13s13 -19.334 13 -32.001
c0 -12 -4.33301 -22.333 -13 -31s-19 -13 -31 -13c-12.667 0 -23.334 4.33301 -32.001 13s-13 19 -13 31z" />
    <glyph glyph-name="multiply" unicode="&#xd7;" horiz-adv-x="486" 
d="M439 393l-148.002 -147l148 -149l-51 -51c-25.333 25.333 -50.166 50 -74.499 74s-48.833 48.667 -73.5 74l-149 -148l-51 51l148 149l-148 148c8.66699 9.33301 17.334 18 26.001 26s17 16.333 25 25l149 -148l148 148z" />
    <glyph glyph-name="Oslash" unicode="&#xd8;" horiz-adv-x="684" 
d="M542 591c28.667 -26 51.1689 -56.832 67.502 -92.499s24.5 -74.834 24.5 -117.501v-101c0 -40.667 -7.66699 -78.334 -23 -113.001s-36.166 -64.834 -62.499 -90.501s-57.333 -45.667 -93 -60s-73.834 -21.5 -114.501 -21.5c-27.333 0 -53.5 3.5 -78.5 10.5
s-48.5 17.167 -70.5 30.5l-50 -80l-52 33l51 81c-28.667 26 -51.167 57 -67.5 93s-24.5 75 -24.5 117v101c0 40.667 7.66699 78.334 23 113.001s36.166 64.834 62.499 90.501s57.166 45.667 92.499 60s73.333 21.5 114 21.5c54.667 0 104.667 -13.333 150 -40l45 71l52 -33z
M144.002 280.001c0 -49.333 15.333 -91.333 46 -126h4l249 395c-14.667 9.33301 -30.667 16.666 -48 21.999s-35.333 8 -54 8c-27.333 0 -53 -5.16699 -77 -15.5s-44.833 -24.5 -62.5 -42.5s-31.667 -39.167 -42 -63.5s-15.5 -50.166 -15.5 -77.499v-100zM539.002 380.001
c0 49.333 -15.334 91.333 -46.001 126h-4l-249 -395c15.333 -9.33301 31.333 -16.5 48 -21.5s34.334 -7.5 53.001 -7.5c27.333 0 53 5.16699 77 15.5s45 24.5 63 42.5s32.167 39 42.5 63s15.5 49.667 15.5 77v100z" />
    <glyph glyph-name="Ugrave" unicode="&#xd9;" horiz-adv-x="631" 
d="M569 661v-420.998c0 -34 -6.5 -66 -19.5 -96s-30.667 -56 -53 -78s-48.833 -39.5 -79.5 -52.5s-63.667 -19.5 -99 -19.5s-68.666 6.5 -99.999 19.5s-58.666 30.5 -81.999 52.5s-41.666 48 -54.999 78s-20 62 -20 96v421h95v-417c0 -21.333 4.16699 -41.5 12.5 -60.5
s19.666 -36 33.999 -51s31.333 -26.833 51 -35.5s40.5 -13 62.5 -13s42.667 4.16699 62 12.5s36.166 19.666 50.499 33.999s25.666 31.166 33.999 50.499s12.5 40.333 12.5 63v417h94zM396 730.002h-62l-100 103h98z" />
    <glyph glyph-name="Uacute" unicode="&#xda;" horiz-adv-x="631" 
d="M569 661v-420.998c0 -34 -6.5 -66 -19.5 -96s-30.667 -56 -53 -78s-48.833 -39.5 -79.5 -52.5s-63.667 -19.5 -99 -19.5s-68.666 6.5 -99.999 19.5s-58.666 30.5 -81.999 52.5s-41.666 48 -54.999 78s-20 62 -20 96v421h95v-417c0 -21.333 4.16699 -41.5 12.5 -60.5
s19.666 -36 33.999 -51s31.333 -26.833 51 -35.5s40.5 -13 62.5 -13s42.667 4.16699 62 12.5s36.166 19.666 50.499 33.999s25.666 31.166 33.999 50.499s12.5 40.333 12.5 63v417h94zM298 833.002h98l-100 -108h-62z" />
    <glyph glyph-name="Ucircumflex" unicode="&#xdb;" horiz-adv-x="631" 
d="M569 661v-420.998c0 -34 -6.5 -66 -19.5 -96s-30.667 -56 -53 -78s-48.833 -39.5 -79.5 -52.5s-63.667 -19.5 -99 -19.5s-68.666 6.5 -99.999 19.5s-58.666 30.5 -81.999 52.5s-41.666 48 -54.999 78s-20 62 -20 96v421h95v-417c0 -21.333 4.16699 -41.5 12.5 -60.5
s19.666 -36 33.999 -51s31.333 -26.833 51 -35.5s40.5 -13 62.5 -13s42.667 4.16699 62 12.5s36.166 19.666 50.499 33.999s25.666 31.166 33.999 50.499s12.5 40.333 12.5 63v417h94zM272 833.002h86l70 -107h-66l-46 70h-4l-44 -70h-66z" />
    <glyph glyph-name="Udieresis" unicode="&#xdc;" horiz-adv-x="631" 
d="M569 661v-420.998c0 -34 -6.5 -66 -19.5 -96s-30.667 -56 -53 -78s-48.833 -39.5 -79.5 -52.5s-63.667 -19.5 -99 -19.5s-68.666 6.5 -99.999 19.5s-58.666 30.5 -81.999 52.5s-41.666 48 -54.999 78s-20 62 -20 96v421h95v-417c0 -21.333 4.16699 -41.5 12.5 -60.5
s19.666 -36 33.999 -51s31.333 -26.833 51 -35.5s40.5 -13 62.5 -13s42.667 4.16699 62 12.5s36.166 19.666 50.499 33.999s25.666 31.166 33.999 50.499s12.5 40.333 12.5 63v417h94zM196 784.002c0 12.667 4.33301 23.334 13 32.001s19 13 31 13s22.333 -4.33301 31 -13
s13 -19.334 13 -32.001c0 -12 -4.33301 -22.333 -13 -31s-19 -13 -31 -13s-22.333 4.33301 -31 13s-13 19 -13 31zM345 784.002c0 12.667 4.33301 23.334 13 32.001s19.334 13 32.001 13c12 0 22.333 -4.33301 31 -13s13 -19.334 13 -32.001c0 -12 -4.33301 -22.333 -13 -31
s-19 -13 -31 -13c-12.667 0 -23.334 4.33301 -32.001 13s-13 19 -13 31z" />
    <glyph glyph-name="Yacute" unicode="&#xdd;" horiz-adv-x="595" 
d="M576 661l-234 -382v-279h-95v279l-234 382h107l172 -285h5l172 285h107zM275 833h98l-100 -108h-62z" />
    <glyph glyph-name="Thorn" unicode="&#xde;" horiz-adv-x="580" 
d="M158 166l-0.000976562 -166h-93v661h93v-94h200c24.667 0 47.667 -4.66699 69 -14s40 -22 56 -38s28.667 -34.667 38 -56s14 -44.333 14 -69v-46c0 -23.333 -4.66699 -45.833 -14 -67.5s-21.666 -40.667 -36.999 -57s-33 -29.333 -53 -39s-40.667 -14.5 -62 -14.5h-211z
M343.999 248c13.333 0 25.833 2.49902 37.5 7.49902s22 12 31 21s16 19.333 21 31s7.5 24.167 7.5 37.5v43c0 14 -2.66699 26.833 -8 38.5s-12.333 21.834 -21 30.501s-19 15.5 -31 20.5s-24.333 7.5 -37 7.5h-186v-237h186z" />
    <glyph glyph-name="germandbls" unicode="&#xdf;" horiz-adv-x="473" 
d="M236 80c8 -0.666992 15.499 -1.00293 22.499 -1.00293h19.5c28 0 47.667 2.83301 59 8.5s17 17.834 17 36.501c0 12 -7 22.5 -21 31.5s-29.5 19 -46.5 30s-32.5 24.167 -46.5 39.5s-21 35 -21 59c0 19.333 3.5 36.333 10.5 51s15.833 28 26.5 40s22.167 23.333 34.5 34
s23.833 21.667 34.5 33s19.5 23.5 26.5 36.5s10.5 27.833 10.5 44.5c0 17.333 -6.16699 33 -18.5 47s-31.5 21 -57.5 21c-18.667 0 -36.167 -4.16699 -52.5 -12.5s-30.666 -20.5 -42.999 -36.5s-22.166 -35.5 -29.499 -58.5s-11 -49.167 -11 -78.5v-405h-90v413
c0 40.667 5.83301 76.834 17.5 108.501s27.834 58.5 48.501 80.5s44.5 38.833 71.5 50.5s56.167 17.5 87.5 17.5c28 0 52.667 -4 74 -12s39.166 -18.833 53.499 -32.5s25.166 -29.334 32.499 -47.001s11 -36.167 11 -55.5c0 -32.667 -7.5 -60.167 -22.5 -82.5
s-31.667 -42.166 -50 -59.499s-35 -33.5 -50 -48.5s-22.5 -31.167 -22.5 -48.5c0 -12.667 7.16699 -23.5 21.5 -32.5s30.333 -19 48 -30s33.667 -24.167 48 -39.5s21.5 -35.666 21.5 -60.999c0 -40 -14.5 -70.667 -43.5 -92s-70.5 -32 -124.5 -32c-14.667 0 -30 1 -46 3v80z
" />
    <glyph glyph-name="agrave" unicode="&#xe0;" horiz-adv-x="511" 
d="M366 232l-112 -0.00195312c-38.667 0 -67.834 -8 -87.501 -24s-29.5 -37 -29.5 -63c0 -9.33301 1.66699 -18.666 5 -27.999s8.83301 -17.666 16.5 -24.999s17.834 -13.333 30.501 -18s28.334 -7 47.001 -7c16 0 31.833 2.66699 47.5 8s29.667 13 42 23
s22.166 22 29.499 36s11 29.667 11 47v51zM68 430.998c19.333 18.667 44.832 34.5 76.499 47.5s69.167 19.5 112.5 19.5c28.667 0 55 -4 79 -12s44.667 -20.5 62 -37.5s31 -39 41 -66s15 -59.167 15 -96.5v-286h-88v59h-5c-17.333 -19.333 -37.833 -34.833 -61.5 -46.5
s-51.5 -17.5 -83.5 -17.5c-25.333 0 -48.333 3.66699 -69 11s-38.667 17.5 -54 30.5s-27.166 28.333 -35.499 46s-12.5 36.5 -12.5 56.5c0 54 19.833 94.5 59.5 121.5s93.5 40.5 161.5 40.5h100c0 15.333 -2.16699 30.333 -6.5 45s-11.166 27.667 -20.499 39
s-21.333 20.5 -36 27.5s-32.334 10.5 -53.001 10.5c-30 0 -56.833 -5 -80.5 -15s-42.167 -21 -55.5 -33zM335.999 557.998h-62l-100 103h98z" />
    <glyph glyph-name="aacute" unicode="&#xe1;" horiz-adv-x="511" 
d="M366 232l-112 -0.00195312c-38.667 0 -67.834 -8 -87.501 -24s-29.5 -37 -29.5 -63c0 -9.33301 1.66699 -18.666 5 -27.999s8.83301 -17.666 16.5 -24.999s17.834 -13.333 30.501 -18s28.334 -7 47.001 -7c16 0 31.833 2.66699 47.5 8s29.667 13 42 23
s22.166 22 29.499 36s11 29.667 11 47v51zM68 430.998c19.333 18.667 44.832 34.5 76.499 47.5s69.167 19.5 112.5 19.5c28.667 0 55 -4 79 -12s44.667 -20.5 62 -37.5s31 -39 41 -66s15 -59.167 15 -96.5v-286h-88v59h-5c-17.333 -19.333 -37.833 -34.833 -61.5 -46.5
s-51.5 -17.5 -83.5 -17.5c-25.333 0 -48.333 3.66699 -69 11s-38.667 17.5 -54 30.5s-27.166 28.333 -35.499 46s-12.5 36.5 -12.5 56.5c0 54 19.833 94.5 59.5 121.5s93.5 40.5 161.5 40.5h100c0 15.333 -2.16699 30.333 -6.5 45s-11.166 27.667 -20.499 39
s-21.333 20.5 -36 27.5s-32.334 10.5 -53.001 10.5c-30 0 -56.833 -5 -80.5 -15s-42.167 -21 -55.5 -33zM237.999 660.998h98l-100 -108h-62z" />
    <glyph glyph-name="acircumflex" unicode="&#xe2;" horiz-adv-x="511" 
d="M366 232l-112 -0.00195312c-38.667 0 -67.834 -8 -87.501 -24s-29.5 -37 -29.5 -63c0 -9.33301 1.66699 -18.666 5 -27.999s8.83301 -17.666 16.5 -24.999s17.834 -13.333 30.501 -18s28.334 -7 47.001 -7c16 0 31.833 2.66699 47.5 8s29.667 13 42 23
s22.166 22 29.499 36s11 29.667 11 47v51zM68 430.998c19.333 18.667 44.832 34.5 76.499 47.5s69.167 19.5 112.5 19.5c28.667 0 55 -4 79 -12s44.667 -20.5 62 -37.5s31 -39 41 -66s15 -59.167 15 -96.5v-286h-88v59h-5c-17.333 -19.333 -37.833 -34.833 -61.5 -46.5
s-51.5 -17.5 -83.5 -17.5c-25.333 0 -48.333 3.66699 -69 11s-38.667 17.5 -54 30.5s-27.166 28.333 -35.499 46s-12.5 36.5 -12.5 56.5c0 54 19.833 94.5 59.5 121.5s93.5 40.5 161.5 40.5h100c0 15.333 -2.16699 30.333 -6.5 45s-11.166 27.667 -20.499 39
s-21.333 20.5 -36 27.5s-32.334 10.5 -53.001 10.5c-30 0 -56.833 -5 -80.5 -15s-42.167 -21 -55.5 -33zM211.999 660.998h86l70 -107h-66l-46 70h-4l-44 -70h-66z" />
    <glyph glyph-name="atilde" unicode="&#xe3;" horiz-adv-x="511" 
d="M366 232l-112 -0.00195312c-38.667 0 -67.834 -8 -87.501 -24s-29.5 -37 -29.5 -63c0 -9.33301 1.66699 -18.666 5 -27.999s8.83301 -17.666 16.5 -24.999s17.834 -13.333 30.501 -18s28.334 -7 47.001 -7c16 0 31.833 2.66699 47.5 8s29.667 13 42 23
s22.166 22 29.499 36s11 29.667 11 47v51zM68 430.998c19.333 18.667 44.832 34.5 76.499 47.5s69.167 19.5 112.5 19.5c28.667 0 55 -4 79 -12s44.667 -20.5 62 -37.5s31 -39 41 -66s15 -59.167 15 -96.5v-286h-88v59h-5c-17.333 -19.333 -37.833 -34.833 -61.5 -46.5
s-51.5 -17.5 -83.5 -17.5c-25.333 0 -48.333 3.66699 -69 11s-38.667 17.5 -54 30.5s-27.166 28.333 -35.499 46s-12.5 36.5 -12.5 56.5c0 54 19.833 94.5 59.5 121.5s93.5 40.5 161.5 40.5h100c0 15.333 -2.16699 30.333 -6.5 45s-11.166 27.667 -20.499 39
s-21.333 20.5 -36 27.5s-32.334 10.5 -53.001 10.5c-30 0 -56.833 -5 -80.5 -15s-42.167 -21 -55.5 -33zM317.999 568.998c-13.333 0 -26 1.83203 -38 5.49902s-23.5 7.66699 -34.5 12s-21.5 8.33301 -31.5 12s-19.667 5.5 -29 5.5s-16.666 -3.16699 -21.999 -9.5
s-9.33301 -13.166 -12 -20.499h-57c2 27.333 11.667 49.5 29 66.5s41 25.5 71 25.5c11.333 0 22.5 -1.83301 33.5 -5.5s21.833 -7.5 32.5 -11.5s21.167 -7.83301 31.5 -11.5s20.166 -5.5 29.499 -5.5c11.333 0 19.666 2.66699 24.999 8s9 12.666 11 21.999h59
c-1.33301 -11.333 -4.5 -22.666 -9.5 -33.999s-11.667 -21.333 -20 -30s-18.166 -15.667 -29.499 -21s-24.333 -8 -39 -8z" />
    <glyph glyph-name="adieresis" unicode="&#xe4;" horiz-adv-x="511" 
d="M366 232l-112 -0.00195312c-38.667 0 -67.834 -8 -87.501 -24s-29.5 -37 -29.5 -63c0 -9.33301 1.66699 -18.666 5 -27.999s8.83301 -17.666 16.5 -24.999s17.834 -13.333 30.501 -18s28.334 -7 47.001 -7c16 0 31.833 2.66699 47.5 8s29.667 13 42 23
s22.166 22 29.499 36s11 29.667 11 47v51zM68 430.998c19.333 18.667 44.832 34.5 76.499 47.5s69.167 19.5 112.5 19.5c28.667 0 55 -4 79 -12s44.667 -20.5 62 -37.5s31 -39 41 -66s15 -59.167 15 -96.5v-286h-88v59h-5c-17.333 -19.333 -37.833 -34.833 -61.5 -46.5
s-51.5 -17.5 -83.5 -17.5c-25.333 0 -48.333 3.66699 -69 11s-38.667 17.5 -54 30.5s-27.166 28.333 -35.499 46s-12.5 36.5 -12.5 56.5c0 54 19.833 94.5 59.5 121.5s93.5 40.5 161.5 40.5h100c0 15.333 -2.16699 30.333 -6.5 45s-11.166 27.667 -20.499 39
s-21.333 20.5 -36 27.5s-32.334 10.5 -53.001 10.5c-30 0 -56.833 -5 -80.5 -15s-42.167 -21 -55.5 -33zM135.999 611.998c0 12.667 4.33301 23.334 13 32.001s19 13 31 13s22.333 -4.33301 31 -13s13 -19.334 13 -32.001c0 -12 -4.33301 -22.333 -13 -31s-19 -13 -31 -13
s-22.333 4.33301 -31 13s-13 19 -13 31zM284.999 611.998c0 12.667 4.33301 23.334 13 32.001s19.334 13 32.001 13c12 0 22.333 -4.33301 31 -13s13 -19.334 13 -32.001c0 -12 -4.33301 -22.333 -13 -31s-19 -13 -31 -13c-12.667 0 -23.334 4.33301 -32.001 13
s-13 19 -13 31z" />
    <glyph glyph-name="aring" unicode="&#xe5;" horiz-adv-x="511" 
d="M366 232l-112 -0.00195312c-38.667 0 -67.834 -8 -87.501 -24s-29.5 -37 -29.5 -63c0 -9.33301 1.66699 -18.666 5 -27.999s8.83301 -17.666 16.5 -24.999s17.834 -13.333 30.501 -18s28.334 -7 47.001 -7c16 0 31.833 2.66699 47.5 8s29.667 13 42 23
s22.166 22 29.499 36s11 29.667 11 47v51zM68 430.998c19.333 18.667 44.832 34.5 76.499 47.5s69.167 19.5 112.5 19.5c28.667 0 55 -4 79 -12s44.667 -20.5 62 -37.5s31 -39 41 -66s15 -59.167 15 -96.5v-286h-88v59h-5c-17.333 -19.333 -37.833 -34.833 -61.5 -46.5
s-51.5 -17.5 -83.5 -17.5c-25.333 0 -48.333 3.66699 -69 11s-38.667 17.5 -54 30.5s-27.166 28.333 -35.499 46s-12.5 36.5 -12.5 56.5c0 54 19.833 94.5 59.5 121.5s93.5 40.5 161.5 40.5h100c0 15.333 -2.16699 30.333 -6.5 45s-11.166 27.667 -20.499 39
s-21.333 20.5 -36 27.5s-32.334 10.5 -53.001 10.5c-30 0 -56.833 -5 -80.5 -15s-42.167 -21 -55.5 -33zM254.999 685.998c19.333 0 36 -6.83301 50 -20.5s21 -30.167 21 -49.5s-7 -36 -21 -50s-30.667 -21 -50 -21s-36 7 -50 21s-21 30.667 -21 50s7 35.833 21 49.5
s30.667 20.5 50 20.5zM254.999 587.998c8 0 14.833 2.83301 20.5 8.5s8.5 12.167 8.5 19.5c0 8 -2.83301 14.833 -8.5 20.5s-12.5 8.5 -20.5 8.5s-14.833 -2.83301 -20.5 -8.5s-8.5 -12.5 -8.5 -20.5c0 -7.33301 2.83301 -13.833 8.5 -19.5s12.5 -8.5 20.5 -8.5z" />
    <glyph glyph-name="ae" unicode="&#xe6;" horiz-adv-x="823" 
d="M581 64c24.667 0 47.1689 6.33398 67.502 19.001s36.833 28.334 49.5 47.001c9.33301 -7.33301 18.833 -14.333 28.5 -21s19.167 -13.667 28.5 -21c-19.333 -28.667 -44.166 -51.334 -74.499 -68.001s-65.833 -25 -106.5 -25c-18.667 0 -37.167 2.33301 -55.5 7
s-35.333 11.167 -51 19.5s-29.167 18 -40.5 29s-19.666 22.5 -24.999 34.5h-4c-16.667 -28 -39.834 -50 -69.501 -66s-65.834 -24 -108.501 -24c-21.333 0 -42.333 2.83301 -63 8.5s-39 14.167 -55 25.5s-29 26 -39 44s-15 39 -15 63c0 26.667 5 48.834 15 66.501
s24.333 32 43 43s41.334 18.833 68.001 23.5s56.667 7 90 7h103c0 51.333 -9.83301 88.666 -29.5 111.999s-48.834 35 -87.501 35c-19.333 0 -39.833 -3.83301 -61.5 -11.5s-39.5 -19.834 -53.5 -36.501l-58 50c22.667 25.333 49.667 43.666 81 54.999s64.666 17 99.999 17
c40 0 73.667 -7.5 101 -22.5s47 -34.833 59 -59.5h4c8 12.667 18.167 24.334 30.5 35.001s26 19.5 41 26.5s30.5 12.5 46.5 16.5s32 6 48 6c29.333 0 55.666 -4.33301 78.999 -13s43 -20 59 -34s28.333 -30.167 37 -48.5s13 -37.5 13 -57.5
c0 -27.333 -5.66699 -49.833 -17 -67.5s-26.166 -31.667 -44.499 -42s-39.333 -17.5 -63 -21.5s-47.834 -6 -72.501 -6h-121c0 -44 10 -79.167 30 -105.5s51 -39.5 93 -39.5zM586.002 425.001c-16.667 0 -32.668 -3.00195 -48.001 -9.00195s-29 -14.667 -41 -26
s-21.5 -25.166 -28.5 -41.499s-10.5 -34.5 -10.5 -54.5v-18h121c39.333 0 67.833 5.33301 85.5 16s26.5 28.334 26.5 53.001c0 20 -9.16699 38.333 -27.5 55s-44.166 25 -77.499 25zM277.001 211.999c-46 0 -80.833 -5.33203 -104.5 -15.999s-35.5 -29.334 -35.5 -56.001
c0 -18 7.33301 -34.333 22 -49s36 -22 64 -22c50 0 86.833 11.167 110.5 33.5s35.5 58.833 35.5 109.5h-92z" />
    <glyph glyph-name="ccedilla" unicode="&#xe7;" horiz-adv-x="474" 
d="M450 124c-13.333 -37.333 -37.167 -68.165 -71.5 -92.498s-75.833 -36.5 -124.5 -36.5c-29.333 0 -56.666 5 -81.999 15s-47.5 23.5 -66.5 40.5s-33.833 37 -44.5 60s-16 47.5 -16 73.5v118c0 32 6.16699 60.167 18.5 84.5s28.333 44.666 48 60.999s42 28.833 67 37.5
s50.167 13 75.5 13c27.333 0 52 -3.83301 74 -11.5s41 -17.5 57 -29.5s29.5 -25.833 40.5 -41.5s19.167 -31.5 24.5 -47.5l-86 -28c-4 8.66699 -9.16699 17.5 -15.5 26.5s-14.166 17 -23.499 24s-20 12.833 -32 17.5s-25.333 7 -40 7c-14 0 -28 -2.5 -42 -7.5
s-26.833 -12.167 -38.5 -21.5s-21 -21 -28 -35s-10.5 -30 -10.5 -48v-112c0 -15.333 3.16699 -29.833 9.5 -43.5s15 -25.834 26 -36.501s23.667 -19 38 -25s29.5 -9 45.5 -9c25.333 0 47.666 7 66.999 21s33.666 31.667 42.999 53zM204.999 -32.999
c8.66699 2 17.8291 3.50098 27.4961 4.50098s18.834 1.5 27.501 1.5c21.333 0 36.5 -6.33301 45.5 -19s13.5 -27.334 13.5 -44.001c0 -9.33301 -2 -18.5 -6 -27.5s-9.83301 -17 -17.5 -24s-17.167 -12.833 -28.5 -17.5s-24.333 -7 -39 -7
c-13.333 0 -26.666 2.33301 -39.999 7s-24.666 9.66699 -33.999 15l20 43c10.667 -5.33301 19.834 -9 27.501 -11s16.5 -3 26.5 -3c7.33301 0 14.166 2.33301 20.499 7s9.5 10.667 9.5 18c0 8.66699 -3.33301 15 -10 19s-13.667 6 -21 6
c-5.33301 0 -11.666 -0.5 -18.999 -1.5s-13 -2.16699 -17 -3.5z" />
    <glyph glyph-name="egrave" unicode="&#xe8;" horiz-adv-x="505" 
d="M275 266c29.333 0 52.5 7.33301 69.5 22s25.5 35 25.5 61c0 21.333 -8.16699 39 -24.5 53s-39.5 21 -69.5 21c-18 0 -35.5 -3.33301 -52.5 -10s-32 -16.5 -45 -29.5s-23.5 -29.333 -31.5 -49s-12 -42.5 -12 -68.5h140zM136 196c0 -21.333 3.66895 -39.998 11.002 -55.998
s17.166 -29.333 29.499 -40s26.666 -18.667 42.999 -24s33.5 -8 51.5 -8c25.333 0 50.166 5.66699 74.499 17s42.833 26.333 55.5 45l61 -46c-22.667 -27.333 -49.334 -49.166 -80.001 -65.499s-68 -24.5 -112 -24.5c-37.333 0 -70.166 5.66699 -98.499 17
s-51.833 26.666 -70.5 45.999s-32.667 41.833 -42 67.5s-14 53.167 -14 82.5v66c0 30.667 5.66699 59.667 17 87s27 51.166 47 71.499s43.833 36.333 71.5 48s58.167 17.5 91.5 17.5c30.667 0 57.667 -4.33301 81 -13s42.833 -19.834 58.5 -33.501
s27.334 -29.167 35.001 -46.5s11.5 -35 11.5 -53c0 -20 -4 -39.333 -12 -58s-19.667 -35.167 -35 -49.5s-34 -25.833 -56 -34.5s-47 -13 -75 -13h-144zM333.002 558.002h-62l-100 103h98z" />
    <glyph glyph-name="eacute" unicode="&#xe9;" horiz-adv-x="505" 
d="M275 266c29.333 0 52.5 7.33301 69.5 22s25.5 35 25.5 61c0 21.333 -8.16699 39 -24.5 53s-39.5 21 -69.5 21c-18 0 -35.5 -3.33301 -52.5 -10s-32 -16.5 -45 -29.5s-23.5 -29.333 -31.5 -49s-12 -42.5 -12 -68.5h140zM136 196c0 -21.333 3.66895 -39.998 11.002 -55.998
s17.166 -29.333 29.499 -40s26.666 -18.667 42.999 -24s33.5 -8 51.5 -8c25.333 0 50.166 5.66699 74.499 17s42.833 26.333 55.5 45l61 -46c-22.667 -27.333 -49.334 -49.166 -80.001 -65.499s-68 -24.5 -112 -24.5c-37.333 0 -70.166 5.66699 -98.499 17
s-51.833 26.666 -70.5 45.999s-32.667 41.833 -42 67.5s-14 53.167 -14 82.5v66c0 30.667 5.66699 59.667 17 87s27 51.166 47 71.499s43.833 36.333 71.5 48s58.167 17.5 91.5 17.5c30.667 0 57.667 -4.33301 81 -13s42.833 -19.834 58.5 -33.501
s27.334 -29.167 35.001 -46.5s11.5 -35 11.5 -53c0 -20 -4 -39.333 -12 -58s-19.667 -35.167 -35 -49.5s-34 -25.833 -56 -34.5s-47 -13 -75 -13h-144zM235.002 661.002h98l-100 -108h-62z" />
    <glyph glyph-name="ecircumflex" unicode="&#xea;" horiz-adv-x="505" 
d="M275 266c29.333 0 52.5 7.33301 69.5 22s25.5 35 25.5 61c0 21.333 -8.16699 39 -24.5 53s-39.5 21 -69.5 21c-18 0 -35.5 -3.33301 -52.5 -10s-32 -16.5 -45 -29.5s-23.5 -29.333 -31.5 -49s-12 -42.5 -12 -68.5h140zM136 196c0 -21.333 3.66895 -39.998 11.002 -55.998
s17.166 -29.333 29.499 -40s26.666 -18.667 42.999 -24s33.5 -8 51.5 -8c25.333 0 50.166 5.66699 74.499 17s42.833 26.333 55.5 45l61 -46c-22.667 -27.333 -49.334 -49.166 -80.001 -65.499s-68 -24.5 -112 -24.5c-37.333 0 -70.166 5.66699 -98.499 17
s-51.833 26.666 -70.5 45.999s-32.667 41.833 -42 67.5s-14 53.167 -14 82.5v66c0 30.667 5.66699 59.667 17 87s27 51.166 47 71.499s43.833 36.333 71.5 48s58.167 17.5 91.5 17.5c30.667 0 57.667 -4.33301 81 -13s42.833 -19.834 58.5 -33.501
s27.334 -29.167 35.001 -46.5s11.5 -35 11.5 -53c0 -20 -4 -39.333 -12 -58s-19.667 -35.167 -35 -49.5s-34 -25.833 -56 -34.5s-47 -13 -75 -13h-144zM209.002 661.002h86l70 -107h-66l-46 70h-4l-44 -70h-66z" />
    <glyph glyph-name="edieresis" unicode="&#xeb;" horiz-adv-x="505" 
d="M275 266c29.333 0 52.5 7.33301 69.5 22s25.5 35 25.5 61c0 21.333 -8.16699 39 -24.5 53s-39.5 21 -69.5 21c-18 0 -35.5 -3.33301 -52.5 -10s-32 -16.5 -45 -29.5s-23.5 -29.333 -31.5 -49s-12 -42.5 -12 -68.5h140zM136 196c0 -21.333 3.66895 -39.998 11.002 -55.998
s17.166 -29.333 29.499 -40s26.666 -18.667 42.999 -24s33.5 -8 51.5 -8c25.333 0 50.166 5.66699 74.499 17s42.833 26.333 55.5 45l61 -46c-22.667 -27.333 -49.334 -49.166 -80.001 -65.499s-68 -24.5 -112 -24.5c-37.333 0 -70.166 5.66699 -98.499 17
s-51.833 26.666 -70.5 45.999s-32.667 41.833 -42 67.5s-14 53.167 -14 82.5v66c0 30.667 5.66699 59.667 17 87s27 51.166 47 71.499s43.833 36.333 71.5 48s58.167 17.5 91.5 17.5c30.667 0 57.667 -4.33301 81 -13s42.833 -19.834 58.5 -33.501
s27.334 -29.167 35.001 -46.5s11.5 -35 11.5 -53c0 -20 -4 -39.333 -12 -58s-19.667 -35.167 -35 -49.5s-34 -25.833 -56 -34.5s-47 -13 -75 -13h-144zM133.002 612.002c0 12.667 4.33301 23.334 13 32.001s19 13 31 13s22.333 -4.33301 31 -13s13 -19.334 13 -32.001
c0 -12 -4.33301 -22.333 -13 -31s-19 -13 -31 -13s-22.333 4.33301 -31 13s-13 19 -13 31zM282.002 612.002c0 12.667 4.33301 23.334 13 32.001s19.334 13 32.001 13c12 0 22.333 -4.33301 31 -13s13 -19.334 13 -32.001c0 -12 -4.33301 -22.333 -13 -31s-19 -13 -31 -13
c-12.667 0 -23.334 4.33301 -32.001 13s-13 19 -13 31z" />
    <glyph glyph-name="igrave" unicode="&#xec;" horiz-adv-x="249" 
d="M141 135c0 -15.333 4.99902 -29.168 14.999 -41.501s26.667 -18.5 50 -18.5h25v-75h-40c-31.333 0 -56.166 4.83301 -74.499 14.5s-32.333 22.834 -42 39.501s-16 35.667 -19 57s-4.5 44 -4.5 68v313h90v-357zM204.999 557.998h-62l-100 103h98z" />
    <glyph glyph-name="iacute" unicode="&#xed;" horiz-adv-x="249" 
d="M141 135c0 -15.333 4.99902 -29.168 14.999 -41.501s26.667 -18.5 50 -18.5h25v-75h-40c-31.333 0 -56.166 4.83301 -74.499 14.5s-32.333 22.834 -42 39.501s-16 35.667 -19 57s-4.5 44 -4.5 68v313h90v-357zM106.999 660.998h98l-100 -108h-62z" />
    <glyph glyph-name="icircumflex" unicode="&#xee;" horiz-adv-x="249" 
d="M141 135c0 -15.333 4.99902 -29.168 14.999 -41.501s26.667 -18.5 50 -18.5h25v-75h-40c-31.333 0 -56.166 4.83301 -74.499 14.5s-32.333 22.834 -42 39.501s-16 35.667 -19 57s-4.5 44 -4.5 68v313h90v-357zM80.999 660.998h86l70 -107h-66l-46 70h-4l-44 -70h-66z" />
    <glyph glyph-name="idieresis" unicode="&#xef;" horiz-adv-x="249" 
d="M141 135c0 -15.333 4.99902 -29.168 14.999 -41.501s26.667 -18.5 50 -18.5h25v-75h-40c-31.333 0 -56.166 4.83301 -74.499 14.5s-32.333 22.834 -42 39.501s-16 35.667 -19 57s-4.5 44 -4.5 68v313h90v-357zM-23.001 611.998c0 12.667 4.33301 23.334 13 32.001
s19 13 31 13s22.333 -4.33301 31 -13s13 -19.334 13 -32.001c0 -12 -4.33301 -22.333 -13 -31s-19 -13 -31 -13s-22.333 4.33301 -31 13s-13 19 -13 31zM125.999 611.998c0 12.667 4.33301 23.334 13 32.001s19.334 13 32.001 13c12 0 22.333 -4.33301 31 -13
s13 -19.334 13 -32.001c0 -12 -4.33301 -22.333 -13 -31s-19 -13 -31 -13c-12.667 0 -23.334 4.33301 -32.001 13s-13 19 -13 31z" />
    <glyph glyph-name="eth" unicode="&#xf0;" horiz-adv-x="496" 
d="M393 665l-36.998 -31v-4c31.333 -36 55.333 -81.667 72 -137s25 -114.666 25 -177.999v-133c0 -26 -5.33301 -50.5 -16 -73.5s-25.334 -42.833 -44.001 -59.5s-40.667 -29.834 -66 -39.501s-53 -14.5 -83 -14.5c-28.667 0 -55.667 4.66699 -81 14s-47.5 22.333 -66.5 39
s-34 36.334 -45 59.001s-16.5 47.667 -16.5 75v84v21.5c0 7 0.333008 14.167 1 21.5c0.666992 28.667 6.66699 54.167 18 76.5s26 41.166 44 56.499s38.667 27.166 62 35.499s47.666 12.5 72.999 12.5c43.333 0 81 -11.333 113 -34l4 2
c-1.33301 10.667 -4.33301 21.834 -9 33.501s-9.83398 23 -15.501 34s-11.667 21.333 -18 31s-12.166 17.5 -17.499 23.5l-40 -30l-33 40l35 28v4c-7.33301 7.33301 -14.5 13.833 -21.5 19.5s-14.167 11.5 -21.5 17.5l56 58c9.33301 -5.33301 19 -12.333 29 -21
s18 -16.667 24 -24c7.33301 6 14.833 11.667 22.5 17s15.167 11 22.5 17zM126.002 195c0 -15.333 3.16699 -30 9.5 -44s14.833 -26.333 25.5 -37s23.167 -19.167 37.5 -25.5s29.5 -9.5 45.5 -9.5s31.333 3.16699 46 9.5s27.5 14.833 38.5 25.5s19.667 23 26 37
s9.5 28.667 9.5 44v104c0 16.667 -3.33301 32 -10 46s-15.5 26 -26.5 36s-23.667 17.667 -38 23s-29.5 8 -45.5 8s-31 -2.66699 -45 -8s-26.5 -13 -37.5 -23s-19.667 -22 -26 -36s-9.5 -29.333 -9.5 -46v-104z" />
    <glyph glyph-name="ntilde" unicode="&#xf1;" 
d="M159 432c13.333 23.333 32.1689 39.833 56.502 49.5s50.5 14.5 78.5 14.5c26.667 0 51.5 -4 74.5 -12s42.833 -20 59.5 -36s29.667 -35.667 39 -59s14 -50.333 14 -81v-308h-89v303c0 15.333 -2.83301 29.833 -8.5 43.5s-13.5 25.667 -23.5 36s-21.833 18.5 -35.5 24.5
s-28.834 9 -45.501 9s-32.5 -2.33301 -47.5 -7s-28.333 -11.5 -40 -20.5s-20.834 -20.667 -27.501 -35s-10 -30.833 -10 -49.5v-304h-89v492h90v-60h4zM331.003 569c-13.333 0 -26 1.83203 -38 5.49902s-23.5 7.66699 -34.5 12s-21.5 8.33301 -31.5 12s-19.667 5.5 -29 5.5
s-16.666 -3.16699 -21.999 -9.5s-9.33301 -13.166 -12 -20.499h-57c2 27.333 11.667 49.5 29 66.5s41 25.5 71 25.5c11.333 0 22.5 -1.83301 33.5 -5.5s21.833 -7.5 32.5 -11.5s21.167 -7.83301 31.5 -11.5s20.166 -5.5 29.499 -5.5c11.333 0 19.666 2.66699 24.999 8
s9 12.666 11 21.999h59c-1.33301 -11.333 -4.5 -22.666 -9.5 -33.999s-11.667 -21.333 -20 -30s-18.166 -15.667 -29.499 -21s-24.333 -8 -39 -8z" />
    <glyph glyph-name="ograve" unicode="&#xf2;" horiz-adv-x="512" 
d="M258 498c32.667 0 61.833 -5.33496 87.5 -16.002s47.5 -25.167 65.5 -43.5s31.833 -39.666 41.5 -63.999s14.5 -50.5 14.5 -78.5v-109c0 -24 -5 -47.333 -15 -70s-24 -43 -42 -61s-40 -32.5 -66 -43.5s-55 -16.5 -87 -16.5c-30.667 0 -58.834 5.33301 -84.501 16
s-48 24.834 -67 42.501s-33.833 38 -44.5 61s-16 47.167 -16 72.5v108c0 32.667 6 61.667 18 87s28 46.5 48 63.5s42.833 29.833 68.5 38.5s51.834 13 78.501 13zM374.999 297.998c0 16.667 -2.99805 32.166 -8.99805 46.499s-14.333 26.833 -25 37.5
s-23.167 18.834 -37.5 24.501s-29.833 8.5 -46.5 8.5c-18 0 -34.333 -3.16699 -49 -9.5s-27.334 -14.833 -38.001 -25.5s-18.834 -23 -24.501 -37s-8.5 -29 -8.5 -45v-114c0 -15.333 3.5 -29.5 10.5 -42.5s16 -24.333 27 -34s23.667 -17.167 38 -22.5s28.833 -8 43.5 -8
c17.333 0 33.333 3 48 9s27.167 14 37.5 24s18.5 21.5 24.5 34.5s9 26.167 9 39.5v114zM337.001 557.997h-62l-100 103h98z" />
    <glyph glyph-name="oacute" unicode="&#xf3;" horiz-adv-x="512" 
d="M258 498c32.667 0 61.833 -5.33496 87.5 -16.002s47.5 -25.167 65.5 -43.5s31.833 -39.666 41.5 -63.999s14.5 -50.5 14.5 -78.5v-109c0 -24 -5 -47.333 -15 -70s-24 -43 -42 -61s-40 -32.5 -66 -43.5s-55 -16.5 -87 -16.5c-30.667 0 -58.834 5.33301 -84.501 16
s-48 24.834 -67 42.501s-33.833 38 -44.5 61s-16 47.167 -16 72.5v108c0 32.667 6 61.667 18 87s28 46.5 48 63.5s42.833 29.833 68.5 38.5s51.834 13 78.501 13zM374.999 297.998c0 16.667 -2.99805 32.166 -8.99805 46.499s-14.333 26.833 -25 37.5
s-23.167 18.834 -37.5 24.501s-29.833 8.5 -46.5 8.5c-18 0 -34.333 -3.16699 -49 -9.5s-27.334 -14.833 -38.001 -25.5s-18.834 -23 -24.501 -37s-8.5 -29 -8.5 -45v-114c0 -15.333 3.5 -29.5 10.5 -42.5s16 -24.333 27 -34s23.667 -17.167 38 -22.5s28.833 -8 43.5 -8
c17.333 0 33.333 3 48 9s27.167 14 37.5 24s18.5 21.5 24.5 34.5s9 26.167 9 39.5v114zM239.001 660.997h98l-100 -108h-62z" />
    <glyph glyph-name="ocircumflex" unicode="&#xf4;" horiz-adv-x="512" 
d="M258 498c32.667 0 61.833 -5.33496 87.5 -16.002s47.5 -25.167 65.5 -43.5s31.833 -39.666 41.5 -63.999s14.5 -50.5 14.5 -78.5v-109c0 -24 -5 -47.333 -15 -70s-24 -43 -42 -61s-40 -32.5 -66 -43.5s-55 -16.5 -87 -16.5c-30.667 0 -58.834 5.33301 -84.501 16
s-48 24.834 -67 42.501s-33.833 38 -44.5 61s-16 47.167 -16 72.5v108c0 32.667 6 61.667 18 87s28 46.5 48 63.5s42.833 29.833 68.5 38.5s51.834 13 78.501 13zM374.999 297.998c0 16.667 -2.99805 32.166 -8.99805 46.499s-14.333 26.833 -25 37.5
s-23.167 18.834 -37.5 24.501s-29.833 8.5 -46.5 8.5c-18 0 -34.333 -3.16699 -49 -9.5s-27.334 -14.833 -38.001 -25.5s-18.834 -23 -24.501 -37s-8.5 -29 -8.5 -45v-114c0 -15.333 3.5 -29.5 10.5 -42.5s16 -24.333 27 -34s23.667 -17.167 38 -22.5s28.833 -8 43.5 -8
c17.333 0 33.333 3 48 9s27.167 14 37.5 24s18.5 21.5 24.5 34.5s9 26.167 9 39.5v114zM213.001 660.997h86l70 -107h-66l-46 70h-4l-44 -70h-66z" />
    <glyph glyph-name="otilde" unicode="&#xf5;" horiz-adv-x="512" 
d="M258 498c32.667 0 61.833 -5.33496 87.5 -16.002s47.5 -25.167 65.5 -43.5s31.833 -39.666 41.5 -63.999s14.5 -50.5 14.5 -78.5v-109c0 -24 -5 -47.333 -15 -70s-24 -43 -42 -61s-40 -32.5 -66 -43.5s-55 -16.5 -87 -16.5c-30.667 0 -58.834 5.33301 -84.501 16
s-48 24.834 -67 42.501s-33.833 38 -44.5 61s-16 47.167 -16 72.5v108c0 32.667 6 61.667 18 87s28 46.5 48 63.5s42.833 29.833 68.5 38.5s51.834 13 78.501 13zM374.999 297.998c0 16.667 -2.99805 32.166 -8.99805 46.499s-14.333 26.833 -25 37.5
s-23.167 18.834 -37.5 24.501s-29.833 8.5 -46.5 8.5c-18 0 -34.333 -3.16699 -49 -9.5s-27.334 -14.833 -38.001 -25.5s-18.834 -23 -24.501 -37s-8.5 -29 -8.5 -45v-114c0 -15.333 3.5 -29.5 10.5 -42.5s16 -24.333 27 -34s23.667 -17.167 38 -22.5s28.833 -8 43.5 -8
c17.333 0 33.333 3 48 9s27.167 14 37.5 24s18.5 21.5 24.5 34.5s9 26.167 9 39.5v114zM319.001 568.997c-13.333 0 -26 1.83203 -38 5.49902s-23.5 7.66699 -34.5 12s-21.5 8.33301 -31.5 12s-19.667 5.5 -29 5.5s-16.666 -3.16699 -21.999 -9.5
s-9.33301 -13.166 -12 -20.499h-57c2 27.333 11.667 49.5 29 66.5s41 25.5 71 25.5c11.333 0 22.5 -1.83301 33.5 -5.5s21.833 -7.5 32.5 -11.5s21.167 -7.83301 31.5 -11.5s20.166 -5.5 29.499 -5.5c11.333 0 19.666 2.66699 24.999 8s9 12.666 11 21.999h59
c-1.33301 -11.333 -4.5 -22.666 -9.5 -33.999s-11.667 -21.333 -20 -30s-18.166 -15.667 -29.499 -21s-24.333 -8 -39 -8z" />
    <glyph glyph-name="odieresis" unicode="&#xf6;" horiz-adv-x="512" 
d="M258 498c32.667 0 61.833 -5.33496 87.5 -16.002s47.5 -25.167 65.5 -43.5s31.833 -39.666 41.5 -63.999s14.5 -50.5 14.5 -78.5v-109c0 -24 -5 -47.333 -15 -70s-24 -43 -42 -61s-40 -32.5 -66 -43.5s-55 -16.5 -87 -16.5c-30.667 0 -58.834 5.33301 -84.501 16
s-48 24.834 -67 42.501s-33.833 38 -44.5 61s-16 47.167 -16 72.5v108c0 32.667 6 61.667 18 87s28 46.5 48 63.5s42.833 29.833 68.5 38.5s51.834 13 78.501 13zM374.999 297.998c0 16.667 -2.99805 32.166 -8.99805 46.499s-14.333 26.833 -25 37.5
s-23.167 18.834 -37.5 24.501s-29.833 8.5 -46.5 8.5c-18 0 -34.333 -3.16699 -49 -9.5s-27.334 -14.833 -38.001 -25.5s-18.834 -23 -24.501 -37s-8.5 -29 -8.5 -45v-114c0 -15.333 3.5 -29.5 10.5 -42.5s16 -24.333 27 -34s23.667 -17.167 38 -22.5s28.833 -8 43.5 -8
c17.333 0 33.333 3 48 9s27.167 14 37.5 24s18.5 21.5 24.5 34.5s9 26.167 9 39.5v114zM137.001 611.997c0 12.667 4.33301 23.334 13 32.001s19 13 31 13s22.333 -4.33301 31 -13s13 -19.334 13 -32.001c0 -12 -4.33301 -22.333 -13 -31s-19 -13 -31 -13
s-22.333 4.33301 -31 13s-13 19 -13 31zM286.001 611.997c0 12.667 4.33301 23.334 13 32.001s19.334 13 32.001 13c12 0 22.333 -4.33301 31 -13s13 -19.334 13 -32.001c0 -12 -4.33301 -22.333 -13 -31s-19 -13 -31 -13c-12.667 0 -23.334 4.33301 -32.001 13
s-13 19 -13 31z" />
    <glyph glyph-name="divide" unicode="&#xf7;" horiz-adv-x="468" 
d="M411 225h-354v73h354v-73zM278 357h-88v91h88v-91zM278 76h-88v91h88v-91z" />
    <glyph glyph-name="oslash" unicode="&#xf8;" horiz-adv-x="513" 
d="M410 438c17.333 -17.333 30.832 -37.3311 40.499 -59.998s14.5 -48 14.5 -76v-107c0 -24 -4.16699 -47.833 -12.5 -71.5s-21 -45 -38 -64s-38.667 -34.333 -65 -46s-57.5 -17.5 -93.5 -17.5c-19.333 0 -38.166 2 -56.499 6s-35.166 10.667 -50.499 20l-33 -52l-46 29
l34 55c-22.667 21.333 -37.5 43.666 -44.5 66.999s-10.5 47.666 -10.5 72.999v108c0 30.667 5.5 58 16.5 82s26 44.333 45 61s41 29.334 66 38.001s51.5 13 79.5 13c41.333 0 77.666 -8.66699 108.999 -26c6.66699 8.66699 12.667 17.667 18 27s11 18.666 17 27.999l46 -30z
M137.999 216.002c0 -28.667 6.00195 -54.999 18.002 -78.999c28 44 55.833 88.167 83.5 132.5s55.834 88.833 84.501 133.5c-21.333 12.667 -44 19 -68 19c-15.333 0 -29.833 -2.5 -43.5 -7.5s-25.834 -12.167 -36.501 -21.5s-19.334 -20.5 -26.001 -33.5
s-10.334 -27.167 -11.001 -42.5c-0.666992 -16.667 -1 -33.334 -1 -50.001v-51zM375.001 299.003c0 22.667 -5.66797 41.6689 -17.001 57.002c-28 -44.667 -55.833 -89.334 -83.5 -134.001s-55.5 -89 -83.5 -133c19.333 -13.333 41 -20 65 -20c16 0 31.333 3.16699 46 9.5
s27.334 14.666 38.001 24.999s19.167 22.5 25.5 36.5s9.5 29 9.5 45v114z" />
    <glyph glyph-name="ugrave" unicode="&#xf9;" 
d="M238 -4c-54 0 -97.833 15.999 -131.5 47.999s-50.5 78.667 -50.5 140v312h88v-306c0 -15.333 2.83301 -29.833 8.5 -43.5s13.5 -25.667 23.5 -36s22 -18.666 36 -24.999s29.333 -9.5 46 -9.5s32.5 2.33301 47.5 7s28.167 11.5 39.5 20.5s20.5 20.5 27.5 34.5
s10.5 30.667 10.5 50v308h89v-496h-90v60h-4c-12 -18.667 -30.333 -34 -55 -46s-53 -18 -85 -18zM349 557.999h-62l-100 103h98z" />
    <glyph glyph-name="uacute" unicode="&#xfa;" 
d="M238 -4c-54 0 -97.833 15.999 -131.5 47.999s-50.5 78.667 -50.5 140v312h88v-306c0 -15.333 2.83301 -29.833 8.5 -43.5s13.5 -25.667 23.5 -36s22 -18.666 36 -24.999s29.333 -9.5 46 -9.5s32.5 2.33301 47.5 7s28.167 11.5 39.5 20.5s20.5 20.5 27.5 34.5
s10.5 30.667 10.5 50v308h89v-496h-90v60h-4c-12 -18.667 -30.333 -34 -55 -46s-53 -18 -85 -18zM251 660.999h98l-100 -108h-62z" />
    <glyph glyph-name="ucircumflex" unicode="&#xfb;" 
d="M238 -4c-54 0 -97.833 15.999 -131.5 47.999s-50.5 78.667 -50.5 140v312h88v-306c0 -15.333 2.83301 -29.833 8.5 -43.5s13.5 -25.667 23.5 -36s22 -18.666 36 -24.999s29.333 -9.5 46 -9.5s32.5 2.33301 47.5 7s28.167 11.5 39.5 20.5s20.5 20.5 27.5 34.5
s10.5 30.667 10.5 50v308h89v-496h-90v60h-4c-12 -18.667 -30.333 -34 -55 -46s-53 -18 -85 -18zM225 660.999h86l70 -107h-66l-46 70h-4l-44 -70h-66z" />
    <glyph glyph-name="udieresis" unicode="&#xfc;" 
d="M238 -4c-54 0 -97.833 15.999 -131.5 47.999s-50.5 78.667 -50.5 140v312h88v-306c0 -15.333 2.83301 -29.833 8.5 -43.5s13.5 -25.667 23.5 -36s22 -18.666 36 -24.999s29.333 -9.5 46 -9.5s32.5 2.33301 47.5 7s28.167 11.5 39.5 20.5s20.5 20.5 27.5 34.5
s10.5 30.667 10.5 50v308h89v-496h-90v60h-4c-12 -18.667 -30.333 -34 -55 -46s-53 -18 -85 -18zM149 611.999c0 12.667 4.33301 23.334 13 32.001s19 13 31 13s22.333 -4.33301 31 -13s13 -19.334 13 -32.001c0 -12 -4.33301 -22.333 -13 -31s-19 -13 -31 -13
s-22.333 4.33301 -31 13s-13 19 -13 31zM298 611.999c0 12.667 4.33301 23.334 13 32.001s19.334 13 32.001 13c12 0 22.333 -4.33301 31 -13s13 -19.334 13 -32.001c0 -12 -4.33301 -22.333 -13 -31s-19 -13 -31 -13c-12.667 0 -23.334 4.33301 -32.001 13s-13 19 -13 31z
" />
    <glyph glyph-name="yacute" unicode="&#xfd;" horiz-adv-x="467" 
d="M452 492l-193.001 -539c-9.33301 -25.333 -19.333 -46 -30 -62s-23 -28.5 -37 -37.5s-29.833 -15 -47.5 -18s-37.834 -4.5 -60.501 -4.5v72c28.667 0 49.834 4.5 63.501 13.5s24.834 26.167 33.501 51.5l12 37l-176 487h97l120 -377h4l120 377h94zM216.999 661h98
l-100 -108h-62z" />
    <glyph glyph-name="thorn" unicode="&#xfe;" horiz-adv-x="522" 
d="M391 300c0 16 -3.16699 30.833 -9.5 44.5s-15 25.5 -26 35.5s-23.667 17.833 -38 23.5s-29.5 8.5 -45.5 8.5c-14.667 0 -29 -2.66699 -43 -8s-26.667 -12.833 -38 -22.5s-20.5 -21.334 -27.5 -35.001s-10.5 -29.167 -10.5 -46.5v-109c0 -16 3.16699 -30.833 9.5 -44.5
s14.833 -25.5 25.5 -35.5s23.167 -17.833 37.5 -23.5s29.833 -8.5 46.5 -8.5c16 0 31.167 2.83301 45.5 8.5s27 13.5 38 23.5s19.667 21.833 26 35.5s9.5 28.834 9.5 45.501v108zM64 -170l0.000976562 840.998h89v-235h4c4.66699 8 11.167 15.667 19.5 23
s18.166 13.833 29.499 19.5s24 10.334 38 14.001s28.667 5.5 44 5.5c25.333 0 49.666 -4.83301 72.999 -14.5s43.833 -23.167 61.5 -40.5s31.834 -37.833 42.501 -61.5s16 -49.5 16 -77.5v-118c0 -29.333 -5.5 -55.666 -16.5 -78.999s-25.5 -43.333 -43.5 -60
s-38.5 -29.5 -61.5 -38.5s-46.833 -13.5 -71.5 -13.5c-24 0 -48.5 5 -73.5 15s-44.167 24.333 -57.5 43h-4v-223h-89z" />
    <glyph glyph-name="ydieresis" unicode="&#xff;" horiz-adv-x="475" 
d="M455 492l-192.997 -539c-9.33301 -25.333 -19.5 -46 -30.5 -62s-23.5 -28.5 -37.5 -37.5s-29.833 -15 -47.5 -18s-37.834 -4.5 -60.501 -4.5v72c14.667 0 27.167 1 37.5 3s19.166 5.5 26.499 10.5s13.666 11.667 18.999 20s10.333 18.833 15 31.5l12 37l-176 487h97
l120 -377h4l120 377h94zM119.003 612c0 12.667 4.33301 23.334 13 32.001s19.334 13 32.001 13c12 0 22.333 -4.33301 31 -13s13 -19.334 13 -32.001c0 -12 -4.33301 -22.333 -13 -31s-19 -13 -31 -13c-12.667 0 -23.334 4.33301 -32.001 13s-13 19 -13 31zM269.003 612
c0 12.667 4.33301 23.334 13 32.001s19 13 31 13c12.667 0 23.334 -4.33301 32.001 -13s13 -19.334 13 -32.001c0 -12 -4.33301 -22.333 -13 -31s-19.334 -13 -32.001 -13c-12 0 -22.333 4.33301 -31 13s-13 19 -13 31z" />
    <glyph glyph-name="Amacron" unicode="&#x100;" horiz-adv-x="596" 
d="M183 811h224v-58h-224v58zM347 661c38.667 -110.667 77.166 -220.832 115.499 -330.499s77.166 -219.834 116.499 -330.501h-99l-57 165h-251c-9.33301 -28 -18.666 -55.5 -27.999 -82.5s-18.666 -54.5 -27.999 -82.5h-99l232 661h98zM199.999 246.002h196l-97 284h-4z
" />
    <glyph glyph-name="amacron" unicode="&#x101;" horiz-adv-x="511" 
d="M150 643h224v-57h-224v57zM366 232l-112 -0.00195312c-38.667 0 -67.834 -8 -87.501 -24s-29.5 -37 -29.5 -63c0 -9.33301 1.66699 -18.666 5 -27.999s8.83301 -17.666 16.5 -24.999s17.834 -13.333 30.501 -18s28.334 -7 47.001 -7c16 0 31.833 2.66699 47.5 8
s29.667 13 42 23s22.166 22 29.499 36s11 29.667 11 47v51zM68 430.998c19.333 18.667 44.832 34.5 76.499 47.5s69.167 19.5 112.5 19.5c28.667 0 55 -4 79 -12s44.667 -20.5 62 -37.5s31 -39 41 -66s15 -59.167 15 -96.5v-286h-88v59h-5
c-17.333 -19.333 -37.833 -34.833 -61.5 -46.5s-51.5 -17.5 -83.5 -17.5c-25.333 0 -48.333 3.66699 -69 11s-38.667 17.5 -54 30.5s-27.166 28.333 -35.499 46s-12.5 36.5 -12.5 56.5c0 54 19.833 94.5 59.5 121.5s93.5 40.5 161.5 40.5h100
c0 15.333 -2.16699 30.333 -6.5 45s-11.166 27.667 -20.499 39s-21.333 20.5 -36 27.5s-32.334 10.5 -53.001 10.5c-30 0 -56.833 -5 -80.5 -15s-42.167 -21 -55.5 -33z" />
    <glyph glyph-name="Abreve" unicode="&#x102;" horiz-adv-x="596" 
d="M298 713c-17.333 0 -33.6689 3 -49.002 9s-28.833 14.167 -40.5 24.5s-21.167 22.666 -28.5 36.999s-11.666 29.5 -12.999 45.5h63c2.66699 -16 10.334 -29.333 23.001 -40s27.667 -16 45 -16c16.667 0 31.167 5.33301 43.5 16s20.166 24 23.499 40h62
c-2 -16 -6.66699 -31 -14 -45s-16.666 -26.167 -27.999 -36.5s-24.5 -18.666 -39.5 -24.999s-30.833 -9.5 -47.5 -9.5zM346.997 661c38.667 -110.667 77.166 -220.832 115.499 -330.499s77.166 -219.834 116.499 -330.501h-99l-57 165h-251
c-9.33301 -28 -18.666 -55.5 -27.999 -82.5s-18.666 -54.5 -27.999 -82.5h-99l232 661h98zM199.996 246.002h196l-97 284h-4z" />
    <glyph glyph-name="abreve" unicode="&#x103;" horiz-adv-x="511" 
d="M272 545c-17.333 0 -33.501 3.00098 -48.501 9.00098s-28.333 14.167 -40 24.5s-21.167 22.666 -28.5 36.999s-11.666 29.5 -12.999 45.5h62c3.33301 -16 11.166 -29.333 23.499 -40s27.166 -16 44.499 -16s32 5.33301 44 16s19.667 24 23 40h63
c-2 -15.333 -6.66699 -30 -14 -44s-16.666 -26.333 -27.999 -37s-24.666 -19.167 -39.999 -25.5s-31.333 -9.5 -48 -9.5zM365.999 232.001l-112 -0.00195312c-38.667 0 -67.834 -8 -87.501 -24s-29.5 -37 -29.5 -63c0 -9.33301 1.66699 -18.666 5 -27.999
s8.83301 -17.666 16.5 -24.999s17.834 -13.333 30.501 -18s28.334 -7 47.001 -7c16 0 31.833 2.66699 47.5 8s29.667 13 42 23s22.166 22 29.499 36s11 29.667 11 47v51zM67.999 430.999c19.333 18.667 44.832 34.5 76.499 47.5s69.167 19.5 112.5 19.5
c28.667 0 55 -4 79 -12s44.667 -20.5 62 -37.5s31 -39 41 -66s15 -59.167 15 -96.5v-286h-88v59h-5c-17.333 -19.333 -37.833 -34.833 -61.5 -46.5s-51.5 -17.5 -83.5 -17.5c-25.333 0 -48.333 3.66699 -69 11s-38.667 17.5 -54 30.5s-27.166 28.333 -35.499 46
s-12.5 36.5 -12.5 56.5c0 54 19.833 94.5 59.5 121.5s93.5 40.5 161.5 40.5h100c0 15.333 -2.16699 30.333 -6.5 45s-11.166 27.667 -20.499 39s-21.333 20.5 -36 27.5s-32.334 10.5 -53.001 10.5c-30 0 -56.833 -5 -80.5 -15s-42.167 -21 -55.5 -33z" />
    <glyph glyph-name="Aogonek" unicode="&#x104;" horiz-adv-x="596" 
d="M557 -2c-14.667 -7.33301 -29.165 -17.167 -43.498 -29.5s-21.5 -26.833 -21.5 -43.5c0 -14.667 5 -25.5 15 -32.5s21.667 -10.5 35 -10.5s25.666 2.66699 36.999 8v-41c-13.333 -5.33301 -29.333 -8 -48 -8c-23.333 0 -43.5 6.33301 -60.5 19s-25.5 31 -25.5 55
c0 18.667 6.16699 35.5 18.5 50.5s26.166 26.5 41.499 34.5zM347.002 660.999c38.667 -110.667 77.166 -220.832 115.499 -330.499s77.166 -219.834 116.499 -330.501h-99l-57 165h-251c-9.33301 -28 -18.666 -55.5 -27.999 -82.5s-18.666 -54.5 -27.999 -82.5h-99l232 661
h98zM200.001 246.001h196l-97 284h-4z" />
    <glyph glyph-name="aogonek" unicode="&#x105;" horiz-adv-x="511" 
d="M433 -2c-7.33301 -3.33301 -14.667 -7.50098 -22 -12.501s-14.333 -10.667 -21 -17s-12 -13.166 -16 -20.499s-6 -15 -6 -23c0 -14.667 5 -25.5 15 -32.5s21.667 -10.5 35 -10.5c14 0 26.333 2.66699 37 8v-41c-13.333 -5.33301 -29.333 -8 -48 -8
c-22.667 0 -42.667 6.33301 -60 19s-26 31 -26 55c0 18.667 6.33301 35.5 19 50.5s26.667 26.5 42 34.5zM365.999 231.999l-112 -0.00195312c-38.667 0 -67.834 -8 -87.501 -24s-29.5 -37 -29.5 -63c0 -9.33301 1.66699 -18.666 5 -27.999s8.83301 -17.666 16.5 -24.999
s17.834 -13.333 30.501 -18s28.334 -7 47.001 -7c16 0 31.833 2.66699 47.5 8s29.667 13 42 23s22.166 22 29.499 36s11 29.667 11 47v51zM67.999 430.997c19.333 18.667 44.832 34.5 76.499 47.5s69.167 19.5 112.5 19.5c28.667 0 55 -4 79 -12s44.667 -20.5 62 -37.5
s31 -39 41 -66s15 -59.167 15 -96.5v-286h-88v59h-5c-17.333 -19.333 -37.833 -34.833 -61.5 -46.5s-51.5 -17.5 -83.5 -17.5c-25.333 0 -48.333 3.66699 -69 11s-38.667 17.5 -54 30.5s-27.166 28.333 -35.499 46s-12.5 36.5 -12.5 56.5c0 54 19.833 94.5 59.5 121.5
s93.5 40.5 161.5 40.5h100c0 15.333 -2.16699 30.333 -6.5 45s-11.166 27.667 -20.499 39s-21.333 20.5 -36 27.5s-32.334 10.5 -53.001 10.5c-30 0 -56.833 -5 -80.5 -15s-42.167 -21 -55.5 -33z" />
    <glyph glyph-name="Cacute" unicode="&#x106;" horiz-adv-x="625" 
d="M592 137c-25.333 -44 -60.1689 -79.001 -104.502 -105.001s-94.166 -39 -149.499 -39c-40 0 -77.667 7.16699 -113 21.5s-66.166 34.333 -92.499 60s-47.166 55.834 -62.499 90.501s-23 72.334 -23 113.001v105c0 40.667 7.66699 78.334 23 113.001
s36.166 64.667 62.499 90s57.166 45.333 92.499 60s73 22 113 22c54.667 0 104.334 -13 149.001 -39s79.667 -61 105 -105l-84 -45c-17.333 30 -40.833 54 -70.5 72s-62.834 27 -99.501 27c-27.333 0 -52.833 -5.16699 -76.5 -15.5s-44.167 -24.333 -61.5 -42
s-31.166 -38.334 -41.499 -62.001s-15.5 -49.167 -15.5 -76.5v-103c0 -27.333 5.16699 -52.833 15.5 -76.5s24.166 -44.334 41.499 -62.001s37.833 -31.667 61.5 -42s49.167 -15.5 76.5 -15.5c36.667 0 69.834 9.16699 99.501 27.5s53.167 42.5 70.5 72.5zM321.997 831.999
h97l-99 -108h-62z" />
    <glyph glyph-name="cacute" unicode="&#x107;" horiz-adv-x="474" 
d="M450 124c-13.333 -37.333 -37.167 -68.165 -71.5 -92.498s-75.833 -36.5 -124.5 -36.5c-29.333 0 -56.666 5 -81.999 15s-47.5 23.5 -66.5 40.5s-33.833 37 -44.5 60s-16 47.5 -16 73.5v118c0 32 6.16699 60.167 18.5 84.5s28.333 44.666 48 60.999s42 28.833 67 37.5
s50.167 13 75.5 13c27.333 0 52 -3.83301 74 -11.5s41 -17.5 57 -29.5s29.5 -25.833 40.5 -41.5s19.167 -31.5 24.5 -47.5l-86 -28c-4 8.66699 -9.16699 17.5 -15.5 26.5s-14.166 17 -23.499 24s-20 12.833 -32 17.5s-25.333 7 -40 7c-14 0 -28 -2.5 -42 -7.5
s-26.833 -12.167 -38.5 -21.5s-21 -21 -28 -35s-10.5 -30 -10.5 -48v-112c0 -15.333 3.16699 -29.833 9.5 -43.5s15 -25.834 26 -36.501s23.667 -19 38 -25s29.5 -9 45.5 -9c25.333 0 47.666 7 66.999 21s33.666 31.667 42.999 53zM237.999 661.001h98l-99 -108h-63z" />
    <glyph glyph-name="Ccircumflex" unicode="&#x108;" horiz-adv-x="625" 
d="M592 137c-25.333 -44 -60.1689 -79.001 -104.502 -105.001s-94.166 -39 -149.499 -39c-40 0 -77.667 7.16699 -113 21.5s-66.166 34.333 -92.499 60s-47.166 55.834 -62.499 90.501s-23 72.334 -23 113.001v105c0 40.667 7.66699 78.334 23 113.001
s36.166 64.667 62.499 90s57.166 45.333 92.499 60s73 22 113 22c54.667 0 104.334 -13 149.001 -39s79.667 -61 105 -105l-84 -45c-17.333 30 -40.833 54 -70.5 72s-62.834 27 -99.501 27c-27.333 0 -52.833 -5.16699 -76.5 -15.5s-44.167 -24.333 -61.5 -42
s-31.166 -38.334 -41.499 -62.001s-15.5 -49.167 -15.5 -76.5v-103c0 -27.333 5.16699 -52.833 15.5 -76.5s24.166 -44.334 41.499 -62.001s37.833 -31.667 61.5 -42s49.167 -15.5 76.5 -15.5c36.667 0 69.834 9.16699 99.501 27.5s53.167 42.5 70.5 72.5zM289.997 824.999
h86l70 -107h-66l-46 70h-4l-44 -70h-66z" />
    <glyph glyph-name="ccircumflex" unicode="&#x109;" horiz-adv-x="474" 
d="M450 124c-13.333 -37.333 -37.167 -68.165 -71.5 -92.498s-75.833 -36.5 -124.5 -36.5c-29.333 0 -56.666 5 -81.999 15s-47.5 23.5 -66.5 40.5s-33.833 37 -44.5 60s-16 47.5 -16 73.5v118c0 32 6.16699 60.167 18.5 84.5s28.333 44.666 48 60.999s42 28.833 67 37.5
s50.167 13 75.5 13c27.333 0 52 -3.83301 74 -11.5s41 -17.5 57 -29.5s29.5 -25.833 40.5 -41.5s19.167 -31.5 24.5 -47.5l-86 -28c-4 8.66699 -9.16699 17.5 -15.5 26.5s-14.166 17 -23.499 24s-20 12.833 -32 17.5s-25.333 7 -40 7c-14 0 -28 -2.5 -42 -7.5
s-26.833 -12.167 -38.5 -21.5s-21 -21 -28 -35s-10.5 -30 -10.5 -48v-112c0 -15.333 3.16699 -29.833 9.5 -43.5s15 -25.834 26 -36.501s23.667 -19 38 -25s29.5 -9 45.5 -9c25.333 0 47.666 7 66.999 21s33.666 31.667 42.999 53zM207.999 661.001h86l70 -107h-66l-46 70
h-4l-44 -70h-66z" />
    <glyph glyph-name="Cdotaccent" unicode="&#x10a;" horiz-adv-x="625" 
d="M592 137c-25.333 -44 -60.1689 -79.001 -104.502 -105.001s-94.166 -39 -149.499 -39c-40 0 -77.667 7.16699 -113 21.5s-66.166 34.333 -92.499 60s-47.166 55.834 -62.499 90.501s-23 72.334 -23 113.001v105c0 40.667 7.66699 78.334 23 113.001
s36.166 64.667 62.499 90s57.166 45.333 92.499 60s73 22 113 22c54.667 0 104.334 -13 149.001 -39s79.667 -61 105 -105l-84 -45c-17.333 30 -40.833 54 -70.5 72s-62.834 27 -99.501 27c-27.333 0 -52.833 -5.16699 -76.5 -15.5s-44.167 -24.333 -61.5 -42
s-31.166 -38.334 -41.499 -62.001s-15.5 -49.167 -15.5 -76.5v-103c0 -27.333 5.16699 -52.833 15.5 -76.5s24.166 -44.334 41.499 -62.001s37.833 -31.667 61.5 -42s49.167 -15.5 76.5 -15.5c36.667 0 69.834 9.16699 99.501 27.5s53.167 42.5 70.5 72.5zM263.997 785.999
c0 14 5.16699 25.667 15.5 35s22.833 14 37.5 14c14 0 26.333 -4.66699 37 -14s16 -21 16 -35s-5.33301 -25.667 -16 -35s-23 -14 -37 -14c-14.667 0 -27.167 4.66699 -37.5 14s-15.5 21 -15.5 35z" />
    <glyph glyph-name="cdotaccent" unicode="&#x10b;" horiz-adv-x="474" 
d="M204 618c0 14 5 25.667 15 35s22.333 14 37 14c14 0 26.333 -4.66699 37 -14s16 -21 16 -35s-5.33301 -25.667 -16 -35s-23 -14 -37 -14c-14.667 0 -27 4.66699 -37 14s-15 21 -15 35zM450 124c-13.333 -37.333 -37.167 -68.165 -71.5 -92.498
s-75.833 -36.5 -124.5 -36.5c-29.333 0 -56.666 5 -81.999 15s-47.5 23.5 -66.5 40.5s-33.833 37 -44.5 60s-16 47.5 -16 73.5v118c0 32 6.16699 60.167 18.5 84.5s28.333 44.666 48 60.999s42 28.833 67 37.5s50.167 13 75.5 13c27.333 0 52 -3.83301 74 -11.5
s41 -17.5 57 -29.5s29.5 -25.833 40.5 -41.5s19.167 -31.5 24.5 -47.5l-86 -28c-4 8.66699 -9.16699 17.5 -15.5 26.5s-14.166 17 -23.499 24s-20 12.833 -32 17.5s-25.333 7 -40 7c-14 0 -28 -2.5 -42 -7.5s-26.833 -12.167 -38.5 -21.5s-21 -21 -28 -35
s-10.5 -30 -10.5 -48v-112c0 -15.333 3.16699 -29.833 9.5 -43.5s15 -25.834 26 -36.501s23.667 -19 38 -25s29.5 -9 45.5 -9c25.333 0 47.666 7 66.999 21s33.666 31.667 42.999 53z" />
    <glyph glyph-name="Ccaron" unicode="&#x10c;" horiz-adv-x="625" 
d="M592 137c-25.333 -44 -60.1689 -79.001 -104.502 -105.001s-94.166 -39 -149.499 -39c-40 0 -77.667 7.16699 -113 21.5s-66.166 34.333 -92.499 60s-47.166 55.834 -62.499 90.501s-23 72.334 -23 113.001v105c0 40.667 7.66699 78.334 23 113.001
s36.166 64.667 62.499 90s57.166 45.333 92.499 60s73 22 113 22c54.667 0 104.334 -13 149.001 -39s79.667 -61 105 -105l-84 -45c-17.333 30 -40.833 54 -70.5 72s-62.834 27 -99.501 27c-27.333 0 -52.833 -5.16699 -76.5 -15.5s-44.167 -24.333 -61.5 -42
s-31.166 -38.334 -41.499 -62.001s-15.5 -49.167 -15.5 -76.5v-103c0 -27.333 5.16699 -52.833 15.5 -76.5s24.166 -44.334 41.499 -62.001s37.833 -31.667 61.5 -42s49.167 -15.5 76.5 -15.5c36.667 0 69.834 9.16699 99.501 27.5s53.167 42.5 70.5 72.5zM224.997 824.999
h66l45 -69h4l45 69h66c-12 -17.333 -23.833 -35 -35.5 -53s-23.167 -36 -34.5 -54h-86z" />
    <glyph glyph-name="ccaron" unicode="&#x10d;" horiz-adv-x="474" 
d="M143 661h65l45 -69h5l45 69h65l-70 -107h-86zM450 124c-13.333 -37.333 -37.167 -68.165 -71.5 -92.498s-75.833 -36.5 -124.5 -36.5c-29.333 0 -56.666 5 -81.999 15s-47.5 23.5 -66.5 40.5s-33.833 37 -44.5 60s-16 47.5 -16 73.5v118c0 32 6.16699 60.167 18.5 84.5
s28.333 44.666 48 60.999s42 28.833 67 37.5s50.167 13 75.5 13c27.333 0 52 -3.83301 74 -11.5s41 -17.5 57 -29.5s29.5 -25.833 40.5 -41.5s19.167 -31.5 24.5 -47.5l-86 -28c-4 8.66699 -9.16699 17.5 -15.5 26.5s-14.166 17 -23.499 24s-20 12.833 -32 17.5
s-25.333 7 -40 7c-14 0 -28 -2.5 -42 -7.5s-26.833 -12.167 -38.5 -21.5s-21 -21 -28 -35s-10.5 -30 -10.5 -48v-112c0 -15.333 3.16699 -29.833 9.5 -43.5s15 -25.834 26 -36.501s23.667 -19 38 -25s29.5 -9 45.5 -9c25.333 0 47.666 7 66.999 21s33.666 31.667 42.999 53z
" />
    <glyph glyph-name="Dcaron" unicode="&#x10e;" horiz-adv-x="644" 
d="M515 378c0 26.667 -5.16699 52.001 -15.5 76.001s-24.333 44.833 -42 62.5s-38.5 31.667 -62.5 42s-49.333 15.5 -76 15.5h-157v-486h157c26.667 0 52 5.16699 76 15.5s44.833 24.166 62.5 41.499s31.667 37.833 42 61.5s15.5 49.167 15.5 76.5v95zM325 661.001
c39.333 0 76.333 -7.49707 111 -22.4971s64.834 -35.333 90.501 -61s46 -55.834 61 -90.501s22.5 -71.334 22.5 -110.001v-92c0 -39.333 -7.5 -76.333 -22.5 -111s-35.333 -64.834 -61 -90.501s-55.834 -46 -90.501 -61s-71.667 -22.5 -111 -22.5h-258v661h258zM209 826.004
h65l45 -69h5l45 69h65c-11.333 -17.333 -22.833 -35 -34.5 -53s-23.167 -36 -34.5 -54h-87z" />
    <glyph glyph-name="dcaron" unicode="&#x10f;" horiz-adv-x="532" 
d="M512 574c7.33301 17.333 13.667 37.999 19 61.999s8 47.333 8 70h73c0 -11.333 -1.5 -23.333 -4.5 -36s-6.5 -25.167 -10.5 -37.5s-8.5 -23.666 -13.5 -33.999s-9.5 -18.5 -13.5 -24.5h-58zM137.001 202.999c0 -17.333 3.16797 -33.332 9.50098 -47.999
s14.833 -27.334 25.5 -38.001s23.167 -19.167 37.5 -25.5s29.833 -9.5 46.5 -9.5s32.334 2.66699 47.001 8s27.5 13 38.5 23s19.667 22.5 26 37.5s9.5 32.167 9.5 51.5v91c0 36.667 -10.5 66 -31.5 88s-50.833 33 -89.5 33c-16.667 0 -32.334 -3.16699 -47.001 -9.5
s-27.334 -15 -38.001 -26s-19 -23.833 -25 -38.5s-9 -30.667 -9 -48v-89zM466.002 705l-0.00195312 -705.001h-89v58h-4c-9.33301 -15.333 -26.166 -29.833 -50.499 -43.5s-52.166 -20.5 -83.499 -20.5c-25.333 0 -49.666 4.83301 -72.999 14.5s-44 23.167 -62 40.5
s-32.333 37.833 -43 61.5s-16 49.5 -16 77.5v117c0 28.667 5.5 55 16.5 79s25.667 44.5 44 61.5s39.166 30.167 62.499 39.5s47 14 71 14c12 0 24.5 -1.33301 37.5 -4s25.5 -6.66699 37.5 -12s23.167 -11.666 33.5 -18.999s18.833 -16 25.5 -26h4v267h89z" />
    <glyph glyph-name="Dcroat" unicode="&#x110;" horiz-adv-x="679" 
d="M351 661c39.333 0 76.333 -7.49805 111 -22.498s64.834 -35.333 90.501 -61s46 -55.834 61 -90.501s22.5 -71.667 22.5 -111v-91c0 -39.333 -7.5 -76.333 -22.5 -111s-35.333 -64.834 -61 -90.501s-55.834 -46 -90.501 -61s-71.667 -22.5 -111 -22.5h-248v293h-55v75h55
v293h248zM263 293.002l-66 -0.000976562v-206h148c26.667 0 52 5.16699 76 15.5s44.833 24.333 62.5 42s31.667 38.334 42 62.001s15.5 49.167 15.5 76.5v95c0 26.667 -5.16699 52 -15.5 76s-24.333 44.833 -42 62.5s-38.5 31.667 -62.5 42s-49.333 15.5 -76 15.5h-148v-206
h66v-75z" />
    <glyph glyph-name="dcroat" unicode="&#x111;" horiz-adv-x="532" 
d="M331 626l46.0049 -0.00292969v79h89v-79h48v-58h-48v-433c-3.33301 -19.333 -11 -37.5 -23 -54.5s-26.833 -31.667 -44.5 -44s-37.334 -22 -59.001 -29s-43.834 -10.5 -66.501 -10.5v11c-4 -5.33301 -9.33301 -8.66602 -16 -9.99902s-13.667 -2 -21 -2
c-24 0 -47.167 4.33301 -69.5 13s-42 21 -59 37s-31 34.833 -42 56.5s-17.167 45.5 -18.5 71.5c-0.666992 8 -1.16699 15.667 -1.5 23s-0.5 15 -0.5 23v85c0 30 5.66699 56.833 17 80.5s26.166 43.834 44.499 60.501s39.333 29.334 63 38.001s47.5 13 71.5 13
c11.333 0 23.166 -1.16699 35.499 -3.5s24.5 -6 36.5 -11s23.167 -11.167 33.5 -18.5s19.166 -16 26.499 -26h4v130h-46v58zM136.005 201.997c0 -16.667 3.16797 -32.332 9.50098 -46.999s15 -27.334 26 -38.001s23.667 -19.167 38 -25.5s29.833 -9.5 46.5 -9.5
s32.334 2.66699 47.001 8s27.334 13 38.001 23s19.167 22.5 25.5 37.5s9.5 32.167 9.5 51.5v91c0 36.667 -10.333 66 -31 88s-50.334 33 -89.001 33c-16.667 0 -32.334 -3.16699 -47.001 -9.5s-27.334 -15 -38.001 -26s-19.167 -23.833 -25.5 -38.5s-9.5 -30.667 -9.5 -48
v-90z" />
    <glyph glyph-name="Emacron" unicode="&#x112;" horiz-adv-x="534" 
d="M168 811h225v-58h-225v58zM162 579v-208h298v-83h-298v-207h327v-81h-422v661h422v-82h-327z" />
    <glyph glyph-name="emacron" unicode="&#x113;" horiz-adv-x="505" 
d="M158 643h225v-57h-225v57zM275 266c29.333 0 52.5 7.33301 69.5 22s25.5 35 25.5 61c0 21.333 -8.16699 39 -24.5 53s-39.5 21 -69.5 21c-18 0 -35.5 -3.33301 -52.5 -10s-32 -16.5 -45 -29.5s-23.5 -29.333 -31.5 -49s-12 -42.5 -12 -68.5h140zM136 196
c0 -21.333 3.66895 -39.998 11.002 -55.998s17.166 -29.333 29.499 -40s26.666 -18.667 42.999 -24s33.5 -8 51.5 -8c25.333 0 50.166 5.66699 74.499 17s42.833 26.333 55.5 45l61 -46c-22.667 -27.333 -49.334 -49.166 -80.001 -65.499s-68 -24.5 -112 -24.5
c-37.333 0 -70.166 5.66699 -98.499 17s-51.833 26.666 -70.5 45.999s-32.667 41.833 -42 67.5s-14 53.167 -14 82.5v66c0 30.667 5.66699 59.667 17 87s27 51.166 47 71.499s43.833 36.333 71.5 48s58.167 17.5 91.5 17.5c30.667 0 57.667 -4.33301 81 -13
s42.833 -19.834 58.5 -33.501s27.334 -29.167 35.001 -46.5s11.5 -35 11.5 -53c0 -20 -4 -39.333 -12 -58s-19.667 -35.167 -35 -49.5s-34 -25.833 -56 -34.5s-47 -13 -75 -13h-144z" />
    <glyph glyph-name="Ebreve" unicode="&#x114;" horiz-adv-x="534" 
d="M287 713c-17.333 0 -33.5039 3 -48.5039 9s-28.333 14.167 -40 24.5s-21.167 22.666 -28.5 36.999s-11.666 29.5 -12.999 45.5h62c2.66699 -16 10.334 -29.333 23.001 -40s27.667 -16 45 -16s32 5.33301 44 16s19.667 24 23 40h63c-2 -16 -6.66699 -31 -14 -45
s-16.666 -26.167 -27.999 -36.5s-24.666 -18.666 -39.999 -24.999s-31.333 -9.5 -48 -9.5zM161.996 579v-208h298v-83h-298v-207h327v-81h-422v661h422v-82h-327z" />
    <glyph glyph-name="ebreve" unicode="&#x115;" horiz-adv-x="503" 
d="M251 545c-17.333 0 -33.502 3.00098 -48.502 9.00098s-28.333 14.167 -40 24.5s-21.167 22.666 -28.5 36.999s-11.666 29.5 -12.999 45.5h63c2.66699 -16 10.167 -29.333 22.5 -40s27.166 -16 44.499 -16s32 5.33301 44 16s19.667 24 23 40h63
c-2 -15.333 -6.66699 -30 -14 -44s-16.666 -26.333 -27.999 -37s-24.666 -19.167 -39.999 -25.5s-31.333 -9.5 -48 -9.5zM274.998 266.001c29.333 0 52.5 7.33301 69.5 22s25.5 35 25.5 61c0 21.333 -8.16699 39 -24.5 53s-39.5 21 -69.5 21c-18 0 -35.5 -3.33301 -52.5 -10
s-32 -16.5 -45 -29.5s-23.5 -29.333 -31.5 -49s-12 -42.5 -12 -68.5h140zM135.998 196.001c0 -21.333 3.66895 -39.998 11.002 -55.998s17.166 -29.333 29.499 -40s26.666 -18.667 42.999 -24s33.5 -8 51.5 -8c25.333 0 50.166 5.66699 74.499 17s42.833 26.333 55.5 45
l61 -46c-22.667 -27.333 -49.334 -49.166 -80.001 -65.499s-68 -24.5 -112 -24.5c-37.333 0 -70.166 5.66699 -98.499 17s-51.833 26.666 -70.5 45.999s-32.667 41.833 -42 67.5s-14 53.167 -14 82.5v66c0 30.667 5.66699 59.667 17 87s27 51.166 47 71.499
s43.833 36.333 71.5 48s58.167 17.5 91.5 17.5c30.667 0 57.667 -4.33301 81 -13s42.833 -19.834 58.5 -33.501s27.334 -29.167 35.001 -46.5s11.5 -35 11.5 -53c0 -20 -4 -39.333 -12 -58s-19.667 -35.167 -35 -49.5s-34 -25.833 -56 -34.5s-47 -13 -75 -13h-144z" />
    <glyph glyph-name="Edotaccent" unicode="&#x116;" horiz-adv-x="534" 
d="M219 786c0 14 5.16699 25.667 15.5 35s22.5 14 36.5 14c14.667 0 27.334 -4.66699 38.001 -14s16 -21 16 -35s-5.33301 -25.667 -16 -35s-23.334 -14 -38.001 -14c-14 0 -26.167 4.66699 -36.5 14s-15.5 21 -15.5 35zM162 579v-208h298v-83h-298v-207h327v-81h-422v661
h422v-82h-327z" />
    <glyph glyph-name="edotaccent" unicode="&#x117;" horiz-adv-x="503" 
d="M216 618c0 14 5 25.667 15 35s22.333 14 37 14s27.167 -4.66699 37.5 -14s15.5 -21 15.5 -35s-5.16699 -25.667 -15.5 -35s-22.833 -14 -37.5 -14s-27 4.66699 -37 14s-15 21 -15 35zM275 266c29.333 0 52.5 7.33301 69.5 22s25.5 35 25.5 61
c0 21.333 -8.16699 39 -24.5 53s-39.5 21 -69.5 21c-18 0 -35.5 -3.33301 -52.5 -10s-32 -16.5 -45 -29.5s-23.5 -29.333 -31.5 -49s-12 -42.5 -12 -68.5h140zM136 196c0 -21.333 3.66895 -39.998 11.002 -55.998s17.166 -29.333 29.499 -40s26.666 -18.667 42.999 -24
s33.5 -8 51.5 -8c25.333 0 50.166 5.66699 74.499 17s42.833 26.333 55.5 45l61 -46c-22.667 -27.333 -49.334 -49.166 -80.001 -65.499s-68 -24.5 -112 -24.5c-37.333 0 -70.166 5.66699 -98.499 17s-51.833 26.666 -70.5 45.999s-32.667 41.833 -42 67.5
s-14 53.167 -14 82.5v66c0 30.667 5.66699 59.667 17 87s27 51.166 47 71.499s43.833 36.333 71.5 48s58.167 17.5 91.5 17.5c30.667 0 57.667 -4.33301 81 -13s42.833 -19.834 58.5 -33.501s27.334 -29.167 35.001 -46.5s11.5 -35 11.5 -53c0 -20 -4 -39.333 -12 -58
s-19.667 -35.167 -35 -49.5s-34 -25.833 -56 -34.5s-47 -13 -75 -13h-144z" />
    <glyph glyph-name="Eogonek" unicode="&#x118;" horiz-adv-x="534" 
d="M458 -2c-7.33301 -3.33301 -14.8311 -7.50098 -22.498 -12.501s-14.834 -10.667 -21.501 -17s-12 -13.166 -16 -20.499s-6 -15 -6 -23c0 -14.667 5.16699 -25.5 15.5 -32.5s22.166 -10.5 35.499 -10.5s25.333 2.66699 36 8v-41c-12.667 -5.33301 -28.334 -8 -47.001 -8
c-23.333 0 -43.666 6.33301 -60.999 19s-26 31 -26 55c0 18.667 6.33301 35.5 19 50.5s26.667 26.5 42 34.5zM162.002 578.999v-208h298v-83h-298v-207h327v-81h-422v661h422v-82h-327z" />
    <glyph glyph-name="eogonek" unicode="&#x119;" horiz-adv-x="503" 
d="M433 -2c-7.33301 -3.33301 -14.667 -7.50098 -22 -12.501s-14.333 -10.667 -21 -17s-12 -13.166 -16 -20.499s-6 -15 -6 -23c0 -14.667 5 -25.5 15 -32.5s21.667 -10.5 35 -10.5c14 0 26.333 2.66699 37 8v-41c-13.333 -5.33301 -29.333 -8 -48 -8
c-22.667 0 -42.667 6.33301 -60 19s-26 31 -26 55c0 18.667 6.33301 35.5 19 50.5s26.667 26.5 42 34.5zM274.999 265.999c29.333 0 52.5 7.33301 69.5 22s25.5 35 25.5 61c0 21.333 -8.16699 39 -24.5 53s-39.5 21 -69.5 21c-18 0 -35.5 -3.33301 -52.5 -10
s-32 -16.5 -45 -29.5s-23.5 -29.333 -31.5 -49s-12 -42.5 -12 -68.5h140zM135.999 195.999c0 -21.333 3.66895 -39.998 11.002 -55.998s17.166 -29.333 29.499 -40s26.666 -18.667 42.999 -24s33.5 -8 51.5 -8c25.333 0 50.166 5.66699 74.499 17s42.833 26.333 55.5 45
l61 -46c-22.667 -27.333 -49.334 -49.166 -80.001 -65.499s-68 -24.5 -112 -24.5c-37.333 0 -70.166 5.66699 -98.499 17s-51.833 26.666 -70.5 45.999s-32.667 41.833 -42 67.5s-14 53.167 -14 82.5v66c0 30.667 5.66699 59.667 17 87s27 51.166 47 71.499
s43.833 36.333 71.5 48s58.167 17.5 91.5 17.5c30.667 0 57.667 -4.33301 81 -13s42.833 -19.834 58.5 -33.501s27.334 -29.167 35.001 -46.5s11.5 -35 11.5 -53c0 -20 -4 -39.333 -12 -58s-19.667 -35.167 -35 -49.5s-34 -25.833 -56 -34.5s-47 -13 -75 -13h-144z" />
    <glyph glyph-name="Ecaron" unicode="&#x11a;" horiz-adv-x="534" 
d="M173 826h65l46 -69h4l45 69h65c-11.333 -17.333 -22.833 -35 -34.5 -53s-23.167 -36 -34.5 -54h-86zM162 579v-208h298v-83h-298v-207h327v-81h-422v661h422v-82h-327z" />
    <glyph glyph-name="ecaron" unicode="&#x11b;" horiz-adv-x="503" 
d="M155 661h65l45 -69h5l45 69h65l-69 -107h-87zM275 266c29.333 0 52.5 7.33301 69.5 22s25.5 35 25.5 61c0 21.333 -8.16699 39 -24.5 53s-39.5 21 -69.5 21c-18 0 -35.5 -3.33301 -52.5 -10s-32 -16.5 -45 -29.5s-23.5 -29.333 -31.5 -49s-12 -42.5 -12 -68.5h140z
M136 196c0 -21.333 3.66895 -39.998 11.002 -55.998s17.166 -29.333 29.499 -40s26.666 -18.667 42.999 -24s33.5 -8 51.5 -8c25.333 0 50.166 5.66699 74.499 17s42.833 26.333 55.5 45l61 -46c-22.667 -27.333 -49.334 -49.166 -80.001 -65.499s-68 -24.5 -112 -24.5
c-37.333 0 -70.166 5.66699 -98.499 17s-51.833 26.666 -70.5 45.999s-32.667 41.833 -42 67.5s-14 53.167 -14 82.5v66c0 30.667 5.66699 59.667 17 87s27 51.166 47 71.499s43.833 36.333 71.5 48s58.167 17.5 91.5 17.5c30.667 0 57.667 -4.33301 81 -13
s42.833 -19.834 58.5 -33.501s27.334 -29.167 35.001 -46.5s11.5 -35 11.5 -53c0 -20 -4 -39.333 -12 -58s-19.667 -35.167 -35 -49.5s-34 -25.833 -56 -34.5s-47 -13 -75 -13h-144z" />
    <glyph glyph-name="Gcircumflex" unicode="&#x11c;" horiz-adv-x="656" 
d="M520 285l-231 0.00195312v83h330v-52c0 -9.33301 -0.166992 -18.333 -0.5 -27s-0.833008 -17.334 -1.5 -26.001c-2 -38 -11 -73.5 -27 -106.5s-37 -61.5 -63 -85.5s-56 -42.833 -90 -56.5s-70.333 -20.5 -109 -20.5c-40.667 0 -78.667 7.16699 -114 21.5
s-66.166 34.166 -92.499 59.499s-47 55.333 -62 90s-22.5 72.334 -22.5 113.001v104c0 40.667 7.5 78.5 22.5 113.5s35.667 65.167 62 90.5s57.166 45.333 92.499 60s73.333 22 114 22c54.667 0 104.334 -13 149.001 -39s79.667 -61 105 -105
c-14.667 -7.33301 -28.834 -15 -42.501 -23s-27.5 -15.667 -41.5 -23c-16.667 30 -40 54.167 -70 72.5s-63.333 27.5 -100 27.5c-27.333 0 -52.833 -5.16699 -76.5 -15.5s-44.334 -24.333 -62.001 -42s-31.667 -38.5 -42 -62.5s-15.5 -49.333 -15.5 -76v-103
c0 -26.667 5.16699 -51.834 15.5 -75.501s24.333 -44.5 42 -62.5s38.334 -32.167 62.001 -42.5s49.167 -15.5 76.5 -15.5s52.833 5 76.5 15s44 23.333 61 40s30.333 36 40 58s14.5 45 14.5 69v20zM285 826.002h86l70 -107h-66l-46 70h-4l-44 -70h-66z" />
    <glyph glyph-name="gcircumflex" unicode="&#x11d;" horiz-adv-x="528" 
d="M378 199l-0.000976562 90.001c0 42.667 -11.667 74.167 -35 94.5s-51.666 30.5 -84.999 30.5c-16.667 0 -32.334 -2.66699 -47.001 -8s-27.5 -13.333 -38.5 -24s-19.667 -23.5 -26 -38.5s-9.5 -32.5 -9.5 -52.5v-92c0 -17.333 3.16699 -33.333 9.5 -48
s15 -27.334 26 -38.001s23.833 -19.167 38.5 -25.5s30.334 -9.5 47.001 -9.5c38 0 67.5 11 88.5 33s31.5 51.333 31.5 88zM464.999 492.001l-0.00195312 -459c0 -26.667 -4.83301 -52.167 -14.5 -76.5s-23.5 -45.666 -41.5 -63.999s-39.667 -32.833 -65 -43.5
s-53.666 -16 -84.999 -16c-34.667 0 -67.5 5.33301 -98.5 16s-57.167 27.667 -78.5 51l49 56c5.33301 -5.33301 11.5 -10.666 18.5 -15.999s15.333 -10.333 25 -15s20.834 -8.33398 33.501 -11.001s27.667 -4 45 -4c18 0 34.5 3 49.5 9s28 14.167 39 24.5
s19.667 22.5 26 36.5s9.5 29 9.5 45v32h-4c-11.333 -16.667 -28 -30.334 -50 -41.001s-46 -16 -72 -16c-27.333 0 -53.333 4.33301 -78 13s-46.167 21.334 -64.5 38.001s-33 37 -44 61s-16.5 51 -16.5 81v112c0 31.333 5.33301 59 16 83s25 44.167 43 60.5
s38.833 28.666 62.5 36.999s48.5 12.5 74.5 12.5c31.333 0 58.333 -6.83301 81 -20.5s39 -29.167 49 -46.5h4v61h87zM228.997 661.001h86l70 -107h-66l-46 70h-4l-44 -70h-66z" />
    <glyph glyph-name="Gbreve" unicode="&#x11e;" horiz-adv-x="656" 
d="M520 285l-231 0.00195312v83h330v-52c0 -9.33301 -0.166992 -18.333 -0.5 -27s-0.833008 -17.334 -1.5 -26.001c-2 -38 -11 -73.5 -27 -106.5s-37 -61.5 -63 -85.5s-56 -42.833 -90 -56.5s-70.333 -20.5 -109 -20.5c-40.667 0 -78.667 7.16699 -114 21.5
s-66.166 34.166 -92.499 59.499s-47 55.333 -62 90s-22.5 72.334 -22.5 113.001v104c0 40.667 7.5 78.5 22.5 113.5s35.667 65.167 62 90.5s57.166 45.333 92.499 60s73.333 22 114 22c54.667 0 104.334 -13 149.001 -39s79.667 -61 105 -105
c-14.667 -7.33301 -28.834 -15 -42.501 -23s-27.5 -15.667 -41.5 -23c-16.667 30 -40 54.167 -70 72.5s-63.333 27.5 -100 27.5c-27.333 0 -52.833 -5.16699 -76.5 -15.5s-44.334 -24.333 -62.001 -42s-31.667 -38.5 -42 -62.5s-15.5 -49.333 -15.5 -76v-103
c0 -26.667 5.16699 -51.834 15.5 -75.501s24.333 -44.5 42 -62.5s38.334 -32.167 62.001 -42.5s49.167 -15.5 76.5 -15.5s52.833 5 76.5 15s44 23.333 61 40s30.333 36 40 58s14.5 45 14.5 69v20zM327 713.002c-17.333 0 -33.5039 3 -48.5039 9s-28.333 14.167 -40 24.5
s-21.167 22.666 -28.5 36.999s-11.666 29.5 -12.999 45.5h62c2.66699 -16 10.334 -29.333 23.001 -40s27.667 -16 45 -16s32 5.33301 44 16s19.667 24 23 40h63c-2 -16 -6.66699 -31 -14 -45s-16.666 -26.167 -27.999 -36.5s-24.666 -18.666 -39.999 -24.999
s-31.333 -9.5 -48 -9.5z" />
    <glyph glyph-name="gbreve" unicode="&#x11f;" horiz-adv-x="528" 
d="M274 545c-17.333 0 -33.5039 3.00098 -48.5039 9.00098s-28.333 14.167 -40 24.5s-21.167 22.666 -28.5 36.999s-11.666 29.5 -12.999 45.5h62c2.66699 -16 10.334 -29.333 23.001 -40s27.667 -16 45 -16s32 5.33301 44 16s19.667 24 23 40h63
c-2 -15.333 -6.66699 -30 -14 -44s-16.666 -26.333 -27.999 -37s-24.666 -19.167 -39.999 -25.5s-31.333 -9.5 -48 -9.5zM377.996 199.001l-0.000976562 90.001c0 42.667 -11.667 74.167 -35 94.5s-51.666 30.5 -84.999 30.5c-16.667 0 -32.334 -2.66699 -47.001 -8
s-27.5 -13.333 -38.5 -24s-19.667 -23.5 -26 -38.5s-9.5 -32.5 -9.5 -52.5v-92c0 -17.333 3.16699 -33.333 9.5 -48s15 -27.334 26 -38.001s23.833 -19.167 38.5 -25.5s30.334 -9.5 47.001 -9.5c38 0 67.5 11 88.5 33s31.5 51.333 31.5 88zM464.995 492.002
l-0.00195312 -459c0 -26.667 -4.83301 -52.167 -14.5 -76.5s-23.5 -45.666 -41.5 -63.999s-39.667 -32.833 -65 -43.5s-53.666 -16 -84.999 -16c-34.667 0 -67.5 5.33301 -98.5 16s-57.167 27.667 -78.5 51l49 56c5.33301 -5.33301 11.5 -10.666 18.5 -15.999
s15.333 -10.333 25 -15s20.834 -8.33398 33.501 -11.001s27.667 -4 45 -4c18 0 34.5 3 49.5 9s28 14.167 39 24.5s19.667 22.5 26 36.5s9.5 29 9.5 45v32h-4c-11.333 -16.667 -28 -30.334 -50 -41.001s-46 -16 -72 -16c-27.333 0 -53.333 4.33301 -78 13
s-46.167 21.334 -64.5 38.001s-33 37 -44 61s-16.5 51 -16.5 81v112c0 31.333 5.33301 59 16 83s25 44.167 43 60.5s38.833 28.666 62.5 36.999s48.5 12.5 74.5 12.5c31.333 0 58.333 -6.83301 81 -20.5s39 -29.167 49 -46.5h4v61h87z" />
    <glyph glyph-name="Gdotaccent" unicode="&#x120;" horiz-adv-x="656" 
d="M520 285l-231 0.00195312v83h330v-52c0 -9.33301 -0.166992 -18.333 -0.5 -27s-0.833008 -17.334 -1.5 -26.001c-2 -38 -11 -73.5 -27 -106.5s-37 -61.5 -63 -85.5s-56 -42.833 -90 -56.5s-70.333 -20.5 -109 -20.5c-40.667 0 -78.667 7.16699 -114 21.5
s-66.166 34.166 -92.499 59.499s-47 55.333 -62 90s-22.5 72.334 -22.5 113.001v104c0 40.667 7.5 78.5 22.5 113.5s35.667 65.167 62 90.5s57.166 45.333 92.499 60s73.333 22 114 22c54.667 0 104.334 -13 149.001 -39s79.667 -61 105 -105
c-14.667 -7.33301 -28.834 -15 -42.501 -23s-27.5 -15.667 -41.5 -23c-16.667 30 -40 54.167 -70 72.5s-63.333 27.5 -100 27.5c-27.333 0 -52.833 -5.16699 -76.5 -15.5s-44.334 -24.333 -62.001 -42s-31.667 -38.5 -42 -62.5s-15.5 -49.333 -15.5 -76v-103
c0 -26.667 5.16699 -51.834 15.5 -75.501s24.333 -44.5 42 -62.5s38.334 -32.167 62.001 -42.5s49.167 -15.5 76.5 -15.5s52.833 5 76.5 15s44 23.333 61 40s30.333 36 40 58s14.5 45 14.5 69v20zM276 786.002c0 14 5 25.667 15 35s22.333 14 37 14
s27.167 -4.66699 37.5 -14s15.5 -21 15.5 -35s-5.16699 -25.667 -15.5 -35s-22.833 -14 -37.5 -14s-27 4.66699 -37 14s-15 21 -15 35z" />
    <glyph glyph-name="gdotaccent" unicode="&#x121;" horiz-adv-x="528" 
d="M220 618c0 14 5.16699 25.667 15.5 35s22.5 14 36.5 14c14.667 0 27.167 -4.66699 37.5 -14s15.5 -21 15.5 -35s-5.16699 -25.667 -15.5 -35s-22.833 -14 -37.5 -14c-14 0 -26.167 4.66699 -36.5 14s-15.5 21 -15.5 35zM378 199l-0.000976562 90.001
c0 42.667 -11.667 74.167 -35 94.5s-51.666 30.5 -84.999 30.5c-16.667 0 -32.334 -2.66699 -47.001 -8s-27.5 -13.333 -38.5 -24s-19.667 -23.5 -26 -38.5s-9.5 -32.5 -9.5 -52.5v-92c0 -17.333 3.16699 -33.333 9.5 -48s15 -27.334 26 -38.001s23.833 -19.167 38.5 -25.5
s30.334 -9.5 47.001 -9.5c38 0 67.5 11 88.5 33s31.5 51.333 31.5 88zM464.999 492.001l-0.00195312 -459c0 -26.667 -4.83301 -52.167 -14.5 -76.5s-23.5 -45.666 -41.5 -63.999s-39.667 -32.833 -65 -43.5s-53.666 -16 -84.999 -16c-34.667 0 -67.5 5.33301 -98.5 16
s-57.167 27.667 -78.5 51l49 56c5.33301 -5.33301 11.5 -10.666 18.5 -15.999s15.333 -10.333 25 -15s20.834 -8.33398 33.501 -11.001s27.667 -4 45 -4c18 0 34.5 3 49.5 9s28 14.167 39 24.5s19.667 22.5 26 36.5s9.5 29 9.5 45v32h-4
c-11.333 -16.667 -28 -30.334 -50 -41.001s-46 -16 -72 -16c-27.333 0 -53.333 4.33301 -78 13s-46.167 21.334 -64.5 38.001s-33 37 -44 61s-16.5 51 -16.5 81v112c0 31.333 5.33301 59 16 83s25 44.167 43 60.5s38.833 28.666 62.5 36.999s48.5 12.5 74.5 12.5
c31.333 0 58.333 -6.83301 81 -20.5s39 -29.167 49 -46.5h4v61h87z" />
    <glyph glyph-name="Gcommaaccent" unicode="&#x122;" horiz-adv-x="656" 
d="M520 285l-231 0.00195312v83h330v-52c0 -9.33301 -0.166992 -18.333 -0.5 -27s-0.833008 -17.334 -1.5 -26.001c-2 -38 -11 -73.5 -27 -106.5s-37 -61.5 -63 -85.5s-56 -42.833 -90 -56.5s-70.333 -20.5 -109 -20.5c-40.667 0 -78.667 7.16699 -114 21.5
s-66.166 34.166 -92.499 59.499s-47 55.333 -62 90s-22.5 72.334 -22.5 113.001v104c0 40.667 7.5 78.5 22.5 113.5s35.667 65.167 62 90.5s57.166 45.333 92.499 60s73.333 22 114 22c54.667 0 104.334 -13 149.001 -39s79.667 -61 105 -105
c-14.667 -7.33301 -28.834 -15 -42.501 -23s-27.5 -15.667 -41.5 -23c-16.667 30 -40 54.167 -70 72.5s-63.333 27.5 -100 27.5c-27.333 0 -52.833 -5.16699 -76.5 -15.5s-44.334 -24.333 -62.001 -42s-31.667 -38.5 -42 -62.5s-15.5 -49.333 -15.5 -76v-103
c0 -26.667 5.16699 -51.834 15.5 -75.501s24.333 -44.5 42 -62.5s38.334 -32.167 62.001 -42.5s49.167 -15.5 76.5 -15.5s52.833 5 76.5 15s44 23.333 61 40s30.333 36 40 58s14.5 45 14.5 69v20zM358 -134.998l-78 -36l21 139h74z" />
    <glyph glyph-name="gcommaaccent" unicode="&#x123;" horiz-adv-x="528" 
d="M312 591l-77.999 -37c4 23.333 7.66699 46.5 11 69.5s6.66602 46.167 9.99902 69.5h74zM378.001 199l-0.000976562 90.001c0 42.667 -11.667 74.167 -35 94.5s-51.666 30.5 -84.999 30.5c-16.667 0 -32.334 -2.66699 -47.001 -8s-27.5 -13.333 -38.5 -24
s-19.667 -23.5 -26 -38.5s-9.5 -32.5 -9.5 -52.5v-92c0 -17.333 3.16699 -33.333 9.5 -48s15 -27.334 26 -38.001s23.833 -19.167 38.5 -25.5s30.334 -9.5 47.001 -9.5c38 0 67.5 11 88.5 33s31.5 51.333 31.5 88zM465 492.001l-0.00195312 -459
c0 -26.667 -4.83301 -52.167 -14.5 -76.5s-23.5 -45.666 -41.5 -63.999s-39.667 -32.833 -65 -43.5s-53.666 -16 -84.999 -16c-34.667 0 -67.5 5.33301 -98.5 16s-57.167 27.667 -78.5 51l49 56c5.33301 -5.33301 11.5 -10.666 18.5 -15.999s15.333 -10.333 25 -15
s20.834 -8.33398 33.501 -11.001s27.667 -4 45 -4c18 0 34.5 3 49.5 9s28 14.167 39 24.5s19.667 22.5 26 36.5s9.5 29 9.5 45v32h-4c-11.333 -16.667 -28 -30.334 -50 -41.001s-46 -16 -72 -16c-27.333 0 -53.333 4.33301 -78 13s-46.167 21.334 -64.5 38.001
s-33 37 -44 61s-16.5 51 -16.5 81v112c0 31.333 5.33301 59 16 83s25 44.167 43 60.5s38.833 28.666 62.5 36.999s48.5 12.5 74.5 12.5c31.333 0 58.333 -6.83301 81 -20.5s39 -29.167 49 -46.5h4v61h87z" />
    <glyph glyph-name="Hcircumflex" unicode="&#x124;" horiz-adv-x="633" 
d="M285 826h86l70 -107h-66l-46 70h-4l-44 -70h-66zM492 661h94v-661h-94v287h-330v-287h-95v661h95v-286h330v286z" />
    <glyph glyph-name="hcircumflex" unicode="&#x125;" horiz-adv-x="540" 
d="M159 432c13.333 23.333 32.1689 39.833 56.502 49.5s50.5 14.5 78.5 14.5c26.667 0 51.5 -4 74.5 -12s42.833 -20 59.5 -36s29.667 -35.667 39 -59s14 -50.333 14 -81v-308h-89v303c0 15.333 -2.83301 29.833 -8.5 43.5s-13.5 25.667 -23.5 36s-21.833 18.5 -35.5 24.5
s-28.834 9 -45.501 9s-32.5 -2.33301 -47.5 -7s-28.333 -11.5 -40 -20.5s-20.834 -20.667 -27.501 -35s-10 -30.833 -10 -49.5v-304h-89v705h90v-273h4zM258.003 661h86l70 -107h-66l-46 70h-4l-44 -70h-66z" />
    <glyph glyph-name="Hbar" unicode="&#x126;" horiz-adv-x="633" 
d="M33 534h34v127h95v-127h309v127h94v-127h34v-51h-34v-483h-94v287h-309v-287h-95v483h-34v51zM471 483h-309v-108h309v108z" />
    <glyph glyph-name="hbar" unicode="&#x127;" horiz-adv-x="540" 
d="M159 432c13.333 23.333 32.1689 39.833 56.502 49.5s50.5 14.5 78.5 14.5c26.667 0 51.5 -4 74.5 -12s42.833 -20 59.5 -36s29.667 -35.667 39 -59s14 -50.333 14 -81v-308h-89v303c0 15.333 -2.83301 29.833 -8.5 43.5s-13.5 25.667 -23.5 36s-21.833 18.5 -35.5 24.5
s-28.834 9 -45.501 9s-32.5 -2.33301 -47.5 -7s-28.333 -11.5 -40 -20.5s-20.834 -20.667 -27.501 -35s-10 -30.833 -10 -49.5v-304h-89v546h-49v51h49v108h90v-108h48v-51h-48v-114h4z" />
    <glyph glyph-name="Itilde" unicode="&#x128;" horiz-adv-x="230" 
d="M67 661h95v-661h-95v661zM179 737c-14 0 -27 1.83203 -39 5.49902s-23.5 7.66699 -34.5 12s-21.333 8.33301 -31 12s-19.167 5.5 -28.5 5.5s-16.666 -3.16699 -21.999 -9.5s-9.33301 -13.166 -12 -20.499h-57c2 27.333 11.667 49.5 29 66.5s41 25.5 71 25.5
c11.333 0 22.5 -1.83301 33.5 -5.5s21.833 -7.5 32.5 -11.5s21.167 -7.83301 31.5 -11.5s20.166 -5.5 29.499 -5.5c11.333 0 19.666 2.66699 24.999 8s9 12.666 11 21.999h59c-1.33301 -11.333 -4.5 -22.666 -9.5 -33.999s-11.667 -21.333 -20 -30
s-18.166 -15.667 -29.499 -21s-24.333 -8 -39 -8z" />
    <glyph glyph-name="itilde" unicode="&#x129;" horiz-adv-x="249" 
d="M171 569c-13.333 0 -26 1.83203 -38 5.49902s-23.5 7.66699 -34.5 12s-21.5 8.33301 -31.5 12s-19.667 5.5 -29 5.5s-16.666 -3.16699 -21.999 -9.5s-9.33301 -13.166 -12 -20.499h-57c2 27.333 11.667 49.5 29 66.5s41 25.5 71 25.5c11.333 0 22.5 -1.83301 33.5 -5.5
s21.833 -7.5 32.5 -11.5s21.167 -7.83301 31.5 -11.5s20.166 -5.5 29.499 -5.5c11.333 0 19.666 2.66699 24.999 8s9.33301 12.666 12 21.999h58c-1.33301 -11.333 -4.5 -22.666 -9.5 -33.999s-11.667 -21.333 -20 -30s-18.166 -15.667 -29.499 -21s-24.333 -8 -39 -8z
M141 134.999c0 -15.333 4.99902 -29.168 14.999 -41.501s26.667 -18.5 50 -18.5h25v-75h-40c-31.333 0 -56.166 4.83301 -74.499 14.5s-32.333 22.834 -42 39.501s-16 35.667 -19 57s-4.5 44 -4.5 68v313h90v-357z" />
    <glyph glyph-name="imacron" unicode="&#x12b;" horiz-adv-x="249" 
d="M-15 643h225v-57h-225v57zM141 135c0 -15.333 4.99902 -29.168 14.999 -41.501s26.667 -18.5 50 -18.5h25v-75h-40c-31.333 0 -56.166 4.83301 -74.499 14.5s-32.333 22.834 -42 39.501s-16 35.667 -19 57s-4.5 44 -4.5 68v313h90v-357z" />
    <glyph glyph-name="Ibreve" unicode="&#x12c;" horiz-adv-x="230" 
d="M67 661h95v-661h-95v661zM114 713c-17.333 0 -33.5029 3 -48.5029 9s-28.333 14.167 -40 24.5s-21.167 22.666 -28.5 36.999s-12 29.5 -14 45.5h63c2.66699 -16 10.334 -29.333 23.001 -40s27.667 -16 45 -16s32 5.33301 44 16s19.667 24 23 40h63
c-2 -16 -6.66699 -31 -14 -45s-16.666 -26.167 -27.999 -36.5s-24.666 -18.666 -39.999 -24.999s-31.333 -9.5 -48 -9.5z" />
    <glyph glyph-name="Iogonek" unicode="&#x12e;" horiz-adv-x="230" 
d="M67 661h95v-661h-95v661zM159 -2c-14.667 -7.33301 -29.167 -17.167 -43.5 -29.5s-21.5 -26.833 -21.5 -43.5c0 -14.667 5 -25.5 15 -32.5s21.667 -10.5 35 -10.5c14 0 26.333 2.66699 37 8v-41c-13.333 -5.33301 -29.333 -8 -48 -8c-22.667 0 -42.667 6.33301 -60 19
s-26 31 -26 55c0 18.667 6.33301 35.5 19 50.5s26.667 26.5 42 34.5z" />
    <glyph glyph-name="iogonek" unicode="&#x12f;" horiz-adv-x="243" 
d="M243 -2c-7.33301 -3.33301 -14.8311 -7.50098 -22.498 -12.501s-14.834 -10.667 -21.501 -17s-12 -13.166 -16 -20.499s-6 -15 -6 -23c0 -14.667 5.16699 -25.5 15.5 -32.5s22.166 -10.5 35.499 -10.5s25.333 2.66699 36 8v-41c-12.667 -5.33301 -28.334 -8 -47.001 -8
c-23.333 0 -43.666 6.33301 -60.999 19s-26 31 -26 55c0 18.667 6.33301 35.5 19 50.5s26.667 26.5 42 34.5zM58.002 617.999c0 14 5.16699 25.667 15.5 35s22.5 14 36.5 14c14.667 0 27.334 -4.66699 38.001 -14s16 -21 16 -35s-5.33301 -25.667 -16 -35
s-23.334 -14 -38.001 -14c-14 0 -26.167 4.66699 -36.5 14s-15.5 21 -15.5 35zM141.002 134.999c0 -15.333 4.99902 -29.168 14.999 -41.501s26.667 -18.5 50 -18.5h25v-75h-40c-31.333 0 -56.166 4.83301 -74.499 14.5s-32.333 22.834 -42 39.501s-16 35.667 -19 57
s-4.5 44 -4.5 68v313h90v-357z" />
    <glyph glyph-name="Idotaccent" unicode="&#x130;" horiz-adv-x="230" 
d="M67 661h95v-661h-95v661zM62 786c0 14 5 25.667 15 35s22.333 14 37 14s27.167 -4.66699 37.5 -14s15.5 -21 15.5 -35s-5.16699 -25.667 -15.5 -35s-22.833 -14 -37.5 -14s-27 4.66699 -37 14s-15 21 -15 35z" />
    <glyph glyph-name="dotlessi" unicode="&#x131;" horiz-adv-x="249" 
d="M141 135c0 -15.333 4.99902 -29.168 14.999 -41.501s26.667 -18.5 50 -18.5h25v-75h-40c-31.333 0 -56.166 4.83301 -74.499 14.5s-32.333 22.834 -42 39.501s-16 35.667 -19 57s-4.5 44 -4.5 68v313h90v-357z" />
    <glyph glyph-name="IJ" unicode="&#x132;" horiz-adv-x="545" 
d="M67 661h95v-661h-95v661zM217 83c5.33301 -1.33301 10.501 -2.33301 15.501 -3s10.167 -1 15.5 -1c20.667 0 39.834 3.66699 57.501 11s33 17.5 46 30.5s23.167 28.5 30.5 46.5s11 37.667 11 59v435h95v-443c0 -32 -6 -61.833 -18 -89.5s-28.333 -51.667 -49 -72
s-45.334 -36.5 -74.001 -48.5s-59.334 -18 -92.001 -18c-20 0 -38.333 2 -55 6z" />
    <glyph glyph-name="ij" unicode="&#x133;" horiz-adv-x="442" 
d="M143 135c0 -15.333 5.00098 -29.167 15.001 -41.5s26.667 -18.5 50 -18.5h25v-75h-41c-44 0 -77.333 11 -100 33s-35.334 49.667 -38.001 83c-0.666992 10.667 -1 21 -1 31v32v313h90v-357zM280.001 491.999h89v-476c0 -60.667 -11.333 -105.667 -34 -135
s-59 -44 -109 -44h-24v74h11c24.667 0 42 6.83301 52 20.5s15 28.167 15 43.5v517zM273.001 617.999c0 14 5.16699 25.667 15.5 35s22.5 14 36.5 14c14.667 0 27.167 -4.66699 37.5 -14s15.5 -21 15.5 -35s-5.16699 -25.667 -15.5 -35s-22.833 -14 -37.5 -14
c-14 0 -26.167 4.66699 -36.5 14s-15.5 21 -15.5 35zM43.001 617.999c0 14 5 25.667 15 35s22.333 14 37 14s27.167 -4.66699 37.5 -14s15.5 -21 15.5 -35s-5.16699 -25.667 -15.5 -35s-22.833 -14 -37.5 -14s-27 4.66699 -37 14s-15 21 -15 35z" />
    <glyph glyph-name="Jcircumflex" unicode="&#x134;" horiz-adv-x="359" 
d="M31 83c8.66699 -2.66699 19.001 -4 31.001 -4c20.667 0 39.834 3.66699 57.501 11s33 17.5 46 30.5s23.167 28.5 30.5 46.5s11 37.667 11 59v435h95v-443c0 -32 -6 -61.833 -18 -89.5s-28.333 -51.667 -49 -72s-45.334 -36.5 -74.001 -48.5s-59.334 -18 -92.001 -18
c-20 0 -38.333 2 -55 6zM211.001 826h86l70 -107h-66l-46 70h-4l-44 -70h-66z" />
    <glyph glyph-name="jcircumflex" unicode="&#x135;" horiz-adv-x="239" 
d="M88 492h89v-476c0 -9.33301 -0.166992 -19 -0.5 -29s-0.833008 -20.333 -1.5 -31c-1.33301 -16 -5.16602 -31.167 -11.499 -45.5s-15.5 -27 -27.5 -38s-26.5 -19.667 -43.5 -26s-36.5 -9.5 -58.5 -9.5h-24v74h11c12 0 22.333 2 31 6s15.667 9 21 15
s9.16602 12.833 11.499 20.5s3.5 15.167 3.5 22.5v517zM89 661h86l70 -107h-66l-46 70h-4l-44 -70h-66z" />
    <glyph glyph-name="Kcommaaccent" unicode="&#x136;" horiz-adv-x="567" 
d="M299 355l248 -355h-114l-205 294l-69 -84v-210h-95v661h95v-329l4 -1l261 330h119zM308 -135l-78 -36l21 139h74z" />
    <glyph glyph-name="kcommaaccent" unicode="&#x137;" horiz-adv-x="492" 
d="M244 245l-3 1l-90 -93v-153h-88v705h88v-441l3 -1l207 229h113l-170 -185l179 -307h-103zM284 -135l-78 -36l21 139h74z" />
    <glyph glyph-name="kgreenlandic" unicode="&#x138;" horiz-adv-x="492" 
d="M379 0l-145 236l-3 1l-80 -84v-153h-89v492h89v-228l3 -1l207 229h112l-180 -194l190 -298h-104z" />
    <glyph glyph-name="Lacute" unicode="&#x139;" horiz-adv-x="472" 
d="M452 88v-88h-385v661h95v-573h290zM130 828h98l-99 -108h-63z" />
    <glyph glyph-name="lacute" unicode="&#x13a;" horiz-adv-x="251" 
d="M143 138c0 -7.33301 1.16699 -14.665 3.5 -21.998s6 -14 11 -20s11.667 -11 20 -15s18.5 -6 30.5 -6h26v-75h-42c-33.333 0 -59.333 5.66699 -78 17s-32.5 26.166 -41.5 44.499s-14.333 39.166 -16 62.499s-2.5 47.333 -2.5 72v509h89v-567zM99 834.001h98l-100 -108h-62
z" />
    <glyph glyph-name="Lcommaaccent" unicode="&#x13b;" horiz-adv-x="472" 
d="M452 88v-88h-385v661h95v-573h290zM294 -135l-78 -36l21 139h74z" />
    <glyph glyph-name="lcommaaccent" unicode="&#x13c;" horiz-adv-x="251" 
d="M143 138c0 -7.33301 1.16699 -14.665 3.5 -21.998s6 -14 11 -20s11.667 -11 20 -15s18.5 -6 30.5 -6h26v-75h-42c-33.333 0 -59.333 5.66699 -78 17s-32.5 26.166 -41.5 44.499s-14.333 39.166 -16 62.499s-2.5 47.333 -2.5 72v509h89v-567zM161 -134.999l-78 -36l21 139
h73z" />
    <glyph glyph-name="Lcaron" unicode="&#x13d;" horiz-adv-x="472" 
d="M237 572c7.33301 17.333 13.667 38 19 62s8 47 8 69h73c0 -11.333 -1.5 -23.333 -4.5 -36s-6.5 -25 -10.5 -37s-8.5 -23.167 -13.5 -33.5s-9.5 -18.5 -13.5 -24.5h-58zM452.001 88v-88h-385v661h95v-573h290z" />
    <glyph glyph-name="lcaron" unicode="&#x13e;" horiz-adv-x="263" 
d="M188 574c8 17.333 14.5 37.999 19.5 61.999s7.5 47.333 7.5 70h74c0 -11.333 -1.33301 -23.333 -4 -36s-6.16699 -25.167 -10.5 -37.5s-9 -23.666 -14 -33.999s-9.5 -18.5 -13.5 -24.5h-59zM143 137.999c0 -7.33301 1.16699 -14.665 3.5 -21.998s6 -14 11 -20
s11.667 -11 20 -15s18.5 -6 30.5 -6h26v-75h-42c-33.333 0 -59.333 5.66699 -78 17s-32.5 26.166 -41.5 44.499s-14.333 39.166 -16 62.499s-2.5 47.333 -2.5 72v509h89v-567z" />
    <glyph glyph-name="Ldot" unicode="&#x13f;" horiz-adv-x="472" 
d="M452 88v-88h-385v661h95v-573h290zM289 283c-17.333 0 -32.166 6 -44.499 18s-18.5 26.667 -18.5 44c0 18 6.16699 33.167 18.5 45.5s27.166 18.5 44.499 18.5s32.166 -6.16699 44.499 -18.5s18.5 -27.5 18.5 -45.5c0 -17.333 -6.16699 -32 -18.5 -44
s-27.166 -18 -44.499 -18z" />
    <glyph glyph-name="ldot" unicode="&#x140;" horiz-adv-x="271" 
d="M143 138c0 -7.33301 1.16699 -14.665 3.5 -21.998s6 -14 11 -20s11.667 -11 20 -15s18.5 -6 30.5 -6h26v-75h-42c-33.333 0 -59.333 5.66699 -78 17s-32.5 26.166 -41.5 44.499s-14.333 39.166 -16 62.499s-2.5 47.333 -2.5 72v509h89v-567zM247 291.001
c-17.333 0 -32.166 6 -44.499 18s-18.5 26.667 -18.5 44c0 18 6.16699 33.167 18.5 45.5s27.166 18.5 44.499 18.5s32.333 -6.16699 45 -18.5s19 -27.5 19 -45.5c0 -17.333 -6.33301 -32 -19 -44s-27.667 -18 -45 -18z" />
    <glyph glyph-name="Lslash" unicode="&#x141;" horiz-adv-x="465" 
d="M445 88v-88h-385v362l-3 2l-61 -31v69l64 31v228h95v-182h4l65 31v-69l-69 -34v-319h290z" />
    <glyph glyph-name="lslash" unicode="&#x142;" horiz-adv-x="258" 
d="M151 476h4l64 33v-69l-68 -34v-268c0 -7.33301 1.16699 -14.666 3.5 -21.999s6 -14 11 -20s11.833 -11 20.5 -15s19 -6 31 -6h25v-75h-41c-46.667 0 -81.5 12.667 -104.5 38s-34.5 56.666 -34.5 93.999v229h-5l-57 -29v69l62 31v273h89v-229z" />
    <glyph glyph-name="Nacute" unicode="&#x143;" horiz-adv-x="639" 
d="M592 661v-661h-96l-340 512h-5v-512h-94v661h106l330 -510h5v510h94zM314 825h98l-100 -108h-62z" />
    <glyph glyph-name="nacute" unicode="&#x144;" 
d="M159 432c13.333 23.333 32.1689 39.833 56.502 49.5s50.5 14.5 78.5 14.5c26.667 0 51.5 -4 74.5 -12s42.833 -20 59.5 -36s29.667 -35.667 39 -59s14 -50.333 14 -81v-308h-89v303c0 15.333 -2.83301 29.833 -8.5 43.5s-13.5 25.667 -23.5 36s-21.833 18.5 -35.5 24.5
s-28.834 9 -45.501 9s-32.5 -2.33301 -47.5 -7s-28.333 -11.5 -40 -20.5s-20.834 -20.667 -27.501 -35s-10 -30.833 -10 -49.5v-304h-89v492h90v-60h4zM242.003 661h97l-99 -108h-63z" />
    <glyph glyph-name="Ncommaaccent" unicode="&#x145;" horiz-adv-x="639" 
d="M592 661v-661h-96l-340 512h-5v-512h-94v661h106l330 -510h5v510h94zM345 -135l-78 -36l21 139h74z" />
    <glyph glyph-name="ncommaaccent" unicode="&#x146;" 
d="M159 432c13.333 23.333 32.1689 39.833 56.502 49.5s50.5 14.5 78.5 14.5c26.667 0 51.5 -4 74.5 -12s42.833 -20 59.5 -36s29.667 -35.667 39 -59s14 -50.333 14 -81v-308h-89v303c0 15.333 -2.83301 29.833 -8.5 43.5s-13.5 25.667 -23.5 36s-21.833 18.5 -35.5 24.5
s-28.834 9 -45.501 9s-32.5 -2.33301 -47.5 -7s-28.333 -11.5 -40 -20.5s-20.834 -20.667 -27.501 -35s-10 -30.833 -10 -49.5v-304h-89v492h90v-60h4zM304.003 -135l-78 -36l21 139h74z" />
    <glyph glyph-name="Ncaron" unicode="&#x147;" horiz-adv-x="639" 
d="M592 661v-661h-96l-340 512h-5v-512h-94v661h106l330 -510h5v510h94zM206 826h65l46 -69h4l45 69h66l-70 -107h-86z" />
    <glyph glyph-name="ncaron" unicode="&#x148;" 
d="M159 432c13.333 23.333 32.1689 39.833 56.502 49.5s50.5 14.5 78.5 14.5c26.667 0 51.5 -4 74.5 -12s42.833 -20 59.5 -36s29.667 -35.667 39 -59s14 -50.333 14 -81v-308h-89v303c0 15.333 -2.83301 29.833 -8.5 43.5s-13.5 25.667 -23.5 36s-21.833 18.5 -35.5 24.5
s-28.834 9 -45.501 9s-32.5 -2.33301 -47.5 -7s-28.333 -11.5 -40 -20.5s-20.834 -20.667 -27.501 -35s-10 -30.833 -10 -49.5v-304h-89v492h90v-60h4zM163.003 661h65l45 -69h5l45 69h65l-70 -107h-86z" />
    <glyph glyph-name="napostrophe" unicode="&#x149;" 
d="M83 564l-77 -37l12 155h76zM159 432c13.333 23.333 32.1689 39.833 56.502 49.5s50.5 14.5 78.5 14.5c26.667 0 51.5 -4 74.5 -12s42.833 -20 59.5 -36s29.667 -35.667 39 -59s14 -50.333 14 -81v-308h-89v303c0 15.333 -2.83301 29.833 -8.5 43.5s-13.5 25.667 -23.5 36
s-21.833 18.5 -35.5 24.5s-28.834 9 -45.501 9s-32.5 -2.33301 -47.5 -7s-28.333 -11.5 -40 -20.5s-20.834 -20.667 -27.501 -35s-10 -30.833 -10 -49.5v-304h-89v492h90v-60h4z" />
    <glyph glyph-name="Eng" unicode="&#x14a;" horiz-adv-x="668" 
d="M602 661v-661h-96l-340 512h-4v-512h-95v661h106l331 -510h4v510h94zM603 0v-41.999c0 -6 -1.16699 -12.833 -3.5 -20.5s-5.66602 -15 -9.99902 -22s-10 -13 -17 -18s-15.167 -7.83301 -24.5 -8.5h-114v61h63c7.33301 0 12.166 3 14.499 9s3.5 12.667 3.5 20
c0 4 -0.166992 7.66699 -0.5 11s-0.5 6.66602 -0.5 9.99902h89z" />
    <glyph glyph-name="eng" unicode="&#x14b;" 
d="M481 0v-41.999c0 -6 -1.16699 -12.833 -3.5 -20.5s-5.66602 -15 -9.99902 -22s-10 -13 -17 -18s-15.167 -7.83301 -24.5 -8.5h-114v61h63c7.33301 0 12.166 3 14.499 9s3.5 12.667 3.5 20c0 4 -0.166992 7.66699 -0.5 11s-0.5 6.66602 -0.5 9.99902h89zM155 432.001
c14.667 23.333 34.502 39.833 59.502 49.5s51.5 14.5 79.5 14.5c26.667 0 51.5 -4 74.5 -12s42.833 -20 59.5 -36s29.667 -35.667 39 -59s14 -50.333 14 -81v-308h-89v303c0 15.333 -2.83301 29.833 -8.5 43.5s-13.5 25.667 -23.5 36s-21.833 18.5 -35.5 24.5
s-28.834 9 -45.501 9s-32.5 -2.33301 -47.5 -7s-28.333 -11.5 -40 -20.5s-20.834 -20.667 -27.501 -35s-10 -30.833 -10 -49.5v-304h-89v492h90v-60z" />
    <glyph glyph-name="Omacron" unicode="&#x14c;" horiz-adv-x="676" 
d="M629 278c0 -40.667 -7.66699 -78.334 -23 -113.001s-36.166 -64.834 -62.499 -90.501s-57.166 -45.667 -92.499 -60s-73 -21.5 -113 -21.5s-77.667 7.16699 -113 21.5s-66.166 34.333 -92.499 60s-47.166 55.834 -62.499 90.501s-23 72.334 -23 113.001v105
c0 40.667 7.66699 78.334 23 113.001s36.166 64.667 62.499 90s57.166 45.333 92.499 60s73 22 113 22s77.667 -7.33301 113 -22s66.166 -34.667 92.499 -60s47.166 -55.333 62.499 -90s23 -72.334 23 -113.001v-105zM533 382c0 27.333 -5.16699 52.833 -15.5 76.5
s-24.166 44.334 -41.499 62.001s-38 31.667 -62 42s-49.333 15.5 -76 15.5c-27.333 0 -52.833 -5.16699 -76.5 -15.5s-44.167 -24.333 -61.5 -42s-31.166 -38.334 -41.499 -62.001s-15.5 -49.167 -15.5 -76.5v-103c0 -27.333 5.16699 -52.833 15.5 -76.5
s24.166 -44.167 41.499 -61.5s37.833 -31.166 61.5 -41.499s49.167 -15.5 76.5 -15.5c26.667 0 52 5.16699 76 15.5s44.667 24.166 62 41.499s31.166 37.833 41.499 61.5s15.5 49.167 15.5 76.5v103zM217 811h225v-58h-225v58z" />
    <glyph glyph-name="omacron" unicode="&#x14d;" horiz-adv-x="512" 
d="M258 498c32.667 0 61.833 -5.33496 87.5 -16.002s47.5 -25.167 65.5 -43.5s31.833 -39.666 41.5 -63.999s14.5 -50.5 14.5 -78.5v-109c0 -24 -5 -47.333 -15 -70s-24 -43 -42 -61s-40 -32.5 -66 -43.5s-55 -16.5 -87 -16.5c-30.667 0 -58.834 5.33301 -84.501 16
s-48 24.834 -67 42.501s-33.833 38 -44.5 61s-16 47.167 -16 72.5v108c0 32.667 6 61.667 18 87s28 46.5 48 63.5s42.833 29.833 68.5 38.5s51.834 13 78.501 13zM374.999 297.998c0 16.667 -2.99805 32.166 -8.99805 46.499s-14.333 26.833 -25 37.5
s-23.167 18.834 -37.5 24.501s-29.833 8.5 -46.5 8.5c-18 0 -34.333 -3.16699 -49 -9.5s-27.334 -14.833 -38.001 -25.5s-18.834 -23 -24.501 -37s-8.5 -29 -8.5 -45v-114c0 -15.333 3.5 -29.5 10.5 -42.5s16 -24.333 27 -34s23.667 -17.167 38 -22.5s28.833 -8 43.5 -8
c17.333 0 33.333 3 48 9s27.167 14 37.5 24s18.5 21.5 24.5 34.5s9 26.167 9 39.5v114zM144.001 642.997h225v-57h-225v57z" />
    <glyph glyph-name="Obreve" unicode="&#x14e;" horiz-adv-x="676" 
d="M629 278c0 -40.667 -7.66699 -78.334 -23 -113.001s-36.166 -64.834 -62.499 -90.501s-57.166 -45.667 -92.499 -60s-73 -21.5 -113 -21.5s-77.667 7.16699 -113 21.5s-66.166 34.333 -92.499 60s-47.166 55.834 -62.499 90.501s-23 72.334 -23 113.001v105
c0 40.667 7.66699 78.334 23 113.001s36.166 64.667 62.499 90s57.166 45.333 92.499 60s73 22 113 22s77.667 -7.33301 113 -22s66.166 -34.667 92.499 -60s47.166 -55.333 62.499 -90s23 -72.334 23 -113.001v-105zM533 382c0 27.333 -5.16699 52.833 -15.5 76.5
s-24.166 44.334 -41.499 62.001s-38 31.667 -62 42s-49.333 15.5 -76 15.5c-27.333 0 -52.833 -5.16699 -76.5 -15.5s-44.167 -24.333 -61.5 -42s-31.166 -38.334 -41.499 -62.001s-15.5 -49.167 -15.5 -76.5v-103c0 -27.333 5.16699 -52.833 15.5 -76.5
s24.166 -44.167 41.499 -61.5s37.833 -31.166 61.5 -41.499s49.167 -15.5 76.5 -15.5c26.667 0 52 5.16699 76 15.5s44.667 24.166 62 41.499s31.166 37.833 41.499 61.5s15.5 49.167 15.5 76.5v103zM333 713c-17.333 0 -33.501 3 -48.501 9s-28.333 14.167 -40 24.5
s-21.167 22.666 -28.5 36.999s-11.666 29.5 -12.999 45.5h62c3.33301 -16 11.166 -29.333 23.499 -40s27.166 -16 44.499 -16s32 5.33301 44 16s19.667 24 23 40h63c-2 -16 -6.66699 -31 -14 -45s-16.666 -26.167 -27.999 -36.5s-24.666 -18.666 -39.999 -24.999
s-31.333 -9.5 -48 -9.5z" />
    <glyph glyph-name="obreve" unicode="&#x14f;" horiz-adv-x="512" 
d="M258 498c32.667 0 61.833 -5.33496 87.5 -16.002s47.5 -25.167 65.5 -43.5s31.833 -39.666 41.5 -63.999s14.5 -50.5 14.5 -78.5v-109c0 -24 -5 -47.333 -15 -70s-24 -43 -42 -61s-40 -32.5 -66 -43.5s-55 -16.5 -87 -16.5c-30.667 0 -58.834 5.33301 -84.501 16
s-48 24.834 -67 42.501s-33.833 38 -44.5 61s-16 47.167 -16 72.5v108c0 32.667 6 61.667 18 87s28 46.5 48 63.5s42.833 29.833 68.5 38.5s51.834 13 78.501 13zM374.999 297.998c0 16.667 -2.99805 32.166 -8.99805 46.499s-14.333 26.833 -25 37.5
s-23.167 18.834 -37.5 24.501s-29.833 8.5 -46.5 8.5c-18 0 -34.333 -3.16699 -49 -9.5s-27.334 -14.833 -38.001 -25.5s-18.834 -23 -24.501 -37s-8.5 -29 -8.5 -45v-114c0 -15.333 3.5 -29.5 10.5 -42.5s16 -24.333 27 -34s23.667 -17.167 38 -22.5s28.833 -8 43.5 -8
c17.333 0 33.333 3 48 9s27.167 14 37.5 24s18.5 21.5 24.5 34.5s9 26.167 9 39.5v114zM256.001 544.997c-17.333 0 -33.6689 3.00098 -49.002 9.00098s-28.833 14.167 -40.5 24.5s-21.167 22.666 -28.5 36.999s-11.666 29.5 -12.999 45.5h63
c2.66699 -16 10.334 -29.333 23.001 -40s27.667 -16 45 -16s32 5.33301 44 16s19.667 24 23 40h62c-2 -15.333 -6.5 -30 -13.5 -44s-16.333 -26.333 -28 -37s-25 -19.167 -40 -25.5s-30.833 -9.5 -47.5 -9.5z" />
    <glyph glyph-name="Ohungarumlaut" unicode="&#x150;" horiz-adv-x="676" 
d="M629 278c0 -40.667 -7.66699 -78.334 -23 -113.001s-36.166 -64.834 -62.499 -90.501s-57.166 -45.667 -92.499 -60s-73 -21.5 -113 -21.5s-77.667 7.16699 -113 21.5s-66.166 34.333 -92.499 60s-47.166 55.834 -62.499 90.501s-23 72.334 -23 113.001v105
c0 40.667 7.66699 78.334 23 113.001s36.166 64.667 62.499 90s57.166 45.333 92.499 60s73 22 113 22s77.667 -7.33301 113 -22s66.166 -34.667 92.499 -60s47.166 -55.333 62.499 -90s23 -72.334 23 -113.001v-105zM533 382c0 27.333 -5.16699 52.833 -15.5 76.5
s-24.166 44.334 -41.499 62.001s-38 31.667 -62 42s-49.333 15.5 -76 15.5c-27.333 0 -52.833 -5.16699 -76.5 -15.5s-44.167 -24.333 -61.5 -42s-31.166 -38.334 -41.499 -62.001s-15.5 -49.167 -15.5 -76.5v-103c0 -27.333 5.16699 -52.833 15.5 -76.5
s24.166 -44.167 41.499 -61.5s37.833 -31.166 61.5 -41.499s49.167 -15.5 76.5 -15.5c26.667 0 52 5.16699 76 15.5s44.667 24.166 62 41.499s31.166 37.833 41.499 61.5s15.5 49.167 15.5 76.5v103zM389 703h-46l44 126h95zM253 703h-46l44 126h95z" />
    <glyph glyph-name="ohungarumlaut" unicode="&#x151;" horiz-adv-x="512" 
d="M258 498c32.667 0 61.833 -5.33496 87.5 -16.002s47.5 -25.167 65.5 -43.5s31.833 -39.666 41.5 -63.999s14.5 -50.5 14.5 -78.5v-109c0 -24 -5 -47.333 -15 -70s-24 -43 -42 -61s-40 -32.5 -66 -43.5s-55 -16.5 -87 -16.5c-30.667 0 -58.834 5.33301 -84.501 16
s-48 24.834 -67 42.501s-33.833 38 -44.5 61s-16 47.167 -16 72.5v108c0 32.667 6 61.667 18 87s28 46.5 48 63.5s42.833 29.833 68.5 38.5s51.834 13 78.501 13zM374.999 297.998c0 16.667 -2.99805 32.166 -8.99805 46.499s-14.333 26.833 -25 37.5
s-23.167 18.834 -37.5 24.501s-29.833 8.5 -46.5 8.5c-18 0 -34.333 -3.16699 -49 -9.5s-27.334 -14.833 -38.001 -25.5s-18.834 -23 -24.501 -37s-8.5 -29 -8.5 -45v-114c0 -15.333 3.5 -29.5 10.5 -42.5s16 -24.333 27 -34s23.667 -17.167 38 -22.5s28.833 -8 43.5 -8
c17.333 0 33.333 3 48 9s27.167 14 37.5 24s18.5 21.5 24.5 34.5s9 26.167 9 39.5v114zM318.001 534.997h-47l45 126h95zM182.001 534.997h-46l44 126h95z" />
    <glyph glyph-name="OE" unicode="&#x152;" horiz-adv-x="985" 
d="M623 579v-208h290v-83h-290v-207h317v-81h-412v81h-7c-21.333 -26.667 -49.5 -47.667 -84.5 -63s-70.5 -23 -106.5 -23c-40.667 0 -78.834 7.16699 -114.501 21.5s-66.667 34.166 -93 59.499s-47.166 55.333 -62.499 90s-23 72.334 -23 113.001v101
c0 40 7.66699 77.5 23 112.5s36.166 65.333 62.499 91s57.333 45.834 93 60.501s73.834 22 114.501 22c36.667 0 72.667 -7.83301 108 -23.5s63.333 -36.834 84 -63.501h6v82h412v-82h-317zM330 84c26.667 0 52 5.16699 76 15.5s44.667 24.333 62 42
s31.166 38.334 41.499 62.001s15.5 49.167 15.5 76.5v100c0 26.667 -5.16699 52 -15.5 76s-24.166 44.833 -41.499 62.5s-38 31.667 -62 42s-49.333 15.5 -76 15.5c-27.333 0 -53 -5.16699 -77 -15.5s-44.833 -24.333 -62.5 -42s-31.667 -38.5 -42 -62.5
s-15.5 -49.333 -15.5 -76v-100c0 -27.333 5.16699 -52.833 15.5 -76.5s24.333 -44.334 42 -62.001s38.5 -31.667 62.5 -42s49.667 -15.5 77 -15.5z" />
    <glyph glyph-name="oe" unicode="&#x153;" horiz-adv-x="813" 
d="M689 128c10 -6.66699 20.167 -13.4971 30.5 -20.4971s20.5 -14.167 30.5 -21.5c-19.333 -28 -44.666 -50.333 -75.999 -67s-67 -25 -107 -25c-34.667 0 -66.167 7.33301 -94.5 22s-50.5 34 -66.5 58c-17.333 -24 -40.333 -43.333 -69 -58s-60.334 -22 -95.001 -22
c-28.667 0 -55.5 4.66699 -80.5 14s-46.833 22.166 -65.5 38.499s-33.5 36 -44.5 59s-16.5 48.167 -16.5 75.5v120c0 29.333 5.16699 56 15.5 80s24.833 44.5 43.5 61.5s40.667 30.167 66 39.5s52.666 14 81.999 14c35.333 0 67.666 -7 96.999 -21s53.333 -34 72 -60
c19.333 26.667 43.5 47.167 72.5 61.5s59.833 21.5 92.5 21.5c26.667 0 51.834 -4 75.501 -12s44.167 -19 61.5 -33s31 -30.667 41 -50s15 -40.333 15 -63s-4 -42.834 -12 -60.501s-19 -32.667 -33 -45s-30 -21.833 -48 -28.5s-37 -10.667 -57 -12
c-10 -0.666992 -20 -1 -30 -1h-30h-113c0 -14 2.83301 -28.333 8.5 -43s14 -28.167 25 -40.5s24.333 -22.333 40 -30s33.834 -11.5 54.501 -11.5c21.333 0 43 5.66699 65 17s38.667 25.666 50 42.999zM358 302.003c0 16.667 -3.16699 31.834 -9.5 45.501
s-14.833 25.5 -25.5 35.5s-23.167 17.667 -37.5 23s-29.5 8 -45.5 8s-31.167 -2.66699 -45.5 -8s-27 -13 -38 -23s-19.667 -21.833 -26 -35.5s-9.5 -28.834 -9.5 -45.501v-111c0 -15.333 3.16699 -29.833 9.5 -43.5s15 -25.834 26 -36.501s23.667 -19 38 -25
s29.5 -9 45.5 -9s31.167 3 45.5 9s26.833 14.333 37.5 25s19.167 22.834 25.5 36.501s9.5 28.167 9.5 43.5v111zM598 264.003c10 0 19.834 1.33301 29.501 4s18.667 6.66699 27 12s15.166 12.5 20.499 21.5s8.33301 20.167 9 33.5c0 26 -9.5 47.5 -28.5 64.5
s-44.5 25.5 -76.5 25.5c-24 0 -44.333 -4.66699 -61 -14s-30.167 -21.5 -40.5 -36.5s-18 -32.167 -23 -51.5s-7.5 -39 -7.5 -59h151z" />
    <glyph glyph-name="Racute" unicode="&#x154;" horiz-adv-x="593" 
d="M277 825h97l-99 -108h-63zM438 0l-150.001 259.002h-126v-259h-95v661h298c25.333 0 48.833 -4.5 70.5 -13.5s40.334 -21.5 56.001 -37.5s28 -34.5 37 -55.5s13.5 -43.5 13.5 -67.5v-46c0 -23.333 -4.16699 -45.5 -12.5 -66.5s-19.333 -39.667 -33 -56
s-29.5 -29.5 -47.5 -39.5s-37 -15.333 -57 -16c0 -0.666992 -0.166992 -1.33398 -0.5 -2.00098s-0.5 -1.33398 -0.5 -2.00098l151 -259h-104zM349.999 340.002c14 0 27 2.66602 39 7.99902s22.333 12.333 31 21s15.5 18.834 20.5 30.501s7.5 24.167 7.5 37.5v45
c0 27.333 -9.33301 50.333 -28 69s-42 28 -70 28h-188v-239h188z" />
    <glyph glyph-name="racute" unicode="&#x155;" horiz-adv-x="369" 
d="M178 661h98l-99 -108h-63zM282 498c20.667 0 36.833 -1.5 48.5 -4.5s23.5 -7.16699 35.5 -12.5l-25 -81c-8 4 -16.667 7.66699 -26 11s-23 5 -41 5c-15.333 0 -30.166 -2.66699 -44.499 -8s-27 -13 -38 -23s-19.667 -22.333 -26 -37s-9.5 -31 -9.5 -49v-299h-89v492h90
v-58h4c12.667 19.333 30.167 34.833 52.5 46.5s45.166 17.5 68.499 17.5z" />
    <glyph glyph-name="Rcommaaccent" unicode="&#x156;" horiz-adv-x="593" 
d="M318 -135l-79 -36l21 139h74zM438 0l-150.001 259.002h-126v-259h-95v661h298c25.333 0 48.833 -4.5 70.5 -13.5s40.334 -21.5 56.001 -37.5s28 -34.5 37 -55.5s13.5 -43.5 13.5 -67.5v-46c0 -23.333 -4.16699 -45.5 -12.5 -66.5s-19.333 -39.667 -33 -56
s-29.5 -29.5 -47.5 -39.5s-37 -15.333 -57 -16c0 -0.666992 -0.166992 -1.33398 -0.5 -2.00098s-0.5 -1.33398 -0.5 -2.00098l151 -259h-104zM349.999 340.002c14 0 27 2.66602 39 7.99902s22.333 12.333 31 21s15.5 18.834 20.5 30.501s7.5 24.167 7.5 37.5v45
c0 27.333 -9.33301 50.333 -28 69s-42 28 -70 28h-188v-239h188z" />
    <glyph glyph-name="rcommaaccent" unicode="&#x157;" horiz-adv-x="369" 
d="M239 -135l-78 -36l21 139h74zM282 498c20.667 0 36.833 -1.5 48.5 -4.5s23.5 -7.16699 35.5 -12.5l-25 -81c-8 4 -16.667 7.66699 -26 11s-23 5 -41 5c-15.333 0 -30.166 -2.66699 -44.499 -8s-27 -13 -38 -23s-19.667 -22.333 -26 -37s-9.5 -31 -9.5 -49v-299h-89v492
h90v-58h4c12.667 19.333 30.167 34.833 52.5 46.5s45.166 17.5 68.499 17.5z" />
    <glyph glyph-name="Rcaron" unicode="&#x158;" horiz-adv-x="593" 
d="M184 826h65l45 -69h4l46 69h65c-12 -17.333 -23.833 -35 -35.5 -53s-23.167 -36 -34.5 -54h-86zM438 0l-150.001 259.002h-126v-259h-95v661h298c25.333 0 48.833 -4.5 70.5 -13.5s40.334 -21.5 56.001 -37.5s28 -34.5 37 -55.5s13.5 -43.5 13.5 -67.5v-46
c0 -23.333 -4.16699 -45.5 -12.5 -66.5s-19.333 -39.667 -33 -56s-29.5 -29.5 -47.5 -39.5s-37 -15.333 -57 -16c0 -0.666992 -0.166992 -1.33398 -0.5 -2.00098s-0.5 -1.33398 -0.5 -2.00098l151 -259h-104zM349.999 340.002c14 0 27 2.66602 39 7.99902
s22.333 12.333 31 21s15.5 18.834 20.5 30.501s7.5 24.167 7.5 37.5v45c0 27.333 -9.33301 50.333 -28 69s-42 28 -70 28h-188v-239h188z" />
    <glyph glyph-name="rcaron" unicode="&#x159;" horiz-adv-x="369" 
d="M91 661h66l45 -69h4l45 69h66c-12 -17.333 -23.833 -35 -35.5 -53s-23.167 -36 -34.5 -54h-86zM282 498c20.667 0 36.833 -1.5 48.5 -4.5s23.5 -7.16699 35.5 -12.5l-25 -81c-8 4 -16.667 7.66699 -26 11s-23 5 -41 5c-15.333 0 -30.166 -2.66699 -44.499 -8
s-27 -13 -38 -23s-19.667 -22.333 -26 -37s-9.5 -31 -9.5 -49v-299h-89v492h90v-58h4c12.667 19.333 30.167 34.833 52.5 46.5s45.166 17.5 68.499 17.5z" />
    <glyph glyph-name="Sacute" unicode="&#x15a;" horiz-adv-x="549" 
d="M264 825h97l-99 -108h-63zM283 664c46 0 86.334 -6.50391 121.001 -19.5039s66.334 -32.167 95.001 -57.5c-2 -2.66699 -5.5 -7.16699 -10.5 -13.5s-10.333 -13.333 -16 -21s-11 -14.667 -16 -21s-8.5 -10.833 -10.5 -13.5c-18.667 16.667 -40.5 31 -65.5 43
s-55.5 18 -91.5 18c-23.333 0 -43.833 -2.83301 -61.5 -8.5s-32.5 -13 -44.5 -22s-21 -19.167 -27 -30.5s-9 -23 -9 -35c0 -20.667 9 -37.5 27 -50.5s40.5 -24.5 67.5 -34.5s56.333 -20.167 88 -30.5s61 -23.166 88 -38.499s49.5 -34.666 67.5 -57.999s27 -53.333 27 -90
c0 -26 -4.66699 -50.333 -14 -73s-23.666 -42.334 -42.999 -59.001s-43.666 -29.667 -72.999 -39s-64 -14 -104 -14c-54 0 -100.833 7.83301 -140.5 23.5s-72.834 34.834 -99.501 57.501c2 2.66699 5.66699 7 11 13s11 12.333 17 19s11.667 13 17 19s9 10.333 11 13
c20 -14.667 44.667 -28.5 74 -41.5s67.666 -19.5 114.999 -19.5c22 0 41.167 2.66699 57.5 8s29.666 12.333 39.999 21s18 18.334 23 29.001s7.5 21.667 7.5 33c0 24.667 -8.83301 44.5 -26.5 59.5s-40 28.167 -67 39.5s-56 22 -87 32s-60 22.333 -87 37
s-49.333 32.834 -67 54.501s-26.5 49.834 -26.5 84.501c0 25.333 5 49.166 15 71.499s24.667 42 44 59s43.666 30.5 72.999 40.5s63 15 101 15z" />
    <glyph glyph-name="sacute" unicode="&#x15b;" horiz-adv-x="485" 
d="M229 661h97l-99 -108h-63zM259 292c25.333 -3.33301 49.665 -8.5 72.998 -15.5s43.833 -16.5 61.5 -28.5s31.834 -26.667 42.501 -44s16 -37.333 16 -60c0 -18 -4 -35.833 -12 -53.5s-20.167 -33.667 -36.5 -48s-37.166 -26 -62.499 -35s-55.333 -13.5 -90 -13.5
c-39.333 0 -75.833 6.5 -109.5 19.5s-64.834 31.167 -93.501 54.5l47 56c18.667 -17.333 41 -31 67 -41s53 -15 81 -15c37.333 0 65.833 7.16699 85.5 21.5s29.5 31.5 29.5 51.5c0 19.333 -10.833 35.333 -32.5 48s-53.5 21.667 -95.5 27
c-24 2.66699 -47 6.83398 -69 12.501s-41.5 13.834 -58.5 24.501s-30.667 24.167 -41 40.5s-15.5 36.5 -15.5 60.5c0 21.333 4.66699 40.833 14 58.5s22.5 32.834 39.5 45.501s37.5 22.5 61.5 29.5s50.667 10.5 80 10.5c40 0 75.333 -5.5 106 -16.5
s57.334 -25.167 80.001 -42.5l-44 -62c-19.333 14.667 -41.5 26 -66.5 34s-50.167 12 -75.5 12c-28 0 -51.667 -5.83301 -71 -17.5s-29 -27.834 -29 -48.501c0 -12 4 -21.833 12 -29.5s18 -13.834 30 -18.501s24.833 -8.33398 38.5 -11.001s26.167 -4.66699 37.5 -6z" />
    <glyph glyph-name="Scircumflex" unicode="&#x15c;" horiz-adv-x="549" 
d="M245 826h86l70 -107h-66l-46 70h-4l-44 -70h-66zM283 664c46 0 86.334 -6.50391 121.001 -19.5039s66.334 -32.167 95.001 -57.5c-2 -2.66699 -5.5 -7.16699 -10.5 -13.5s-10.333 -13.333 -16 -21s-11 -14.667 -16 -21s-8.5 -10.833 -10.5 -13.5
c-18.667 16.667 -40.5 31 -65.5 43s-55.5 18 -91.5 18c-23.333 0 -43.833 -2.83301 -61.5 -8.5s-32.5 -13 -44.5 -22s-21 -19.167 -27 -30.5s-9 -23 -9 -35c0 -20.667 9 -37.5 27 -50.5s40.5 -24.5 67.5 -34.5s56.333 -20.167 88 -30.5s61 -23.166 88 -38.499
s49.5 -34.666 67.5 -57.999s27 -53.333 27 -90c0 -26 -4.66699 -50.333 -14 -73s-23.666 -42.334 -42.999 -59.001s-43.666 -29.667 -72.999 -39s-64 -14 -104 -14c-54 0 -100.833 7.83301 -140.5 23.5s-72.834 34.834 -99.501 57.501c2 2.66699 5.66699 7 11 13
s11 12.333 17 19s11.667 13 17 19s9 10.333 11 13c20 -14.667 44.667 -28.5 74 -41.5s67.666 -19.5 114.999 -19.5c22 0 41.167 2.66699 57.5 8s29.666 12.333 39.999 21s18 18.334 23 29.001s7.5 21.667 7.5 33c0 24.667 -8.83301 44.5 -26.5 59.5s-40 28.167 -67 39.5
s-56 22 -87 32s-60 22.333 -87 37s-49.333 32.834 -67 54.501s-26.5 49.834 -26.5 84.501c0 25.333 5 49.166 15 71.499s24.667 42 44 59s43.666 30.5 72.999 40.5s63 15 101 15z" />
    <glyph glyph-name="scircumflex" unicode="&#x15d;" horiz-adv-x="485" 
d="M259 292c25.333 -3.33301 49.665 -8.5 72.998 -15.5s43.833 -16.5 61.5 -28.5s31.834 -26.667 42.501 -44s16 -37.333 16 -60c0 -18 -4 -35.833 -12 -53.5s-20.167 -33.667 -36.5 -48s-37.166 -26 -62.499 -35s-55.333 -13.5 -90 -13.5
c-39.333 0 -75.833 6.5 -109.5 19.5s-64.834 31.167 -93.501 54.5l47 56c18.667 -17.333 41 -31 67 -41s53 -15 81 -15c37.333 0 65.833 7.16699 85.5 21.5s29.5 31.5 29.5 51.5c0 19.333 -10.833 35.333 -32.5 48s-53.5 21.667 -95.5 27
c-24 2.66699 -47 6.83398 -69 12.501s-41.5 13.834 -58.5 24.501s-30.667 24.167 -41 40.5s-15.5 36.5 -15.5 60.5c0 21.333 4.66699 40.833 14 58.5s22.5 32.834 39.5 45.501s37.5 22.5 61.5 29.5s50.667 10.5 80 10.5c40 0 75.333 -5.5 106 -16.5
s57.334 -25.167 80.001 -42.5l-44 -62c-19.333 14.667 -41.5 26 -66.5 34s-50.167 12 -75.5 12c-28 0 -51.667 -5.83301 -71 -17.5s-29 -27.834 -29 -48.501c0 -12 4 -21.833 12 -29.5s18 -13.834 30 -18.501s24.833 -8.33398 38.5 -11.001s26.167 -4.66699 37.5 -6z
M205.999 661h86l70 -107h-66l-46 70h-4l-44 -70h-66z" />
    <glyph glyph-name="Scedilla" unicode="&#x15e;" horiz-adv-x="549" 
d="M254 -33c8.66699 2 17.8301 3.50098 27.4971 4.50098s18.834 1.5 27.501 1.5c21.333 0 36.5 -6.33301 45.5 -19s13.5 -27.334 13.5 -44.001c0 -9.33301 -2 -18.5 -6 -27.5s-9.83301 -17 -17.5 -24s-17.167 -12.833 -28.5 -17.5s-24.333 -7 -39 -7
c-13.333 0 -26.666 2.33301 -39.999 7s-24.333 9.66699 -33 15l19 43c10.667 -5.33301 19.834 -9 27.501 -11s16.5 -3 26.5 -3c7.33301 0 14.166 2.33301 20.499 7s9.5 10.667 9.5 18c0 8.66699 -3.33301 15 -10 19s-13.667 6 -21 6c-5.33301 0 -11.666 -0.5 -18.999 -1.5
s-13 -2.16699 -17 -3.5zM282.996 664.001c46 0 86.334 -6.50391 121.001 -19.5039s66.334 -32.167 95.001 -57.5c-2 -2.66699 -5.5 -7.16699 -10.5 -13.5s-10.333 -13.333 -16 -21s-11 -14.667 -16 -21s-8.5 -10.833 -10.5 -13.5c-18.667 16.667 -40.5 31 -65.5 43
s-55.5 18 -91.5 18c-23.333 0 -43.833 -2.83301 -61.5 -8.5s-32.5 -13 -44.5 -22s-21 -19.167 -27 -30.5s-9 -23 -9 -35c0 -20.667 9 -37.5 27 -50.5s40.5 -24.5 67.5 -34.5s56.333 -20.167 88 -30.5s61 -23.166 88 -38.499s49.5 -34.666 67.5 -57.999s27 -53.333 27 -90
c0 -26 -4.66699 -50.333 -14 -73s-23.666 -42.334 -42.999 -59.001s-43.666 -29.667 -72.999 -39s-64 -14 -104 -14c-54 0 -100.833 7.83301 -140.5 23.5s-72.834 34.834 -99.501 57.501c2 2.66699 5.66699 7 11 13s11 12.333 17 19s11.667 13 17 19s9 10.333 11 13
c20 -14.667 44.667 -28.5 74 -41.5s67.666 -19.5 114.999 -19.5c22 0 41.167 2.66699 57.5 8s29.666 12.333 39.999 21s18 18.334 23 29.001s7.5 21.667 7.5 33c0 24.667 -8.83301 44.5 -26.5 59.5s-40 28.167 -67 39.5s-56 22 -87 32s-60 22.333 -87 37
s-49.333 32.834 -67 54.501s-26.5 49.834 -26.5 84.501c0 25.333 5 49.166 15 71.499s24.667 42 44 59s43.666 30.5 72.999 40.5s63 15 101 15z" />
    <glyph glyph-name="scedilla" unicode="&#x15f;" horiz-adv-x="485" 
d="M232 -33c9.33301 2 18.833 3.50098 28.5 4.50098s18.5 1.5 26.5 1.5c21.333 0 36.5 -6.33301 45.5 -19s13.5 -27.334 13.5 -44.001c0 -9.33301 -2 -18.5 -6 -27.5s-9.83301 -17 -17.5 -24s-17.167 -12.833 -28.5 -17.5s-24.333 -7 -39 -7
c-13.333 0 -26.666 2.33301 -39.999 7s-24.333 9.66699 -33 15l19 43c11.333 -5.33301 20.666 -9 27.999 -11s16 -3 26 -3c7.33301 0 14.166 2.33301 20.499 7s9.5 10.667 9.5 18c0 8.66699 -3.33301 15 -10 19s-13.667 6 -21 6c-5.33301 0 -11.666 -0.5 -18.999 -1.5
s-13 -2.16699 -17 -3.5zM259 292.001c25.333 -3.33301 49.665 -8.5 72.998 -15.5s43.833 -16.5 61.5 -28.5s31.834 -26.667 42.501 -44s16 -37.333 16 -60c0 -18 -4 -35.833 -12 -53.5s-20.167 -33.667 -36.5 -48s-37.166 -26 -62.499 -35s-55.333 -13.5 -90 -13.5
c-39.333 0 -75.833 6.5 -109.5 19.5s-64.834 31.167 -93.501 54.5l47 56c18.667 -17.333 41 -31 67 -41s53 -15 81 -15c37.333 0 65.833 7.16699 85.5 21.5s29.5 31.5 29.5 51.5c0 19.333 -10.833 35.333 -32.5 48s-53.5 21.667 -95.5 27
c-24 2.66699 -47 6.83398 -69 12.501s-41.5 13.834 -58.5 24.501s-30.667 24.167 -41 40.5s-15.5 36.5 -15.5 60.5c0 21.333 4.66699 40.833 14 58.5s22.5 32.834 39.5 45.501s37.5 22.5 61.5 29.5s50.667 10.5 80 10.5c40 0 75.333 -5.5 106 -16.5
s57.334 -25.167 80.001 -42.5l-44 -62c-19.333 14.667 -41.5 26 -66.5 34s-50.167 12 -75.5 12c-28 0 -51.667 -5.83301 -71 -17.5s-29 -27.834 -29 -48.501c0 -12 4 -21.833 12 -29.5s18 -13.834 30 -18.501s24.833 -8.33398 38.5 -11.001s26.167 -4.66699 37.5 -6z" />
    <glyph glyph-name="Scaron" unicode="&#x160;" horiz-adv-x="559" 
d="M172 833h66l45 -70h4l45 70h66l-70 -107h-86zM283 664c46 0 86.334 -6.50391 121.001 -19.5039s66.334 -32.167 95.001 -57.5c-2 -2.66699 -5.5 -7.16699 -10.5 -13.5s-10.333 -13.333 -16 -21s-11 -14.667 -16 -21s-8.5 -10.833 -10.5 -13.5
c-18.667 16.667 -40.5 31 -65.5 43s-55.5 18 -91.5 18c-23.333 0 -43.833 -2.83301 -61.5 -8.5s-32.5 -13 -44.5 -22s-21 -19.167 -27 -30.5s-9 -23 -9 -35c0 -20.667 9 -37.5 27 -50.5s40.5 -24.5 67.5 -34.5s56.333 -20.167 88 -30.5s61 -23.166 88 -38.499
s49.5 -34.666 67.5 -57.999s27 -53.333 27 -90c0 -26 -4.66699 -50.333 -14 -73s-23.666 -42.334 -42.999 -59.001s-43.666 -29.667 -72.999 -39s-64 -14 -104 -14c-54 0 -100.833 7.83301 -140.5 23.5s-72.834 34.834 -99.501 57.501c2 2.66699 5.66699 7 11 13
s11 12.333 17 19s11.667 13 17 19s9 10.333 11 13c20 -14.667 44.667 -28.5 74 -41.5s67.666 -19.5 114.999 -19.5c22 0 41.167 2.66699 57.5 8s29.666 12.333 39.999 21s18 18.334 23 29.001s7.5 21.667 7.5 33c0 24.667 -8.83301 44.5 -26.5 59.5s-40 28.167 -67 39.5
s-56 22 -87 32s-60 22.333 -87 37s-49.333 32.834 -67 54.501s-26.5 49.834 -26.5 84.501c0 25.333 5 49.166 15 71.499s24.667 42 44 59s43.666 30.5 72.999 40.5s63 15 101 15z" />
    <glyph glyph-name="scaron" unicode="&#x161;" horiz-adv-x="486" 
d="M138 661h66l45 -69h4l45 69h66l-70 -107h-86zM259 292c25.333 -3.33301 49.665 -8.5 72.998 -15.5s43.833 -16.5 61.5 -28.5s31.834 -26.667 42.501 -44s16 -37.333 16 -60c0 -18 -4 -35.833 -12 -53.5s-20.167 -33.667 -36.5 -48s-37.166 -26 -62.499 -35
s-55.333 -13.5 -90 -13.5c-39.333 0 -75.833 6.5 -109.5 19.5s-64.834 31.167 -93.501 54.5l47 56c18.667 -17.333 41 -31 67 -41s53 -15 81 -15c37.333 0 65.833 7.16699 85.5 21.5s29.5 31.5 29.5 51.5c0 19.333 -10.833 35.333 -32.5 48s-53.5 21.667 -95.5 27
c-24 2.66699 -47 6.83398 -69 12.501s-41.5 13.834 -58.5 24.501s-30.667 24.167 -41 40.5s-15.5 36.5 -15.5 60.5c0 21.333 4.66699 40.833 14 58.5s22.5 32.834 39.5 45.501s37.5 22.5 61.5 29.5s50.667 10.5 80 10.5c40 0 75.333 -5.5 106 -16.5
s57.334 -25.167 80.001 -42.5l-44 -62c-19.333 14.667 -41.5 26 -66.5 34s-50.167 12 -75.5 12c-28 0 -51.667 -5.83301 -71 -17.5s-29 -27.834 -29 -48.501c0 -12 4 -21.833 12 -29.5s18 -13.834 30 -18.501s24.833 -8.33398 38.5 -11.001s26.167 -4.66699 37.5 -6z" />
    <glyph glyph-name="uni0162" unicode="&#x162;" horiz-adv-x="503" 
d="M482 573h-184v-573h-94v573h-184v88h462v-88zM218 -33c8.66699 2 17.8291 3.50098 27.4961 4.50098s18.834 1.5 27.501 1.5c21.333 0 36.5 -6.33301 45.5 -19s13.5 -27.334 13.5 -44.001c0 -9.33301 -2 -18.5 -6 -27.5s-9.83301 -17 -17.5 -24
s-17.167 -12.833 -28.5 -17.5s-24.333 -7 -39 -7c-13.333 0 -26.666 2.33301 -39.999 7s-24.666 9.66699 -33.999 15l20 43c10.667 -5.33301 19.834 -9 27.501 -11s16.5 -3 26.5 -3c7.33301 0 14.166 2.33301 20.499 7s9.5 10.667 9.5 18c0 8.66699 -3.33301 15 -10 19
s-13.667 6 -21 6c-5.33301 0 -11.666 -0.5 -18.999 -1.5s-13 -2.16699 -17 -3.5z" />
    <glyph glyph-name="uni0163" unicode="&#x163;" horiz-adv-x="310" 
d="M276 75l-0.000976562 -74.999h-33c-36 0 -64.167 5.16699 -84.5 15.5s-35.666 24.166 -45.999 41.499s-16.833 37.5 -19.5 60.5s-4 47.167 -4 72.5v232h-70v70h70v127h88v-127h99v-70h-99v-282c0 -16.667 5.16699 -31.667 15.5 -45s27.5 -20 51.5 -20h32z
M103.999 -32.999c8.66699 2 17.8291 3.50098 27.4961 4.50098s18.834 1.5 27.501 1.5c21.333 0 36.5 -6.33301 45.5 -19s13.5 -27.334 13.5 -44.001c0 -9.33301 -2 -18.5 -6 -27.5s-9.83301 -17 -17.5 -24s-17.167 -12.833 -28.5 -17.5s-24.333 -7 -39 -7
c-13.333 0 -26.666 2.33301 -39.999 7s-24.666 9.66699 -33.999 15l20 43c10.667 -5.33301 19.834 -9 27.501 -11s16.5 -3 26.5 -3c7.33301 0 14.166 2.33301 20.499 7s9.5 10.667 9.5 18c0 8.66699 -3.33301 15 -10 19s-13.667 6 -21 6
c-5.33301 0 -11.666 -0.5 -18.999 -1.5s-13 -2.16699 -17 -3.5z" />
    <glyph glyph-name="Tcaron" unicode="&#x164;" horiz-adv-x="503" 
d="M482 573h-184v-573h-94v573h-184v88h462v-88zM138 826h66l45 -69h4l45 69h66c-12 -17.333 -23.833 -35 -35.5 -53s-23.167 -36 -34.5 -54h-86z" />
    <glyph glyph-name="tcaron" unicode="&#x165;" horiz-adv-x="313" 
d="M217 572c8 17.333 14.5 38 19.5 62s7.5 47 7.5 69h74c0 -11.333 -1.33301 -23.333 -4 -36s-6.16699 -25 -10.5 -37s-8.83301 -23.167 -13.5 -33.5s-9 -18.5 -13 -24.5h-60zM260 75l-0.000976562 -74.999h-33c-36 0 -64.167 5.16699 -84.5 15.5
s-35.666 24.166 -45.999 41.499s-16.833 37.5 -19.5 60.5s-4 47.167 -4 72.5v232h-70v70h70v127h89v-127h98v-70h-98v-282c0 -16.667 5 -31.667 15 -45s27.333 -20 52 -20h31z" />
    <glyph glyph-name="Tbar" unicode="&#x166;" horiz-adv-x="503" 
d="M482 573h-184v-152h112v-58h-112v-363h-94v363h-108v58h108v152h-184v88h462v-88z" />
    <glyph glyph-name="tbar" unicode="&#x167;" horiz-adv-x="307" 
d="M-6 492l89 0.000976562v127h88v-127h101v-70h-101v-55h67v-63h-67v-164c0 -16.667 5.16699 -31.667 15.5 -45s27.5 -20 51.5 -20h32v-75h-37c-30.667 0 -55.667 4.66699 -75 14s-34.5 20.5 -45.5 33.5s-18.667 26.667 -23 41s-6.5 26.166 -6.5 35.499v180h-60v63h60v55
h-89v70z" />
    <glyph glyph-name="Utilde" unicode="&#x168;" horiz-adv-x="631" 
d="M569 661v-420.998c0 -34 -6.5 -66 -19.5 -96s-30.667 -56 -53 -78s-48.833 -39.5 -79.5 -52.5s-63.667 -19.5 -99 -19.5s-68.666 6.5 -99.999 19.5s-58.666 30.5 -81.999 52.5s-41.666 48 -54.999 78s-20 62 -20 96v421h95v-417c0 -21.333 4.16699 -41.5 12.5 -60.5
s19.666 -36 33.999 -51s31.333 -26.833 51 -35.5s40.5 -13 62.5 -13s42.667 4.16699 62 12.5s36.166 19.666 50.499 33.999s25.666 31.166 33.999 50.499s12.5 40.333 12.5 63v417h94zM378 737.002c-13.333 0 -25.998 1.83203 -37.998 5.49902s-23.5 7.66699 -34.5 12
s-21.5 8.33301 -31.5 12s-19.667 5.5 -29 5.5s-16.666 -3.16699 -21.999 -9.5s-9.33301 -13.166 -12 -20.499h-57c2 27.333 11.667 49.5 29 66.5s41 25.5 71 25.5c11.333 0 22.5 -1.83301 33.5 -5.5s21.833 -7.5 32.5 -11.5s21.167 -7.83301 31.5 -11.5
s20.166 -5.5 29.499 -5.5c11.333 0 19.666 2.66699 24.999 8s9.33301 12.666 12 21.999h58c-1.33301 -11.333 -4.33301 -22.666 -9 -33.999s-11.167 -21.333 -19.5 -30s-18.333 -15.667 -30 -21s-24.834 -8 -39.501 -8z" />
    <glyph glyph-name="utilde" unicode="&#x169;" 
d="M238 -4c-54 0 -97.833 15.999 -131.5 47.999s-50.5 78.667 -50.5 140v312h88v-306c0 -15.333 2.83301 -29.833 8.5 -43.5s13.5 -25.667 23.5 -36s22 -18.666 36 -24.999s29.333 -9.5 46 -9.5s32.5 2.33301 47.5 7s28.167 11.5 39.5 20.5s20.5 20.5 27.5 34.5
s10.5 30.667 10.5 50v308h89v-496h-90v60h-4c-12 -18.667 -30.333 -34 -55 -46s-53 -18 -85 -18zM329 568.999c-14 0 -26.9961 1.83105 -38.9961 5.49805s-23.5 7.66699 -34.5 12s-21.5 8.33301 -31.5 12s-19.333 5.5 -28 5.5c-9.33301 0 -16.833 -3.16699 -22.5 -9.5
s-9.5 -13.166 -11.5 -20.499h-58c2.66699 27.333 12.5 49.5 29.5 66.5s40.5 25.5 70.5 25.5c11.333 0 22.666 -1.83301 33.999 -5.5s22.166 -7.5 32.499 -11.5s20.666 -7.83301 30.999 -11.5s20.166 -5.5 29.499 -5.5c20.667 0 33 10 37 30h58
c-1.33301 -11.333 -4.33301 -22.666 -9 -33.999s-11.167 -21.333 -19.5 -30s-18.333 -15.667 -30 -21s-24.5 -8 -38.5 -8z" />
    <glyph glyph-name="Umacron" unicode="&#x16a;" horiz-adv-x="631" 
d="M569 661v-420.998c0 -34 -6.5 -66 -19.5 -96s-30.667 -56 -53 -78s-48.833 -39.5 -79.5 -52.5s-63.667 -19.5 -99 -19.5s-68.666 6.5 -99.999 19.5s-58.666 30.5 -81.999 52.5s-41.666 48 -54.999 78s-20 62 -20 96v421h95v-417c0 -21.333 4.16699 -41.5 12.5 -60.5
s19.666 -36 33.999 -51s31.333 -26.833 51 -35.5s40.5 -13 62.5 -13s42.667 4.16699 62 12.5s36.166 19.666 50.499 33.999s25.666 31.166 33.999 50.499s12.5 40.333 12.5 63v417h94zM200 811.002h225v-58h-225v58z" />
    <glyph glyph-name="umacron" unicode="&#x16b;" 
d="M238 -4c-54 0 -97.833 15.999 -131.5 47.999s-50.5 78.667 -50.5 140v312h88v-306c0 -15.333 2.83301 -29.833 8.5 -43.5s13.5 -25.667 23.5 -36s22 -18.666 36 -24.999s29.333 -9.5 46 -9.5s32.5 2.33301 47.5 7s28.167 11.5 39.5 20.5s20.5 20.5 27.5 34.5
s10.5 30.667 10.5 50v308h89v-496h-90v60h-4c-12 -18.667 -30.333 -34 -55 -46s-53 -18 -85 -18zM154 642.999h224v-57h-224v57z" />
    <glyph glyph-name="Ubreve" unicode="&#x16c;" horiz-adv-x="631" 
d="M569 661v-420.998c0 -34 -6.5 -66 -19.5 -96s-30.667 -56 -53 -78s-48.833 -39.5 -79.5 -52.5s-63.667 -19.5 -99 -19.5s-68.666 6.5 -99.999 19.5s-58.666 30.5 -81.999 52.5s-41.666 48 -54.999 78s-20 62 -20 96v421h95v-417c0 -21.333 4.16699 -41.5 12.5 -60.5
s19.666 -36 33.999 -51s31.333 -26.833 51 -35.5s40.5 -13 62.5 -13s42.667 4.16699 62 12.5s36.166 19.666 50.499 33.999s25.666 31.166 33.999 50.499s12.5 40.333 12.5 63v417h94zM316 713.002c-17.333 0 -33.6689 3 -49.002 9s-28.833 14.167 -40.5 24.5
s-21.167 22.666 -28.5 36.999s-11.666 29.5 -12.999 45.5h63c2.66699 -16 10.334 -29.333 23.001 -40s27.667 -16 45 -16s32 5.33301 44 16s19.667 24 23 40h62c-2 -16 -6.5 -31 -13.5 -45s-16.333 -26.167 -28 -36.5s-25 -18.666 -40 -24.999s-30.833 -9.5 -47.5 -9.5z" />
    <glyph glyph-name="ubreve" unicode="&#x16d;" 
d="M238 -4c-54 0 -97.833 15.999 -131.5 47.999s-50.5 78.667 -50.5 140v312h88v-306c0 -15.333 2.83301 -29.833 8.5 -43.5s13.5 -25.667 23.5 -36s22 -18.666 36 -24.999s29.333 -9.5 46 -9.5s32.5 2.33301 47.5 7s28.167 11.5 39.5 20.5s20.5 20.5 27.5 34.5
s10.5 30.667 10.5 50v308h89v-496h-90v60h-4c-12 -18.667 -30.333 -34 -55 -46s-53 -18 -85 -18zM263 544.999c-17.333 0 -33.6689 3.00098 -49.002 9.00098s-28.833 14.167 -40.5 24.5s-21.167 22.666 -28.5 36.999s-11.666 29.5 -12.999 45.5h63
c2.66699 -16 10.334 -29.333 23.001 -40s27.667 -16 45 -16s32 5.33301 44 16s19.667 24 23 40h62c-2 -15.333 -6.5 -30 -13.5 -44s-16.333 -26.333 -28 -37s-25 -19.167 -40 -25.5s-30.833 -9.5 -47.5 -9.5z" />
    <glyph glyph-name="Uring" unicode="&#x16e;" horiz-adv-x="631" 
d="M569 661v-420.998c0 -34 -6.5 -66 -19.5 -96s-30.667 -56 -53 -78s-48.833 -39.5 -79.5 -52.5s-63.667 -19.5 -99 -19.5s-68.666 6.5 -99.999 19.5s-58.666 30.5 -81.999 52.5s-41.666 48 -54.999 78s-20 62 -20 96v421h95v-417c0 -21.333 4.16699 -41.5 12.5 -60.5
s19.666 -36 33.999 -51s31.333 -26.833 51 -35.5s40.5 -13 62.5 -13s42.667 4.16699 62 12.5s36.166 19.666 50.499 33.999s25.666 31.166 33.999 50.499s12.5 40.333 12.5 63v417h94zM307 854.002c19.333 0 36 -6.83301 50 -20.5s21 -30.167 21 -49.5s-7 -36 -21 -50
s-30.667 -21 -50 -21s-35.833 7 -49.5 21s-20.5 30.667 -20.5 50s6.83301 35.833 20.5 49.5s30.167 20.5 49.5 20.5zM307 756.002c8 0 14.833 2.83301 20.5 8.5s8.5 12.167 8.5 19.5c0 8 -2.83301 14.833 -8.5 20.5s-12.5 8.5 -20.5 8.5s-14.833 -2.83301 -20.5 -8.5
s-8.5 -12.5 -8.5 -20.5c0 -7.33301 2.83301 -13.833 8.5 -19.5s12.5 -8.5 20.5 -8.5z" />
    <glyph glyph-name="uring" unicode="&#x16f;" 
d="M238 -4c-54 0 -97.833 15.999 -131.5 47.999s-50.5 78.667 -50.5 140v312h88v-306c0 -15.333 2.83301 -29.833 8.5 -43.5s13.5 -25.667 23.5 -36s22 -18.666 36 -24.999s29.333 -9.5 46 -9.5s32.5 2.33301 47.5 7s28.167 11.5 39.5 20.5s20.5 20.5 27.5 34.5
s10.5 30.667 10.5 50v308h89v-496h-90v60h-4c-12 -18.667 -30.333 -34 -55 -46s-53 -18 -85 -18zM266 685.999c19.333 0 36.166 -6.83301 50.499 -20.5s21.5 -30.167 21.5 -49.5s-7.16699 -36 -21.5 -50s-31.166 -21 -50.499 -21s-35.833 7 -49.5 21s-20.5 30.667 -20.5 50
s6.83301 35.833 20.5 49.5s30.167 20.5 49.5 20.5zM266 587.999c8 0 14.833 2.83301 20.5 8.5s8.5 12.167 8.5 19.5c0 8 -2.83301 14.833 -8.5 20.5s-12.5 8.5 -20.5 8.5c-7.33301 0 -13.833 -2.83301 -19.5 -8.5s-8.5 -12.5 -8.5 -20.5
c0 -7.33301 2.83301 -13.833 8.5 -19.5s12.167 -8.5 19.5 -8.5z" />
    <glyph glyph-name="Uhungarumlaut" unicode="&#x170;" horiz-adv-x="631" 
d="M569 661v-420.998c0 -34 -6.5 -66 -19.5 -96s-30.667 -56 -53 -78s-48.833 -39.5 -79.5 -52.5s-63.667 -19.5 -99 -19.5s-68.666 6.5 -99.999 19.5s-58.666 30.5 -81.999 52.5s-41.666 48 -54.999 78s-20 62 -20 96v421h95v-417c0 -21.333 4.16699 -41.5 12.5 -60.5
s19.666 -36 33.999 -51s31.333 -26.833 51 -35.5s40.5 -13 62.5 -13s42.667 4.16699 62 12.5s36.166 19.666 50.499 33.999s25.666 31.166 33.999 50.499s12.5 40.333 12.5 63v417h94zM365 703.002h-47l45 126h95zM229 703.002h-46l44 126h95z" />
    <glyph glyph-name="uhungarumlaut" unicode="&#x171;" 
d="M238 -4c-54 0 -97.833 15.999 -131.5 47.999s-50.5 78.667 -50.5 140v312h88v-306c0 -15.333 2.83301 -29.833 8.5 -43.5s13.5 -25.667 23.5 -36s22 -18.666 36 -24.999s29.333 -9.5 46 -9.5s32.5 2.33301 47.5 7s28.167 11.5 39.5 20.5s20.5 20.5 27.5 34.5
s10.5 30.667 10.5 50v308h89v-496h-90v60h-4c-12 -18.667 -30.333 -34 -55 -46s-53 -18 -85 -18zM324 534.999h-46l44 126h95zM188 534.999h-46l44 126h95z" />
    <glyph glyph-name="Uogonek" unicode="&#x172;" horiz-adv-x="631" 
d="M569 661v-420.998c0 -34 -6.5 -66 -19.5 -96s-30.667 -56 -53 -78s-48.833 -39.5 -79.5 -52.5s-63.667 -19.5 -99 -19.5s-68.666 6.5 -99.999 19.5s-58.666 30.5 -81.999 52.5s-41.666 48 -54.999 78s-20 62 -20 96v421h95v-417c0 -21.333 4.16699 -41.5 12.5 -60.5
s19.666 -36 33.999 -51s31.333 -26.833 51 -35.5s40.5 -13 62.5 -13s42.667 4.16699 62 12.5s36.166 19.666 50.499 33.999s25.666 31.166 33.999 50.499s12.5 40.333 12.5 63v417h94zM548 -1.99805c-14.667 -7.33301 -29.167 -17.167 -43.5 -29.5
s-21.5 -26.833 -21.5 -43.5c0 -14.667 5 -25.5 15 -32.5s21.667 -10.5 35 -10.5c14 0 26.333 2.66699 37 8v-41c-13.333 -5.33301 -29.333 -8 -48 -8c-22.667 0 -42.667 6.33301 -60 19s-26 31 -26 55c0 18.667 6.33301 35.5 19 50.5s26.667 26.5 42 34.5z" />
    <glyph glyph-name="uogonek" unicode="&#x173;" 
d="M238 -4c-54 0 -97.833 15.999 -131.5 47.999s-50.5 78.667 -50.5 140v312h88v-306c0 -15.333 2.83301 -29.833 8.5 -43.5s13.5 -25.667 23.5 -36s22 -18.666 36 -24.999s29.333 -9.5 46 -9.5s32.5 2.33301 47.5 7s28.167 11.5 39.5 20.5s20.5 20.5 27.5 34.5
s10.5 30.667 10.5 50v308h89v-496h-90v60h-4c-12 -18.667 -30.333 -34 -55 -46s-53 -18 -85 -18zM463 -2.00098c-14.667 -7.33301 -29.166 -17.167 -43.499 -29.5s-21.5 -26.833 -21.5 -43.5c0 -14.667 5 -25.5 15 -32.5s21.667 -10.5 35 -10.5s25.666 2.66699 36.999 8v-41
c-13.333 -5.33301 -29.333 -8 -48 -8c-23.333 0 -43.5 6.33301 -60.5 19s-25.5 31 -25.5 55c0 18.667 6.33301 35.5 19 50.5s26.667 26.5 42 34.5z" />
    <glyph glyph-name="Wcircumflex" unicode="&#x174;" horiz-adv-x="762" 
d="M742 661l-147.001 -661h-104c-17.333 84 -34.333 167.667 -51 251s-33.667 167.333 -51 252h-6c-20.667 -84.667 -41.167 -168.667 -61.5 -252s-41.166 -167 -62.499 -251h-98l-145 661h96l105 -520h6c19.333 87.333 38.833 174 58.5 260s39.5 172.667 59.5 260h97
l98 -520h6l105 520h95zM343.999 826h86l70 -107h-66l-46 70h-4l-44 -70h-66z" />
    <glyph glyph-name="wcircumflex" unicode="&#x175;" horiz-adv-x="679" 
d="M296 661h86l70 -107h-66l-46 70h-4l-44 -70h-66zM659 492l-123 -492h-100l-95 356h-4l-92 -356h-101l-124 492h93l82 -379h4l95 379h94l94 -379h4l81 379h92z" />
    <glyph glyph-name="Ycircumflex" unicode="&#x176;" horiz-adv-x="593" 
d="M578 661l-234 -382v-279h-95v279l-234 382h107l172 -285h4l173 285h107zM253 826h86l70 -107h-66l-46 70h-4l-44 -70h-66z" />
    <glyph glyph-name="ycircumflex" unicode="&#x177;" horiz-adv-x="475" 
d="M195 661h86l70 -107h-66l-46 70h-4l-44 -70h-66zM455 492l-192.997 -539c-9.33301 -25.333 -19.5 -46 -30.5 -62s-23.5 -28.5 -37.5 -37.5s-29.833 -15 -47.5 -18s-37.834 -4.5 -60.501 -4.5v72c14.667 0 27.167 1 37.5 3s19.166 5.5 26.499 10.5
s13.666 11.667 18.999 20s10.333 18.833 15 31.5l12 37l-176 487h97l119 -377h4l121 377h94z" />
    <glyph glyph-name="Ydieresis" unicode="&#x178;" horiz-adv-x="589" 
d="M572 661l-234 -382v-279h-94v279l-234 382h107l172 -285h4l172 285h107zM173 788c0 12.667 4.33301 23.334 13 32.001s19 13 31 13c12.667 0 23.334 -4.33301 32.001 -13s13 -19.334 13 -32.001c0 -12 -4.33301 -22.333 -13 -31s-19.334 -13 -32.001 -13
c-12 0 -22.333 4.33301 -31 13s-13 19 -13 31zM323 788c0 12.667 4.33301 23.334 13 32.001s19 13 31 13s22.5 -4.33301 31.5 -13s13.5 -19.334 13.5 -32.001c0 -12 -4.5 -22.333 -13.5 -31s-19.5 -13 -31.5 -13s-22.333 4.33301 -31 13s-13 19 -13 31z" />
    <glyph glyph-name="Zacute" unicode="&#x179;" horiz-adv-x="558" 
d="M506 661v-85l-328 -488l2 -3h326v-85h-449v85l327 487c-0.666992 0 -1 1.33301 -1 4h-326v85h449zM264 825h97l-99 -108h-63z" />
    <glyph glyph-name="zacute" unicode="&#x17a;" horiz-adv-x="466" 
d="M432 424l-280 -344v-4h280v-76h-399v69l280 343v4h-268v76h387v-68zM217 661h97l-99 -108h-63z" />
    <glyph glyph-name="Zdotaccent" unicode="&#x17b;" horiz-adv-x="558" 
d="M506 661v-85l-328 -488l2 -3h326v-85h-449v85l327 487c-0.666992 0 -1 1.33301 -1 4h-326v85h449zM232 786c0 14 5.16699 25.667 15.5 35s22.5 14 36.5 14c14.667 0 27.334 -4.66699 38.001 -14s16 -21 16 -35s-5.33301 -25.667 -16 -35s-23.334 -14 -38.001 -14
c-14 0 -26.167 4.66699 -36.5 14s-15.5 21 -15.5 35z" />
    <glyph glyph-name="zdotaccent" unicode="&#x17c;" horiz-adv-x="466" 
d="M432 424l-280 -344v-4h280v-76h-399v69l280 343v4h-268v76h387v-68zM186 618c0 14 5.16699 25.667 15.5 35s22.5 14 36.5 14c14.667 0 27.167 -4.66699 37.5 -14s15.5 -21 15.5 -35s-5.16699 -25.667 -15.5 -35s-22.833 -14 -37.5 -14c-14 0 -26.167 4.66699 -36.5 14
s-15.5 21 -15.5 35z" />
    <glyph glyph-name="Zcaron" unicode="&#x17d;" horiz-adv-x="569" 
d="M513 661v-85l-328 -488l2 -3h326v-85h-449v85l327 487c-0.666992 0 -1 1.33301 -1 4h-326v85h449zM182 834h65l45 -69h5l45 69h65l-69 -107h-87z" />
    <glyph glyph-name="zcaron" unicode="&#x17e;" horiz-adv-x="456" 
d="M427 424l-280 -344v-4h279v-76h-398v69l280 343v4h-268v76h387v-68zM129 661h65l45 -69h5l45 69h65l-70 -107h-86z" />
    <glyph glyph-name="longs" unicode="&#x17f;" horiz-adv-x="282" 
d="M224 598c-24 0 -41.166 -6.49902 -51.499 -19.499s-15.5 -27.5 -15.5 -43.5v-535h-88v422h-56v70h56v44c0 16.667 3 32.667 9 48s15 28.666 27 39.999s27.167 20.5 45.5 27.5s40.166 10.5 65.499 10.5h40v-64h-32z" />
    <glyph glyph-name="florin" unicode="&#x192;" horiz-adv-x="241" 
d="M229 607c-18 0 -33.499 -6.83203 -46.499 -20.499s-19.5 -29.5 -19.5 -47.5v-214h65v-57h-65v-171c0 -20.667 -0.833008 -41 -2.5 -61s-3.83398 -39.667 -6.50098 -59c-5.33301 -34.667 -20.5 -61.5 -45.5 -80.5s-55.167 -28.5 -90.5 -28.5h-13v60h7
c18 0 33.5 6.83301 46.5 20.5s19.5 29.834 19.5 48.501v271h-64v57h64v119c0 21.333 1 41.666 3 60.999s4.66699 38.666 8 57.999c2.66699 16.667 8.16699 31.5 16.5 44.5s18.5 24.167 30.5 33.5s25.5 16.5 40.5 21.5s30.5 7.5 46.5 7.5h12v-63h-6z" />
    <glyph glyph-name="AEacute" unicode="&#x1fc;" horiz-adv-x="907" 
d="M560 820h97l-99 -107h-63zM437 196h-233l-93 -196h-95l309 661h501v-81h-361l37 -209h291v-80h-277l38 -212h300v-79h-382zM425 271c-9.33301 48 -18 95.833 -26 143.5s-16.333 95.5 -25 143.5h-4l-130 -287h185z" />
    </font>
</defs>
</svg>
