<?xml version="1.0" encoding="utf-8"?>
<!-- Generator: Adobe Illustrator 24.0.2, SVG Export Plug-In . SVG Version: 6.00 Build 0)  -->
<svg version="1.1" id="hvg_x5F_negyzetLogo_xA0_Image_1_"
	 xmlns="http://www.w3.org/2000/svg" xmlns:xlink="http://www.w3.org/1999/xlink" x="0px" y="0px" viewBox="0 0 140 49.6"
	 style="enable-background:new 0 0 140 49.6;" xml:space="preserve">
<style type="text/css">
	.st0{display:none;fill:#EA5B0C;}
	.st1{fill:#E25900;}
</style>
<rect x="-79.6" y="-201.4" class="st0" width="1429.7" height="850.3"/>
<path class="st1" d="M8.4,14.3c0.8-0.8,1.6-1.5,3-2.1c1.3-0.5,2.5-0.7,3.8-0.7c2.8,0,4.9,1,6.6,3s2.3,4.9,2.3,8.9v15.3h-8.4V23.4
	c0-2-0.3-3.5-0.8-4.3c-0.5-0.8-1.3-1.2-2.5-1.2c-1,0-1.8,0.2-2.5,0.3c-0.7,0.3-1.3,0.7-1.6,1.2v19.1H0L0.2,0.2h8.2V14.3z"/>
<path class="st1" d="M36.7,29.5L36.7,29.5L41.2,12h8.6L41,38.7h-8.4L23.9,12h8.6L36.7,29.5z"/>
<path class="st1" d="M51.6,15.3c1.8-2.6,4.4-3.8,7.7-3.8c1.5,0,2.8,0.5,3.8,1c0.7,0.5,1.8,1.2,2.3,2l0.5-2.5h7.7v26.5
	c0,3.5-1.2,6.3-3.5,8.2c-2.5,1.8-5.9,2.8-10,2.8c-1.3,0-2.8-0.2-4.3-0.5c-1.5-0.3-3-0.8-4.3-1.5l2-5.9c0.8,0.3,1.8,0.7,2.8,0.8
	c1.2,0.3,2.3,0.5,3.8,0.5c1.8,0,3-0.5,3.8-1.2c0.8-0.7,1.5-1.8,1.5-3.3v-2.1c-0.8,1-1.6,1.6-2.6,2.1c-1,0.5-2.1,0.8-3.5,0.8
	c-3.3,0-5.9-1.2-7.7-3.6c-1.8-2.5-2.8-5.8-2.8-9.9C48.9,21.6,49.7,18,51.6,15.3z M58.1,31c0.7,1.2,1.6,1.8,3.1,1.8
	c1,0,1.6-0.2,2.3-0.5c0.7-0.3,1.2-0.8,1.6-1.3v-11c-0.5-0.7-1-1.2-1.6-1.5c-0.7-0.3-1.5-0.5-2.3-0.5c-1.5,0-2.5,0.8-3.3,2.1
	c-0.7,1.3-1.2,3.5-1.2,5.6C57.2,27.8,57.5,29.8,58.1,31z"/>
<path class="st1" d="M132.6,35.6c-1,0.8-1.6,1.3-3,2c-1.2,0.7-2.8,1-4.4,1c-2.6,0-4.8-0.8-6.4-2.6c-1.5-1.8-2.3-4.4-2.3-8.1V12h8.2
	v16c0,1.5,0.3,2.6,0.8,3.3c0.5,0.7,1.3,1.2,2.3,1.2c0.8,0,1.6-0.2,2.3-0.3c0.7-0.2,1.2-0.7,1.6-1.2V12h8.2v26.2h-7.1L132.6,35.6z"/>
<rect x="77.6" y="30.5" class="st1" width="8.2" height="8.2"/>
<path class="st1" d="M98.2,14.3c0.8-0.8,1.6-1.5,3-2.1c1.2-0.5,2.5-0.7,3.8-0.7c2.8,0,4.9,1,6.6,3c1.6,2,2.3,4.9,2.3,8.9v15.3h-8.4
	V23.4c0-2-0.3-3.5-0.8-4.3c-0.5-0.8-1.3-1.2-2.5-1.2c-1,0-1.8,0.2-2.5,0.3c-0.7,0.3-1.3,0.7-1.6,1.2v19.1h-8.2V0H98L98.2,14.3z"/>
</svg>
