<?xml version="1.0" encoding="utf-8"?>
<!-- Generator: Adobe Illustrator 25.0.0, SVG Export Plug-In . SVG Version: 6.00 Build 0)  -->
<svg version="1.1" xmlns="http://www.w3.org/2000/svg" xmlns:xlink="http://www.w3.org/1999/xlink" x="0px" y="0px"
	 viewBox="0 0 60 30" style="enable-background:new 0 0 60 30;" xml:space="preserve">
<style type="text/css">
	.st0{fill:#E3210D;}
	.st1{display:none;}
	.st2{display:inline;fill:#FFFFFF;}
	.st3{font-family:'Roboto-Bold';}
	.st4{font-size:21.5404px;}
</style>
<g id="Layer_1">
	<path class="st0" d="M4.4,30H43c2.5,0,4.4-1.6,4.4-3.6v-2.8L58,28.5c0.4,0.2,0.9,0.2,1.3,0s0.7-0.5,0.7-1v-25c0-0.4-0.3-0.7-0.7-1
		c-0.3-0.1-0.4-0.1-0.7-0.1s-0.4,0-0.7,0.1L47.4,6.5V3.6c0-2-2-3.6-4.4-3.6L4.4,0C2,0,0,1.6,0,3.6l0,22.7C0.1,28.4,2.1,30,4.4,30z"
		/>
</g>
<g id="Layer_2" class="st1">
	<text transform="matrix(1 0 0 1 3.7892 22.8008)" class="st2 st3 st4">ÉLŐ</text>
</g>
</svg>
